<?xml version="1.0" encoding="utf-8"?>
<!-- Generator: Adobe Illustrator 18.0.0, SVG Export Plug-In . SVG Version: 6.00 Build 0)  -->
<!DOCTYPE svg PUBLIC "-//W3C//DTD SVG 1.1//EN" "http://www.w3.org/Graphics/SVG/1.1/DTD/svg11.dtd">
<svg version="1.1" xmlns="http://www.w3.org/2000/svg" xmlns:xlink="http://www.w3.org/1999/xlink" x="0px" y="0px"
	 viewBox="0 0 1440 700" enable-background="new 0 0 1440 700" xml:space="preserve">
<g id="Layer_2">
	<rect y="2.8" fill="#FFFFFF" width="1440" height="697.2"/>
	<rect x="0.6" y="0" fill="#106883" width="1440" height="700"/>
</g>
<g id="Layer_1">
	<rect x="332.8" y="541.3" fill="#9EC9DB" width="776" height="139"/>
	<g>
		<g id="windows_19_">
			<path fill="#8AA7B2" d="M365,578.7c9.3,0,16.9,7.6,16.9,16.9v20.3h-33.8v-20.3C348.1,586.2,355.6,578.7,365,578.7z"/>
			<path fill="#779499" d="M365,582.5c6.9,0,12.4,5.6,12.4,12.4v21h-24.8v-21C352.6,588,358.1,582.5,365,582.5z"/>
			<g>
				<ellipse fill="#AE8F3A" cx="365" cy="584.2" rx="5.4" ry="7.2"/>
			</g>
			<path fill="#8AA7B2" d="M365,635.1c9.3,0,16.9,7.6,16.9,16.9v28.2h-33.8V652C348.1,642.7,355.6,635.1,365,635.1z"/>
			<path fill="#779499" d="M365,638.6c6.9,0,12.4,5.6,12.4,12.4v29.3h-24.8V651C352.6,644.2,358.1,638.6,365,638.6z"/>
			<g>
				<ellipse fill="#AE8F3A" cx="365" cy="640.4" rx="5.4" ry="7.2"/>
			</g>
		</g>
		<g id="windows_18_">
			<path fill="#8AA7B2" d="M413,578.7c9.3,0,16.9,7.6,16.9,16.9v20.3h-33.8v-20.3C396.1,586.2,403.7,578.7,413,578.7z"/>
			<path fill="#779499" d="M413,582.5c6.9,0,12.4,5.6,12.4,12.4v21h-24.8v-21C400.6,588,406.2,582.5,413,582.5z"/>
			<g>
				<ellipse fill="#AE8F3A" cx="413" cy="584.2" rx="5.4" ry="7.2"/>
			</g>
			<path fill="#8AA7B2" d="M413,635.1c9.3,0,16.9,7.6,16.9,16.9v28.2h-33.8V652C396.1,642.7,403.7,635.1,413,635.1z"/>
			<path fill="#779499" d="M413,638.6c6.9,0,12.4,5.6,12.4,12.4v29.3h-24.8V651C400.6,644.2,406.2,638.6,413,638.6z"/>
			<g>
				<ellipse fill="#AE8F3A" cx="413" cy="640.4" rx="5.4" ry="7.2"/>
			</g>
		</g>
		<g id="windows_17_">
			<path fill="#8AA7B2" d="M461.1,578.7c9.3,0,16.9,7.6,16.9,16.9v20.3h-33.8v-20.3C444.2,586.2,451.7,578.7,461.1,578.7z"/>
			<path fill="#779499" d="M461.1,582.5c6.9,0,12.4,5.6,12.4,12.4v21h-24.8v-21C448.7,588,454.2,582.5,461.1,582.5z"/>
			<g>
				<ellipse fill="#AE8F3A" cx="461.1" cy="584.2" rx="5.4" ry="7.2"/>
			</g>
			<path fill="#8AA7B2" d="M461.1,635.1c9.3,0,16.9,7.6,16.9,16.9v28.2h-33.8V652C444.2,642.7,451.7,635.1,461.1,635.1z"/>
			<path fill="#779499" d="M461.1,638.6c6.9,0,12.4,5.6,12.4,12.4v29.3h-24.8V651C448.7,644.2,454.2,638.6,461.1,638.6z"/>
			<g>
				<ellipse fill="#AE8F3A" cx="461.1" cy="640.4" rx="5.4" ry="7.2"/>
			</g>
		</g>
		<g id="windows_16_">
			<path fill="#8AA7B2" d="M509.1,578.7c9.3,0,16.9,7.6,16.9,16.9v20.3h-33.8v-20.3C492.2,586.2,499.8,578.7,509.1,578.7z"/>
			<path fill="#779499" d="M509.1,582.5c6.9,0,12.4,5.6,12.4,12.4v21h-24.8v-21C496.7,588,502.3,582.5,509.1,582.5z"/>
			<g>
				<ellipse fill="#AE8F3A" cx="509.1" cy="584.2" rx="5.4" ry="7.2"/>
			</g>
			<path fill="#8AA7B2" d="M509.1,635.1c9.3,0,16.9,7.6,16.9,16.9v28.2h-33.8V652C492.2,642.7,499.8,635.1,509.1,635.1z"/>
			<path fill="#779499" d="M509.1,638.6c6.9,0,12.4,5.6,12.4,12.4v29.3h-24.8V651C496.7,644.2,502.3,638.6,509.1,638.6z"/>
			<g>
				<ellipse fill="#AE8F3A" cx="509.1" cy="640.4" rx="5.4" ry="7.2"/>
			</g>
		</g>
	</g>
	<g>
		<g id="windows_15_">
			<path fill="#8AA7B2" d="M1076.6,578.7c-9.3,0-16.9,7.6-16.9,16.9v20.3h33.8v-20.3C1093.5,586.2,1086,578.7,1076.6,578.7z"/>
			<path fill="#779499" d="M1076.6,582.5c-6.9,0-12.4,5.6-12.4,12.4v21h24.8v-21C1089.1,588,1083.5,582.5,1076.6,582.5z"/>
			<g>
				<ellipse fill="#AE8F3A" cx="1076.6" cy="584.2" rx="5.4" ry="7.2"/>
			</g>
			<path fill="#8AA7B2" d="M1076.6,635.1c-9.3,0-16.9,7.6-16.9,16.9v28.2h33.8V652C1093.5,642.7,1086,635.1,1076.6,635.1z"/>
			<path fill="#779499" d="M1076.6,638.6c-6.9,0-12.4,5.6-12.4,12.4v29.3h24.8V651C1089.1,644.2,1083.5,638.6,1076.6,638.6z"/>
			<g>
				<ellipse fill="#AE8F3A" cx="1076.6" cy="640.4" rx="5.4" ry="7.2"/>
			</g>
		</g>
		<g id="windows_14_">
			<path fill="#8AA7B2" d="M1028.6,578.7c-9.3,0-16.9,7.6-16.9,16.9v20.3h33.8v-20.3C1045.5,586.2,1037.9,578.7,1028.6,578.7z"/>
			<path fill="#779499" d="M1028.6,582.5c-6.9,0-12.4,5.6-12.4,12.4v21h24.8v-21C1041,588,1035.4,582.5,1028.6,582.5z"/>
			<g>
				<ellipse fill="#AE8F3A" cx="1028.6" cy="584.2" rx="5.4" ry="7.2"/>
			</g>
			<path fill="#8AA7B2" d="M1028.6,635.1c-9.3,0-16.9,7.6-16.9,16.9v28.2h33.8V652C1045.5,642.7,1037.9,635.1,1028.6,635.1z"/>
			<path fill="#779499" d="M1028.6,638.6c-6.9,0-12.4,5.6-12.4,12.4v29.3h24.8V651C1041,644.2,1035.4,638.6,1028.6,638.6z"/>
			<g>
				<ellipse fill="#AE8F3A" cx="1028.6" cy="640.4" rx="5.4" ry="7.2"/>
			</g>
		</g>
		<g id="windows_13_">
			<path fill="#8AA7B2" d="M980.5,578.7c-9.3,0-16.9,7.6-16.9,16.9v20.3h33.8v-20.3C997.4,586.2,989.9,578.7,980.5,578.7z"/>
			<path fill="#779499" d="M980.5,582.5c-6.9,0-12.4,5.6-12.4,12.4v21h24.8v-21C992.9,588,987.4,582.5,980.5,582.5z"/>
			<g>
				<ellipse fill="#AE8F3A" cx="980.5" cy="584.2" rx="5.4" ry="7.2"/>
			</g>
			<path fill="#8AA7B2" d="M980.5,635.1c-9.3,0-16.9,7.6-16.9,16.9v28.2h33.8V652C997.4,642.7,989.9,635.1,980.5,635.1z"/>
			<path fill="#779499" d="M980.5,638.6c-6.9,0-12.4,5.6-12.4,12.4v29.3h24.8V651C992.9,644.2,987.4,638.6,980.5,638.6z"/>
			<g>
				<ellipse fill="#AE8F3A" cx="980.5" cy="640.4" rx="5.4" ry="7.2"/>
			</g>
		</g>
		<g id="windows_12_">
			<path fill="#8AA7B2" d="M932.5,578.7c-9.3,0-16.9,7.6-16.9,16.9v20.3h33.8v-20.3C949.4,586.2,941.8,578.7,932.5,578.7z"/>
			<path fill="#779499" d="M932.5,582.5c-6.9,0-12.4,5.6-12.4,12.4v21h24.8v-21C944.9,588,939.3,582.5,932.5,582.5z"/>
			<g>
				<ellipse fill="#AE8F3A" cx="932.5" cy="584.2" rx="5.4" ry="7.2"/>
			</g>
			<path fill="#8AA7B2" d="M932.5,635.1c-9.3,0-16.9,7.6-16.9,16.9v28.2h33.8V652C949.4,642.7,941.8,635.1,932.5,635.1z"/>
			<path fill="#779499" d="M932.5,638.6c-6.9,0-12.4,5.6-12.4,12.4v29.3h24.8V651C944.9,644.2,939.3,638.6,932.5,638.6z"/>
			<g>
				<ellipse fill="#AE8F3A" cx="932.5" cy="640.4" rx="5.4" ry="7.2"/>
			</g>
		</g>
	</g>
	<rect x="332.8" y="555.4" fill="#8C6E33" width="776" height="7.4"/>
	<rect x="332.8" y="615.2" fill="#8C6E33" width="776" height="7.4"/>
	<g>
		<polygon fill="#8CB2BF" points="309.1,680.3 332.8,680.3 332.8,541.3 309.1,530.2 		"/>
		<polygon fill="#7F662D" points="309.1,554.1 332.8,562.7 332.8,555.4 309.1,545.4 		"/>
		<polygon fill="#7F662D" points="309.1,614 332.8,622.6 332.8,615.3 309.1,605.3 		"/>
		<rect x="156.8" y="530.2" fill="#B5D6E2" width="152.3" height="150.1"/>
		<g>
			<polygon fill="#9E7A2E" points="232.9,509.3 327.7,545.4 232.9,545.4 138.2,545.4 			"/>
			<path fill="#AE8F3A" d="M138.2,545.4"/>
			<polygon fill="#B5D6E2" points="233.3,515.3 311.9,545.4 233.3,545.4 154.6,545.4 			"/>
			<g>
				<polygon fill="#AE8F3A" points="233.5,505.9 233.9,505.9 240.9,505.9 237.6,520.1 234.1,520.1 233.4,520.1 229.9,520.1 
					226.5,505.9 				"/>
			</g>
			<g>
				<g id="seashell_5_">
					<path fill="#8A6726" d="M233.4,536.9c0,0-5.7-7.1-7.3-2.7C224.5,538.6,233.4,536.9,233.4,536.9z"/>
					<path fill="#9E7A2E" d="M233.7,537.7c0,0-0.5-11.5-5.4-8.3C223.3,532.7,233.7,537.7,233.7,537.7z"/>
					<path fill="#8A6726" d="M234.1,536.9c0,0,5.7-7.1,7.3-2.7C243,538.6,234.1,536.9,234.1,536.9z"/>
					<path fill="#9E7A2E" d="M233.7,537.7c0,0,0.5-11.5,5.4-8.3C244.2,532.7,233.7,537.7,233.7,537.7z"/>
					<path fill="#AE8F3A" d="M233.7,537.6c0,0,7.2-12,0-12S233.7,537.6,233.7,537.6z"/>
					<path fill="#8A6726" d="M233.4,536.8L233.4,536.8c0,0,0.1,0,0.3,0s0.3,0,0.3,0l0,0c1,0.1,3,0.4,3,2.2c-1.6,0-2.5,0-3,0
						c-0.6,0-0.6,0-0.6,0c-0.5,0-1.4,0-3,0C230.4,537.2,232.4,536.8,233.4,536.8z"/>
				</g>
			</g>
		</g>
		<g id="windows_11_">
			<path fill="#9DB9BF" d="M198.9,570.6c9.3,0,16.9,7.6,16.9,16.9v20.3H182v-20.3C182,578.2,189.6,570.6,198.9,570.6z"/>
			<path fill="#9DB9BF" d="M268.5,570.6c9.3,0,16.9,7.6,16.9,16.9v20.3h-33.8v-20.3C251.6,578.2,259.1,570.6,268.5,570.6z"/>
			<path fill="#779499" d="M268.5,574.4c6.9,0,12.4,5.6,12.4,12.4v19.7h-24.8v-19.7C256.1,579.9,261.6,574.4,268.5,574.4z"/>
			<path fill="#779499" d="M198.9,574.4c6.9,0,12.4,5.6,12.4,12.4v19.7h-24.8v-19.7C186.5,579.9,192,574.4,198.9,574.4z"/>
			<g>
				<ellipse fill="#AE8F3A" cx="268.5" cy="576.1" rx="5.4" ry="7.2"/>
			</g>
			<g>
				<ellipse fill="#AE8F3A" cx="198.9" cy="576.1" rx="5.4" ry="7.2"/>
			</g>
			<path fill="#9DB9BF" d="M198.9,627c9.3,0,16.9,7.6,16.9,16.9v36.3H182V644C182,634.6,189.6,627,198.9,627z"/>
			<path fill="#9DB9BF" d="M268.5,627c9.3,0,16.9,7.6,16.9,16.9v36.3h-33.8V644C251.6,634.6,259.1,627,268.5,627z"/>
			<path fill="#779499" d="M268.5,630.5c6.9,0,12.4,5.6,12.4,12.4v37.4h-24.8v-37.4C256.1,636.1,261.6,630.5,268.5,630.5z"/>
			<path fill="#779499" d="M198.9,630.5c6.9,0,12.4,5.6,12.4,12.4v37.4h-24.8v-37.4C186.5,636.1,192,630.5,198.9,630.5z"/>
			<g>
				<ellipse fill="#AE8F3A" cx="268.5" cy="632.3" rx="5.4" ry="7.2"/>
			</g>
			<g>
				<ellipse fill="#AE8F3A" cx="198.9" cy="632.3" rx="5.4" ry="7.2"/>
			</g>
		</g>
		<g>
			<rect x="156.8" y="605.3" fill="#AE8F3A" width="152.3" height="8.7"/>
			<rect x="156.8" y="545.4" fill="#AE8F3A" width="152.3" height="8.7"/>
		</g>
	</g>
	<g>
		<polygon fill="#8CB2BF" points="1131.7,680.3 1108,680.3 1108,541.3 1131.7,530.2 		"/>
		<polygon fill="#7F662D" points="1131.7,554.1 1108,562.7 1108,555.4 1131.7,545.4 		"/>
		<polygon fill="#7F662D" points="1131.7,614 1108,622.6 1108,615.3 1131.7,605.3 		"/>
		<rect x="1131.7" y="530.2" fill="#B5D6E2" width="152.3" height="150.1"/>
		<g>
			<polygon fill="#9E7A2E" points="1207.8,509.3 1113.1,545.4 1207.8,545.4 1302.6,545.4 			"/>
			<path fill="#AE8F3A" d="M1302.6,545.4"/>
			<polygon fill="#B5D6E2" points="1207.5,515.3 1128.9,545.4 1207.5,545.4 1286.2,545.4 			"/>
			<g>
				<polygon fill="#AE8F3A" points="1207.3,505.9 1206.8,505.9 1199.9,505.9 1203.2,520.1 1206.7,520.1 1207.4,520.1 1210.9,520.1 
					1214.2,505.9 				"/>
			</g>
			<g>
				<g id="seashell_4_">
					<path fill="#8A6726" d="M1207.4,536.9c0,0,5.7-7.1,7.3-2.7C1216.3,538.6,1207.4,536.9,1207.4,536.9z"/>
					<path fill="#9E7A2E" d="M1207,537.7c0,0,0.5-11.5,5.4-8.3C1217.5,532.7,1207,537.7,1207,537.7z"/>
					<path fill="#8A6726" d="M1206.7,536.9c0,0-5.7-7.1-7.3-2.7C1197.8,538.6,1206.7,536.9,1206.7,536.9z"/>
					<path fill="#9E7A2E" d="M1207,537.7c0,0-0.5-11.5-5.4-8.3C1196.6,532.7,1207,537.7,1207,537.7z"/>
					<path fill="#AE8F3A" d="M1207.1,537.6c0,0-7.2-12,0-12C1214.3,525.6,1207.1,537.6,1207.1,537.6z"/>
					<path fill="#8A6726" d="M1207.4,536.8L1207.4,536.8c0,0-0.1,0-0.3,0c-0.2,0-0.3,0-0.3,0l0,0c-1,0.1-3,0.4-3,2.2
						c1.6,0,2.5,0,3,0c0.6,0,0.6,0,0.6,0c0.5,0,1.4,0,3,0C1210.4,537.2,1208.4,536.8,1207.4,536.8z"/>
				</g>
			</g>
		</g>
		<g id="windows_10_">
			<path fill="#9DB9BF" d="M1241.9,570.6c-9.3,0-16.9,7.6-16.9,16.9v20.3h33.8v-20.3C1258.8,578.2,1251.2,570.6,1241.9,570.6z"/>
			<path fill="#9DB9BF" d="M1172.3,570.6c-9.3,0-16.9,7.6-16.9,16.9v20.3h33.8v-20.3C1189.2,578.2,1181.6,570.6,1172.3,570.6z"/>
			<path fill="#779499" d="M1172.3,574.4c-6.9,0-12.4,5.6-12.4,12.4v19.7h24.8v-19.7C1184.7,579.9,1179.2,574.4,1172.3,574.4z"/>
			<path fill="#779499" d="M1241.9,574.4c-6.9,0-12.4,5.6-12.4,12.4v19.7h24.8v-19.7C1254.3,579.9,1248.7,574.4,1241.9,574.4z"/>
			<g>
				<ellipse fill="#AE8F3A" cx="1172.3" cy="576.1" rx="5.4" ry="7.2"/>
			</g>
			<g>
				<ellipse fill="#AE8F3A" cx="1241.9" cy="576.1" rx="5.4" ry="7.2"/>
			</g>
			<path fill="#9DB9BF" d="M1241.9,627c-9.3,0-16.9,7.6-16.9,16.9v36.3h33.8V644C1258.8,634.6,1251.2,627,1241.9,627z"/>
			<path fill="#9DB9BF" d="M1172.3,627c-9.3,0-16.9,7.6-16.9,16.9v36.3h33.8V644C1189.2,634.6,1181.6,627,1172.3,627z"/>
			<path fill="#779499" d="M1172.3,630.5c-6.9,0-12.4,5.6-12.4,12.4v37.4h24.8v-37.4C1184.7,636.1,1179.2,630.5,1172.3,630.5z"/>
			<path fill="#779499" d="M1241.9,630.5c-6.9,0-12.4,5.6-12.4,12.4v37.4h24.8v-37.4C1254.3,636.1,1248.7,630.5,1241.9,630.5z"/>
			<g>
				<ellipse fill="#AE8F3A" cx="1172.3" cy="632.3" rx="5.4" ry="7.2"/>
			</g>
			<g>
				<ellipse fill="#AE8F3A" cx="1241.9" cy="632.3" rx="5.4" ry="7.2"/>
			</g>
		</g>
		<g>
			<rect x="1131.7" y="605.3" fill="#AE8F3A" width="152.3" height="8.7"/>
			<rect x="1131.7" y="545.4" fill="#AE8F3A" width="152.3" height="8.7"/>
		</g>
	</g>
	<polygon fill="#D8F0FB" points="723.2,66.8 723.2,2.8 718.4,2.8 718.4,66.8 712.5,66.8 712.5,71.6 718.4,71.6 718.4,99.5 
		723.2,99.5 723.2,71.6 729.1,71.6 729.1,66.8 	"/>
	<ellipse fill="#AE8F3A" cx="720.8" cy="102.7" rx="5.6" ry="3.2"/>
	<rect x="716.7" y="104.9" fill="#B3D4DD" width="8.2" height="31.9"/>
	<path fill="#D8F0FB" d="M720.8,134.1c-13.1,0-10.7,25.4-10.7,25.4h10.7h10.7C731.5,159.5,733.9,134.1,720.8,134.1z"/>
	<rect x="711.4" y="117.2" fill="#AE8F3A" width="18.8" height="3.6"/>
	<rect x="714.5" y="119.6" fill="#AE8F3A" width="12.6" height="3.6"/>
	<path fill="#D8F0FB" d="M720.8,181.7c-8.5,0-13.5,1.9-16.4,3.8v53.7h32.9v-53.7C734.3,183.5,729.3,181.7,720.8,181.7z"/>
	<g>
		<path fill="#B3D4DD" d="M720.8,180.5c8,0,13.1,1.6,16.4,3.5v-24c0-4.4-7.4-8-16.4-8c-9.1,0-16.4,3.6-16.4,8v24
			C707.7,182,712.8,180.5,720.8,180.5z"/>
		<path fill="#9EC3CC" d="M707.2,155.6v27.1c0.7-0.3,1.5-0.6,2.4-0.8v-27.6C708.7,154.6,707.9,155.1,707.2,155.6z"/>
		<path fill="#9EC3CC" d="M711.3,153.5v27.9c0.8-0.2,1.6-0.3,2.4-0.4v-28.1C712.9,153,712.1,153.2,711.3,153.5z"/>
		<path fill="#9EC3CC" d="M715.5,152.5v28.2c0.8-0.1,1.6-0.1,2.4-0.2v-28.4C717,152.2,716.2,152.3,715.5,152.5z"/>
		<path fill="#9EC3CC" d="M720.8,152c-0.4,0-0.8,0-1.2,0v28.4c0.4,0,0.8,0,1.2,0s0.8,0,1.2,0V152C721.6,152,721.2,152,720.8,152z"/>
		<path fill="#9EC3CC" d="M723.8,152.2v28.4c0.8,0,1.6,0.1,2.4,0.2v-28.2C725.4,152.3,724.6,152.2,723.8,152.2z"/>
		<path fill="#9EC3CC" d="M727.9,152.8V181c0.8,0.1,1.6,0.3,2.4,0.4v-27.9C729.6,153.2,728.7,153,727.9,152.8z"/>
		<path fill="#9EC3CC" d="M732.1,154.2v27.6c0.9,0.2,1.7,0.5,2.4,0.8v-27.1C733.8,155.1,733,154.6,732.1,154.2z"/>
	</g>
	<path id="band_2_" fill="#AE8F3A" d="M720.8,186.7c8.6,0,13.8,2.7,16.9,5.8c3-3.1,4.7-5.8,4.7-5.8s-1.5-14.9-21.7-14.9
		S699,186.7,699,186.7s1.8,2.7,4.7,5.8C707,189.4,712.2,186.7,720.8,186.7z"/>
	<g id="bars_4_">
		<rect x="718.9" y="191.3" fill="#9EC3CC" width="3.9" height="35"/>
		<rect x="709.5" y="194.5" fill="#9EC3CC" width="3.9" height="28.6"/>
		<rect x="728.2" y="194.5" fill="#9EC3CC" width="3.9" height="28.6"/>
	</g>
	<path fill="#D8F0FB" d="M720.4,347.8c33,0,56.5,13.8,68.5,22.8c-2.5-95.2-22.1-89.6-37.1-113.6c-10.9-17.4-14.8-23.2-14.8-23.2
		h-16.3h-16.3c0,0-3.8,5.8-14.8,23.2c-15,24-34.5,18.5-37.1,113.4C664.5,361.4,687.6,347.8,720.4,347.8z"/>
	<path fill="#C9E5EF" d="M788.9,370.7c-2.5-95.2-22.1-89.6-37.1-113.6c-10.9-17.4-14.8-23.2-14.8-23.2h-11.9c0,0,3,20.9,4.9,25.6
		c6.4,16.1,7.4,20.9,3.7,89.2C759.8,351.6,778.6,362.9,788.9,370.7z"/>
	<path fill="#C9E5EF" d="M689.8,257c-15,24-34.5,18.5-37.1,113.4c10.2-7.8,29-19,55.1-21.9c-3.7-68.2-2.7-72.9,3.7-89.1
		c1.9-4.8,4.9-25.6,4.9-25.6h-11.9C704.5,233.8,700.7,239.6,689.8,257z"/>
	<path fill="#B3D4DD" d="M652.7,370.4c6.5-5,16.5-11.4,29.7-16.1c-7.5-75.2,9.1-84.5,16-95.3c7.2-11.2,9.9-25.2,9.9-25.2h-3.7
		c0,0-3.8,5.8-14.8,23.2C674.8,281,655.3,275.5,652.7,370.4z"/>
	<path fill="#B3D4DD" d="M788.9,370.7c-2.5-95.2-22.1-89.6-37.1-113.6c-10.9-17.4-14.8-23.2-14.8-23.2h-3.7c0,0,2.7,14,9.9,25.2
		c6.9,10.8,23.5,20.1,15.9,95.5C772.3,359.3,782.4,365.7,788.9,370.7z"/>
	<path fill="#D8F0FB" d="M652.7,370.4c1.8-1.4,3.8-2.8,6.1-4.3c-2.9-56.1,7-77.4,8.7-80.6C660,298.8,654,320.9,652.7,370.4z"/>
	<path fill="#D8F0FB" d="M782.8,366.4c2.3,1.5,4.3,2.9,6.1,4.3c-1.3-49.7-7.3-71.9-14.8-85.3C775.8,288.6,785.8,309.8,782.8,366.4z"
		/>
	<path fill="#B3D4DD" d="M720.4,349c-33.2,0-56.3,14-67.7,22.9c-0.2,6.4-0.2,13.3-0.2,20.6h68.4h68.4c0-7.3-0.1-14-0.2-20.4
		C777.4,363.3,753.7,349,720.4,349z"/>
	<path id="band_1_" fill="#7F662D" d="M721,356.5L721,356.5c0.1,0,0.3,0,0.4,0c0.1,0,0.3,0,0.4,0l0,0c34.3,0.2,56.6,13.1,67.8,22
		c5.2-3.6,8.1-6.1,8.1-6.1s-24.4-29.7-76.5-30l0,0c-0.1,0-0.3,0-0.4,0c-0.1,0-0.3,0-0.4,0l0,0c-52.1,0.3-76.5,30-76.5,30
		s3.2,2.7,8.7,6.5C663.7,370.1,686.1,356.7,721,356.5z"/>
	<g id="oval_windows_1_">
		<g>
			<ellipse fill="#AE8F3A" cx="670.7" cy="312.5" rx="7.1" ry="13.2"/>
			<ellipse fill="#AED8E5" cx="670.7" cy="312.5" rx="2.9" ry="8"/>
		</g>
		<g>
			<ellipse fill="#AE8F3A" cx="693.9" cy="304.9" rx="7.1" ry="13.2"/>
			<ellipse fill="#AED8E5" cx="693.9" cy="304.9" rx="2.9" ry="8"/>
		</g>
		<g>
			<ellipse fill="#AE8F3A" cx="720.8" cy="300" rx="7.1" ry="13.2"/>
			<ellipse fill="#AED8E5" cx="720.8" cy="300" rx="2.9" ry="8"/>
		</g>
		<g>
			<ellipse fill="#AE8F3A" cx="748.2" cy="304.9" rx="7.1" ry="13.2"/>
			<ellipse fill="#AED8E5" cx="748.2" cy="304.9" rx="2.9" ry="8"/>
		</g>
		<g>
			<ellipse fill="#AE8F3A" cx="771.4" cy="312.5" rx="7.1" ry="13.2"/>
			<ellipse fill="#AED8E5" cx="771.4" cy="312.5" rx="2.9" ry="8"/>
		</g>
	</g>
	<path fill="#AE8F3A" d="M741.9,236.7c0,0-12.8-2.7-21.1-2.7s-21.1,2.7-21.1,2.7v-5.4c0,0,11-2.7,21.1-2.7s21.1,2.7,21.1,2.7V236.7z
		"/>
	<path id="base_2_" fill="#C9E5EF" d="M720.8,382.4c-50.2,0-90.9,19.4-90.9,43.2v50.2h181.8v-50.2
		C811.7,401.7,771,382.4,720.8,382.4z"/>
	<g id="bars_1_">
		<rect x="639.9" y="408.2" fill="#AE8F3A" width="8.4" height="33.2"/>
		<rect x="669.4" y="395.6" fill="#AE8F3A" width="8.4" height="43.2"/>
		<rect x="699.8" y="392.5" fill="#AE8F3A" width="8.4" height="34.4"/>
		<rect x="793.3" y="408.2" fill="#AE8F3A" width="8.4" height="33.2"/>
		<rect x="763.8" y="395.6" fill="#AE8F3A" width="8.4" height="43.2"/>
		<rect x="733.4" y="392.5" fill="#AE8F3A" width="8.4" height="34.4"/>
	</g>
	<g id="accents_2_">
		<rect x="627.3" y="387.2" fill="#D8F0FB" width="3.7" height="18"/>
		<rect x="810.6" y="387.2" fill="#D8F0FB" width="3.7" height="18"/>
	</g>
	<path fill="#D8F0FB" d="M628.8,431.4c9.5-20,47.1-35,92.1-35c44.8,0,82.2,14.8,92,34.7c0.2-0.4,0.4-0.8,0.6-1.2
		c2.9-3.6,9.6-13.5,9.6-29.2h-17.7C790.9,386.9,762,377.2,728,376c-0.2,0-0.5,0-0.7,0c-0.8,0-1.7,0-2.5-0.1c-1,0-2,0-3,0
		c-0.3,0-0.5,0-0.7,0c-0.1,0-0.1,0-0.2,0c-0.1,0-0.1,0-0.2,0c-0.3,0-0.5,0-0.7,0c-1,0-2,0-3,0c-0.8,0-1.7,0-2.5,0.1
		c-0.2,0-0.5,0-0.7,0c-34,1.2-63,10.9-77.5,24.7h-17.7c0,15.8,6.7,25.7,9.6,29.2C628.3,430.4,628.6,430.9,628.8,431.4z"/>
	<path fill="#AE8F3A" d="M636.2,409.2c14.5-13.8,43.5-23.5,77.5-24.7c0.2,0,0.5,0,0.7,0c0.8,0,1.7,0,2.5-0.1c1,0,2,0,3,0
		c0.3,0,0.5,0,0.7,0c0.1,0,0.1,0,0.2,0c0.1,0,0.1,0,0.2,0c0.3,0,0.5,0,0.7,0c1,0,2,0,3,0c0.8,0,1.7,0,2.5,0.1c0.2,0,0.5,0,0.7,0
		c34,1.2,63,10.9,77.5,24.7h17c0.4-2.6,0.7-5.4,0.7-8.5h-17.7C790.9,386.9,762,377.2,728,376c-0.2,0-0.5,0-0.7,0
		c-0.8,0-1.7,0-2.5-0.1c-1,0-2,0-3,0c-0.3,0-0.5,0-0.7,0c-0.1,0-0.1,0-0.2,0c-0.1,0-0.1,0-0.2,0c-0.3,0-0.5,0-0.7,0c-1,0-2,0-3,0
		c-0.8,0-1.7,0-2.5,0.1c-0.2,0-0.5,0-0.7,0c-34,1.2-63,10.9-77.5,24.7h-17.7c0,3,0.3,5.9,0.7,8.5H636.2z"/>
	<g>
		<rect x="699.1" y="387.2" fill="#9EC3CC" width="43.4" height="10.8"/>
		<rect x="691.7" y="367.2" fill="#D8F0FB" width="58.3" height="11.7"/>
		<rect x="695.5" y="378.9" fill="#B3D4DD" width="50.7" height="8.3"/>
	</g>
	<rect id="back_3_" x="516.8" y="449.9" fill="#AED8E5" width="408" height="241.2"/>
	<rect id="front_2_" x="618.3" y="441.4" fill="#D8F0FB" width="204.9" height="249.7"/>
	<g id="right_1_">
		<g>
			<path fill="#93BAC1" d="M889.2,479.6c-9.3,0-16.9,7.6-16.9,16.9v17.9h33.8v-17.9C906.2,487.1,898.6,479.6,889.2,479.6z"/>
			<path fill="#93BAC1" d="M843.7,479.6c-9.3,0-16.9,7.6-16.9,16.9v17.9h33.8v-17.9C860.6,487.1,853,479.6,843.7,479.6z"/>
			<path fill="#779499" d="M843.7,483.3c-6.9,0-12.4,5.6-12.4,12.4V513h24.8v-17.3C856.1,488.9,850.6,483.3,843.7,483.3z"/>
			<path fill="#779499" d="M889.2,483.3c-6.9,0-12.4,5.6-12.4,12.4V513h24.8v-17.3C901.7,488.9,896.1,483.3,889.2,483.3z"/>
			<g>
				<ellipse fill="#AE8F3A" cx="843.7" cy="485.1" rx="5.4" ry="7.2"/>
			</g>
			<g>
				<ellipse fill="#AE8F3A" cx="889.2" cy="485.1" rx="5.4" ry="7.2"/>
			</g>
		</g>
		<g>
			<path fill="#93BAC1" d="M889.2,536c-9.3,0-16.9,7.6-16.9,16.9v49.9h33.8v-49.9C906.2,543.6,898.6,536,889.2,536z"/>
			<path fill="#93BAC1" d="M843.7,536c-9.3,0-16.9,7.6-16.9,16.9v49.9h33.8v-49.9C860.6,543.6,853,536,843.7,536z"/>
			<path fill="#779499" d="M843.7,539.5c-6.9,0-12.4,5.6-12.4,12.4v48.2h24.8v-48.2C856.1,545,850.6,539.5,843.7,539.5z"/>
			<path fill="#779499" d="M889.2,539.5c-6.9,0-12.4,5.6-12.4,12.4v48.2h24.8v-48.2C901.7,545,896.1,539.5,889.2,539.5z"/>
			<g>
				<ellipse fill="#AE8F3A" cx="843.7" cy="541.3" rx="5.4" ry="7.2"/>
			</g>
			<g>
				<ellipse fill="#AE8F3A" cx="889.2" cy="541.3" rx="5.4" ry="7.2"/>
			</g>
		</g>
		<g>
			<path fill="#93BAC1" d="M889.2,627c-9.3,0-16.9,7.6-16.9,16.9v47.2h33.8v-47.2C906.2,634.6,898.6,627,889.2,627z"/>
			<path fill="#93BAC1" d="M843.7,627c-9.3,0-16.9,7.6-16.9,16.9v47.2h33.8v-47.2C860.6,634.6,853,627,843.7,627z"/>
			<path fill="#779499" d="M843.7,630.5c-6.9,0-12.4,5.6-12.4,12.4v48.2h24.8v-48.2C856.1,636.1,850.6,630.5,843.7,630.5z"/>
			<path fill="#779499" d="M889.2,630.5c-6.9,0-12.4,5.6-12.4,12.4v48.2h24.8v-48.2C901.7,636.1,896.1,630.5,889.2,630.5z"/>
			<g>
				<ellipse fill="#AE8F3A" cx="843.7" cy="632.3" rx="5.4" ry="7.2"/>
			</g>
			<g>
				<ellipse fill="#AE8F3A" cx="889.2" cy="632.3" rx="5.4" ry="7.2"/>
			</g>
		</g>
	</g>
	<g id="center_1_">
		<g>
			<path fill="#ACDAE5" d="M660.7,473.7c-9.3,0-16.9,7.6-16.9,16.9v17.9h33.8v-17.9C677.7,481.3,670.1,473.7,660.7,473.7z"/>
			<path fill="#ACDAE5" d="M720.8,473.7c-9.3,0-16.9,7.6-16.9,16.9v17.9h33.8v-17.9C737.7,481.3,730.1,473.7,720.8,473.7z"/>
			<path fill="#ACDAE5" d="M780.9,473.7c-9.3,0-16.9,7.6-16.9,16.9v17.9h33.8v-17.9C797.8,481.3,790.2,473.7,780.9,473.7z"/>
			<path fill="#779499" d="M660.7,477.9c-6.9,0-12.4,5.6-12.4,12.4v15.8h24.8v-15.8C673.2,483.5,667.6,477.9,660.7,477.9z"/>
			<path fill="#779499" d="M720.8,477.9c-6.9,0-12.4,5.6-12.4,12.4v15.8h24.8v-15.8C733.2,483.5,727.7,477.9,720.8,477.9z"/>
			<path fill="#779499" d="M780.9,477.9c-6.9,0-12.4,5.6-12.4,12.4v15.8h24.8v-15.8C793.3,483.5,787.7,477.9,780.9,477.9z"/>
			<g>
				<ellipse fill="#AE8F3A" cx="660.7" cy="479.7" rx="5.4" ry="7.2"/>
			</g>
			<g>
				<ellipse fill="#AE8F3A" cx="720.8" cy="479.7" rx="5.4" ry="7.2"/>
			</g>
			<g>
				<ellipse fill="#AE8F3A" cx="780.9" cy="479.7" rx="5.4" ry="7.2"/>
			</g>
		</g>
		<g>
			<path fill="#ACDAE5" d="M660.7,528.1c-9.3,0-16.9,7.6-16.9,16.9v51.8h33.8V545C677.7,535.6,670.1,528.1,660.7,528.1z"/>
			<path fill="#ACDAE5" d="M720.8,528.1c-9.3,0-16.9,7.6-16.9,16.9v51.8h33.8V545C737.7,535.6,730.1,528.1,720.8,528.1z"/>
			<path fill="#ACDAE5" d="M780.9,528.1c-9.3,0-16.9,7.6-16.9,16.9v51.8h33.8V545C797.8,535.6,790.2,528.1,780.9,528.1z"/>
			<path fill="#779499" d="M660.7,532.3c-6.9,0-12.4,5.6-12.4,12.4v48.5h24.8v-48.5C673.2,537.8,667.6,532.3,660.7,532.3z"/>
			<path fill="#779499" d="M720.8,532.3c-6.9,0-12.4,5.6-12.4,12.4v48.5h24.8v-48.5C733.2,537.8,727.7,532.3,720.8,532.3z"/>
			<path fill="#779499" d="M780.9,532.3c-6.9,0-12.4,5.6-12.4,12.4v48.5h24.8v-48.5C793.3,537.8,787.7,532.3,780.9,532.3z"/>
			<g>
				<ellipse fill="#AE8F3A" cx="660.7" cy="534" rx="5.4" ry="7.2"/>
			</g>
			<g>
				<ellipse fill="#AE8F3A" cx="720.8" cy="534" rx="5.4" ry="7.2"/>
			</g>
			<g>
				<ellipse fill="#AE8F3A" cx="780.9" cy="534" rx="5.4" ry="7.2"/>
			</g>
		</g>
		<g>
			<path fill="#ACDAE5" d="M660.7,626c-9.3,0-16.9,7.6-16.9,16.9v48.2h33.8v-48.2C677.7,633.6,670.1,626,660.7,626z"/>
			<path fill="#ACDAE5" d="M720.8,626c-9.3,0-16.9,7.6-16.9,16.9v48.2h33.8v-48.2C737.7,633.6,730.1,626,720.8,626z"/>
			<path fill="#ACDAE5" d="M780.9,626c-9.3,0-16.9,7.6-16.9,16.9v48.2h33.8v-48.2C797.8,633.6,790.2,626,780.9,626z"/>
			<path fill="#779499" d="M660.7,630.2c-6.9,0-12.4,5.6-12.4,12.4v48.5h24.8v-48.5C673.2,635.8,667.6,630.2,660.7,630.2z"/>
			<path fill="#779499" d="M720.8,630.2c-6.9,0-12.4,5.6-12.4,12.4v48.5h24.8v-48.5C733.2,635.8,727.7,630.2,720.8,630.2z"/>
			<path fill="#779499" d="M780.9,630.2c-6.9,0-12.4,5.6-12.4,12.4v48.5h24.8v-48.5C793.3,635.8,787.7,630.2,780.9,630.2z"/>
			<g>
				<ellipse fill="#AE8F3A" cx="660.7" cy="632" rx="5.4" ry="7.2"/>
			</g>
			<g>
				<ellipse fill="#AE8F3A" cx="720.8" cy="632" rx="5.4" ry="7.2"/>
			</g>
			<g>
				<ellipse fill="#AE8F3A" cx="780.9" cy="632" rx="5.4" ry="7.2"/>
			</g>
		</g>
	</g>
	<g id="left_2_">
		<g>
			<path fill="#93BAC1" d="M552.4,479.6c9.3,0,16.9,7.6,16.9,16.9v17.9h-33.8v-17.9C535.5,487.1,543,479.6,552.4,479.6z"/>
			<path fill="#93BAC1" d="M597.9,479.6c9.3,0,16.9,7.6,16.9,16.9v17.9H581v-17.9C581,487.1,588.6,479.6,597.9,479.6z"/>
			<path fill="#779499" d="M597.9,483.3c6.9,0,12.4,5.6,12.4,12.4V513h-24.8v-17.3C585.5,488.9,591.1,483.3,597.9,483.3z"/>
			<path fill="#779499" d="M552.4,483.3c6.9,0,12.4,5.6,12.4,12.4V513H540v-17.3C540,488.9,545.5,483.3,552.4,483.3z"/>
			<g>
				<ellipse fill="#AE8F3A" cx="597.9" cy="485.1" rx="5.4" ry="7.2"/>
			</g>
			<g>
				<ellipse fill="#AE8F3A" cx="552.4" cy="485.1" rx="5.4" ry="7.2"/>
			</g>
		</g>
		<g>
			<path fill="#93BAC1" d="M552.4,536c9.3,0,16.9,7.6,16.9,16.9v49.9h-33.8v-49.9C535.5,543.6,543,536,552.4,536z"/>
			<path fill="#93BAC1" d="M597.9,536c9.3,0,16.9,7.6,16.9,16.9v49.9H581v-49.9C581,543.6,588.6,536,597.9,536z"/>
			<path fill="#779499" d="M597.9,539.5c6.9,0,12.4,5.6,12.4,12.4v48.2h-24.8v-48.2C585.5,545,591.1,539.5,597.9,539.5z"/>
			<path fill="#779499" d="M552.4,539.5c6.9,0,12.4,5.6,12.4,12.4v48.2H540v-48.2C540,545,545.5,539.5,552.4,539.5z"/>
			<g>
				<ellipse fill="#AE8F3A" cx="597.9" cy="541.3" rx="5.4" ry="7.2"/>
			</g>
			<g>
				<ellipse fill="#AE8F3A" cx="552.4" cy="541.3" rx="5.4" ry="7.2"/>
			</g>
		</g>
		<g>
			<path fill="#93BAC1" d="M552.4,627c9.3,0,16.9,7.6,16.9,16.9v47.2h-33.8v-47.2C535.5,634.6,543,627,552.4,627z"/>
			<path fill="#93BAC1" d="M597.9,627c9.3,0,16.9,7.6,16.9,16.9v47.2H581v-47.2C581,634.6,588.6,627,597.9,627z"/>
			<path fill="#779499" d="M597.9,630.5c6.9,0,12.4,5.6,12.4,12.4v48.2h-24.8v-48.2C585.5,636.1,591.1,630.5,597.9,630.5z"/>
			<path fill="#779499" d="M552.4,630.5c6.9,0,12.4,5.6,12.4,12.4v48.2H540v-48.2C540,636.1,545.5,630.5,552.4,630.5z"/>
			<g>
				<ellipse fill="#AE8F3A" cx="597.9" cy="632.3" rx="5.4" ry="7.2"/>
			</g>
			<g>
				<ellipse fill="#AE8F3A" cx="552.4" cy="632.3" rx="5.4" ry="7.2"/>
			</g>
		</g>
	</g>
	<g id="back_accents_1_">
		<g>
			<polygon fill="#7F662D" points="823.3,471 823.3,471 924.9,471 924.9,477.9 939.9,464.1 823.3,464.1 			"/>
			<polygon fill="#7F662D" points="823.3,519.9 823.3,519.9 924.9,519.9 924.9,526.8 939.9,513 823.3,513 			"/>
			<polygon fill="#7F662D" points="823.3,607 823.3,607 924.9,607 924.9,614 939.9,600.1 823.3,600.1 			"/>
		</g>
		<g>
			<polygon fill="#7F662D" points="618.3,471 618.3,471 516.7,471 516.7,477.9 501.7,464.1 618.3,464.1 			"/>
			<polygon fill="#7F662D" points="618.3,519.9 618.3,519.9 516.7,519.9 516.7,526.8 501.7,513 618.3,513 			"/>
			<polygon fill="#7F662D" points="618.3,607 618.3,607 516.7,607 516.7,614 501.7,600.1 618.3,600.1 			"/>
		</g>
	</g>
	<g id="front_accents_1_">
		<polygon fill="#AE8F3A" points="837.4,506.1 720.8,506.1 720.8,506.1 604.2,506.1 618,519.9 618,513 720.8,513 720.8,513 
			823.6,513 823.6,519.9 		"/>
		<polygon fill="#AE8F3A" points="837.4,593.2 720.8,593.2 720.8,593.2 604.2,593.2 618,607 618,600.1 720.8,600.1 720.8,600.1 
			823.6,600.1 823.6,607 		"/>
		<g id="lines_4_">
			<line fill="none" x1="618.5" y1="467.7" x2="823.3" y2="467.7"/>
			<line fill="none" x1="619" y1="516.6" x2="823.8" y2="516.6"/>
			<line fill="none" x1="619" y1="603.7" x2="823.8" y2="603.7"/>
		</g>
	</g>
	<g id="roof_1_">
		<polygon fill="#9E7A2E" points="720.8,417.2 597.9,464.1 720.8,464.1 843.7,464.1 		"/>
		<polygon fill="#D8F0FB" points="720.4,425 618.3,465.8 720.4,465.8 822.4,465.8 		"/>
	</g>
	<g id="seashell_3_">
		<path fill="#8A6726" d="M721.4,455.1c0,0,9.8-12.3,12.6-4.6C736.8,458.1,721.4,455.1,721.4,455.1z"/>
		<path fill="#9E7A2E" d="M720.8,456.6c0,0,0.8-20,9.4-14.3C738.8,447.9,720.8,456.6,720.8,456.6z"/>
		<path fill="#8A6726" d="M720.2,455.1c0,0-9.8-12.3-12.6-4.6C704.8,458.1,720.2,455.1,720.2,455.1z"/>
		<path fill="#9E7A2E" d="M720.8,456.6c0,0-0.8-20-9.4-14.3C702.8,447.9,720.8,456.6,720.8,456.6z"/>
		<path fill="#AE8F3A" d="M720.9,456.4c0,0-12.5-20.7,0-20.7C733.4,435.7,720.9,456.4,720.9,456.4z"/>
		<path fill="#8A6726" d="M721.4,455L721.4,455c0,0-0.2,0-0.5,0s-0.5,0-0.5,0l0,0c-1.7,0.1-5.2,0.7-5.2,3.8c2.8,0,4.3,0,5.2,0
			c1,0,1,0,1,0c0.8,0,2.4,0,5.2,0C726.6,455.7,723.1,455.1,721.4,455z"/>
	</g>
	<g id="accents_1_">
		<g>
			<polygon fill="#AE8F3A" points="524.1,431.5 521.7,431.5 521.7,435.7 515.6,435.7 515.6,442.6 521.7,442.6 521.7,449.6 
				524.1,449.6 524.1,442.6 530.3,442.6 530.3,435.7 524.1,435.7 			"/>
			<polygon fill="#AE8F3A" points="926,435.7 919.9,435.7 919.9,431.5 917.5,431.5 917.5,435.7 911.4,435.7 911.4,442.6 
				917.5,442.6 917.5,449.6 919.9,449.6 919.9,442.6 926,442.6 			"/>
		</g>
		<polygon fill="#AE8F3A" points="721.1,412.1 720.5,412.1 711.5,412.1 715.8,430.6 720.4,430.6 721.3,430.6 725.8,430.6 
			730.1,412.1 		"/>
	</g>
	<g id="lines_1_">
		<g>
			<line fill="none" x1="823.3" y1="474.6" x2="926.1" y2="474.6"/>
			<line fill="none" x1="823.3" y1="523.5" x2="926.1" y2="523.5"/>
			<line fill="none" x1="823.3" y1="610.6" x2="926.1" y2="610.6"/>
		</g>
		<g>
			<line fill="none" x1="618.3" y1="474.6" x2="515.6" y2="474.6"/>
			<line fill="none" x1="618.3" y1="523.5" x2="515.6" y2="523.5"/>
			<line fill="none" x1="618.3" y1="610.6" x2="515.6" y2="610.6"/>
		</g>
	</g>
</g>
</svg>
