<?xml version="1.0" encoding="utf-8"?>
<!-- Generator: Adobe Illustrator 18.0.0, SVG Export Plug-In . SVG Version: 6.00 Build 0)  -->
<!DOCTYPE svg PUBLIC "-//W3C//DTD SVG 1.1//EN" "http://www.w3.org/Graphics/SVG/1.1/DTD/svg11.dtd">
<svg version="1.1" xmlns="http://www.w3.org/2000/svg" xmlns:xlink="http://www.w3.org/1999/xlink" x="0px" y="0px"
	 viewBox="0 0 1440 413.6" enable-background="new 0 0 1440 413.6" xml:space="preserve">
<g id="Layer_2">
	<rect x="0" y="365" fill="#0E6683" width="1440" height="48.6"/>
</g>
<g id="Layer_1">
	<path fill="#106986" d="M1440,374c-4.7,0-9.3,0-14,0c-9.4-0.9-18.6-3.1-27.9-4.8c-3.8-1.6-7.9-2.2-11.9-3.2
		c-10.8-3.5-21.9-5.8-32.8-8.9c-4.8-1.3-9.6-0.1-14.4-0.1c-12.5-0.1-24.9-0.1-37.4-0.1c-21-0.1-41.7,2.2-62.5,5
		c-8.9,1.2-18.1,2.8-27.3,0.6c-1.8-0.4-3.8-0.5-5.2-1.7c-4.6-4-10.2-3.8-15.6-3.9c-17.6-0.2-35.3,0.4-52.9,0.2
		c-17.3-0.2-34.6,0.3-51.9-0.3c-6.7,0.7-13.5-0.5-20.3,0.3c-5.3,0.6-10.6-0.3-15.9-0.4c-9.6-0.3-19.2-0.1-28.8,0.8
		c-5.3,0.5-10.6-0.3-15.9-0.6c-8.8-0.5-17.5,0.7-26.3,0.2c-5.2-0.3-10.6,0-15.8,0c-10.6,0-21.2,0.7-31.7-0.5
		c-3.5-0.4-6.9,0.7-10.4,0.7c-13.3,0.1-26.5-0.6-39.8-0.5c-12.2,0.1-24.4,1-36.7,0c-8.8-0.7-17.8-0.7-26.7,0.5
		c-2.8,0.4-5.7,0-8.5-0.2c-8.2-0.6-16.5,0.1-24.7,0.1c-0.6,0-1.1-0.2-1.6-0.3c-7-1.5-13.9,0.4-20.8,0.3c-10.6-0.1-21.2-1.3-31.8-0.8
		c-2,0.1-4-0.2-5.9,0.4c-0.5,0.2-1.1,0.3-1.6,0.4c-10.8,0.6-21.5-1-32.4-0.7c-6.1,0.2-12.3,0.9-18.3,0.6c-9.1-0.5-18.3-0.9-27.4-0.6
		c-11.1,0.3-22.2,1.1-33.3,0.6c-16.4-0.8-32.9-1-49.3-0.4c-16.6,0.6-33.2-1.3-49.7,0.1c-8.4,0.7-16.8,0.3-25.2-0.3
		c-2.9-0.2-5.6,0.8-8.4,0.7c-12.1-0.2-24.3-1.7-36.4-0.7c-19.6,1.6-39.1-0.7-58.7,0.4c-9.6,0.6-19.5-0.3-29.1-0.1
		c-8.4,0.2-16.8-0.5-25.3,0c-6.9,0.4-13.9-0.2-20.8-0.3c-12.6-0.2-25.2,0.3-37.7,0.3c-9.1,0-18.2,0.8-27.2,0
		c-0.6,0.2-1.1,0.3-1.7,0.3c-8.3-0.9-16.6-0.3-24.8-0.3c-6.9,0-13.9,0.4-20.8,0c-12.4-0.6-24.9-0.2-37.3-0.2
		c-9.7-0.1-19.5,0.7-29.3,0.1c-12.2-0.8-24.6-0.4-36.9,0.2c-8.9,0.4-17.9,0.5-26.8,0c-6-0.4-11.9-0.5-17.9-0.2
		c-0.5,0.2-1,0.3-1.6,0.4c-9.5-0.5-19.1-1-28.6-0.1c-0.5,0-1-0.1-1.5-0.2c-3-0.9-5.9,0.4-8.8,0.4c-2.8,0-5.6,0-7.8-2.1
		c0-1.7,0-3.3,0-5c7.2-1.4,14.5-0.6,21.8-0.8c21.6-0.6,43.3,0.1,64.9-0.1c24.6-0.2,49.3,0.2,73.9,0c20.1-0.2,40.3,0.1,60.4,0
		c15-0.1,29.9,0.3,44.9,0.1c13.5-0.2,26.9,0,40.4-0.1c14.1-0.1,28.2-0.3,42.4,0c19.1,0.4,38.3,0.2,57.4-0.1
		c11.3-0.2,22.5,0.7,33.8,0.3c9.2-0.3,18.3,0,27.4,0c17.1,0,34.2-0.4,51.3-0.1c7.1,0.2,14.6,1.8,21.7-1.3c5.2-0.4,10.3-0.4,15.5,0
		c3.4,1.9,7.1,1.4,10.7,1.4c22.3-0.2,44.5,0.2,66.8-0.1c18.6-0.2,37.2,0.3,55.8-0.2c14.8-0.4,29.6,0.4,44.4,0.2
		c19.3-0.4,38.6,0.6,57.8-0.1c7.1-0.2,14.4-0.7,21.2-0.3c18.5,1,36.9-0.2,55.4,0.2c28.9,0.5,57.9,0,86.8,0.1
		c19.8,0,39.6-0.2,59.3,0.2c14.1,0.3,28.3-0.4,42.4-0.2c15.1,0.3,30.2-0.2,45.3,0.2c10.3,0.3,20.6,0.3,30.9-0.4
		c5-0.3,9.9,0.7,15.7,0.5c-3.4-2.8-6.5-4-10.2-3.9c-9.1,0.4-18.2,0.3-27.3,0.6c-5.7,0.2-8-2-9.5-7.5c1-6.8,0.9-6.4-6.1-7.2
		c-8.8-1-17.6-0.7-26.4-0.9c-3.2-0.1-6.4-0.4-9.2-2.1c-2.1-1.2-3.8-3-3.2-5.7c0.6-2.8,2.7-4.1,5.5-4.2c3-0.1,6,0,9,0
		c28.6-0.8,57.1-2.9,85.7-2c0.5,0,1-0.2,1.4-0.5c9.6-3.3,19-7.2,28.9-9.5c11-2.6,15.1-0.7,20.2,9.3c0.2,0.4,0.4,0.9,0.7,1.3
		c2,3.5,3.2,7.8,6.1,10.2c3,2.4,7-1.2,10.8-1.2c10,0,20-0.2,30-0.1c5.3,0.1,9.9-1.2,14.3-4.6c5.7-4.4,12.3-7.2,19.6-8.1
		c6.7-0.9,12.6,0.4,16.6,6.5c5.7,9.6,15.9,9.8,25,10.5c12.6,0.9,25.3,1,37.9-1.1c7.2-1.2,13.9-0.1,19.5,5.2c1.3,1.3,2.9,2.5,4.8,2.6
		c9.3,0.7,17.6,6.1,27.2,5.6c5.3-0.2,10.6-0.1,15.9-0.5c1.7-0.1,3.3-0.5,4.7,0.8C1440,353.3,1440,363.7,1440,374z"/>
	<path fill="#12708F" d="M0,279c0-5.7,0-11.3,0-17c5.4-2.6,11.4-1.9,17.1-2.3c11.1-0.9,22.3,0.7,33.4-1.1c2.5-0.4,5-0.1,7.1,1.6
		c0.9,0.8,2.1,1.1,3.3,1.1c10.1-0.4,19.7,2.7,29.4,4.8c15.9,3.4,32,4.3,48.1,3.3c10.4-0.6,20.6-3.5,30.9-5.3
		c20.3-3.5,40.7-5.9,61.4-5.9c20.7,0,41.6-0.3,62.2-3.5c2.5-0.4,5-0.3,7.5-0.3c40,0,80-0.1,119.9,0c6.5,0,13-0.5,19.4-1.5
		c2.7-0.4,5.5-0.6,7.7,1.2c3.5,3.1,7.8,3.6,12.1,4c12.2,1,24,3.6,35.7,6.8c18.6,5.2,37.5,5.1,56.5,3.8c7.2-0.5,14.3-0.4,21.5-0.4
		c13.8-0.1,27.7,0.1,41.5-0.1c11-0.2,20.2,3.4,27.7,11.4c0.6,0.6,1.2,1.1,1.7,1.8c0.9,1.3,2.7,2.7,1.4,4.3c-1,1.3-2.8,0.4-4.2-0.1
		c-7-2.9-14.4-3.9-21.8-5.4c-13.4-2.6-27-4.1-40.6-4.7c-4.8-0.2-9.6,0.8-14.4,0.8c-26.6-0.1-53.2-2.7-79.9-2.1
		c-9.9,0.2-19.5,2-29.1,3.4c-11.7,1.8-23.4,3.2-35.2,3.6c-66.3,2.2-132.6,0.6-198.8,0.9c-10.1,0.1-20.2-1-30.4-1
		c-19.3,0.1-38.5,1.1-57.6,3.8c-1.2,0.2-2.3,0.2-3.5,0.2c-3.1,0.1-6.3-0.4-9.3,0.4c-0.5,0.2-1.1,0.3-1.7,0.4
		c-6.7,0.1-13.5,0.8-20.3,0.2c-2-0.2-4-0.1-5.9,0.7c-5.4,1.6-10.8,1.4-16.3,1.3c-4.2-0.1-7.8-1.8-10.9-4.4
		c-6.9-5.6-14.8-7.6-23.7-7.7c-12.3,0-24.6,0.3-36.7,2.9C3.5,279.7,1.7,280.3,0,279z"/>
	<path fill="#0D6885" d="M1398,368c7.5,1.3,15.1,2.7,22.6,4c1.9,0.3,3.9,0.6,5.4,2c-5.3,2.1-10.7-0.2-16,0.3
		c-8.4,0.8-16.8,0-25.2,0.5c-8.8,0.5-17.7-0.9-26.5-0.5c-9.7,0.4-19.4,0.4-29,0.2c-9.9-0.2-19.8,0.6-29.6-0.3
		c-5-0.5-10.2,0.5-15.2,0.7c-9.8,0.3-19.7-0.8-29.5-0.5c-4.1,0.1-8.1-0.3-12.2,0.1c-11.3,1-22.5-0.8-33.7,0
		c-7.4,0.6-14.9,0.7-22.1,0.1c-8.5-0.7-16.9,0.8-25.5,0c-4.5-0.4-9.3-0.5-14,0.1c-5.9,0.8-12.1-0.4-18.1-0.3
		c-9.8,0.2-19.6,0.1-29.4,0.3c-11.2,0.3-22.5-0.3-33.8-0.3c-12.1,0-24.2,0-36.3-0.1c-13.5-0.1-27.1-0.9-40.5,0
		c-7.3,0.5-14.6-0.3-22,0.3c-7.8,0.6-15.9-0.1-23.9-0.3c-8.4-0.2-16.9-0.5-25.4,0.2c-6.5,0.5-13.1-0.2-19.6-0.2
		c-13.8,0-27.6-0.1-41.4,0.2c-8.7,0.2-17.5-0.4-26.2,0c-7.1,0.3-14.4,0.7-21.4,0.2c-9.5-0.7-19,0.4-28.5,0
		c-9.6-0.4-19.4-0.6-29.2-0.3c-9.2,0.2-18.5,0-27.6,0.2c-5.2,0.1-10.4-0.1-15.6,0.1c-12.4,0.5-24.8-0.7-37.2-0.1
		c-10.4,0.5-20.8-0.3-31.2,0.2c-9.6,0.4-19.4,0.2-29.1-0.3c-6.6-0.3-13.3,0.3-19.9,0.2c-10-0.1-20,0.9-30,0.3
		c-6.4-0.3-12.9-0.8-19.3-0.1c-5.2,0.5-10.5,0.3-15.7,0.2c-7.3-0.2-14.6-1.2-22-0.2c-6.3,0.9-12.9-0.4-19.4,0
		c-8.1,0.5-16.3,0.3-24.4-0.1c-8.8-0.5-17.7,0-26.4,0.1c-10.4,0.1-20.8-1.2-31.3-0.1c-6.4,0.7-13.3,0.1-20-0.3
		c-5.2-0.3-10.5,0.8-15.6,0.4c-7.6-0.6-15.1,1.4-22.7-0.3c-4.3-1-8.7,0.3-13.1,0.2c-13.5-0.3-27,0.1-40.6,0
		c-10.7-0.1-21.5,0.4-32.1,0.1c-10.8-0.3-21.6,0.6-32.5-0.2c-10.5-0.8-21.2-0.7-31.8,0.5c-6,0.7-12-1.2-18.1-0.3
		c-7.2,1.1-14.4-0.3-21.6,0.2c-5.2,0.4-10.4-0.4-15.6-0.3c-10.6,0.1-21.1-0.2-31.7,0.3c-9.5,0.5-19.1-0.5-28.7-0.5
		c-7.6,0-15.1,0.6-22.7,0.6c-12,0-23.9-0.5-35.9-0.5c-6.7,0-13.3,0.4-20,0.6c0-2.3,0-4.7,0-7c2.7-2.2,6-1.6,9.1-1.6
		c53,0,106,0,159,0c50.3,0,100.7,0,151,0c75.3,0,150.6,0,225.9,0c69.3,0,138.6,0,207.9,0c67.1,0,134.3-0.2,201.4,0.1
		c19.8,0.1,39.6,0.3,59.4,0.2c45-0.2,89.9-0.2,134.9-0.3c75.8-0.1,151.6,0,227.4,0C1383.5,366.4,1390.8,366.3,1398,368z"/>
	<path fill="#0F6886" d="M1087,356c8.6-1,17.2-0.1,25.7-0.3c6.1-0.2,12.4-0.5,18.4-0.3c7.5,0.2,15,0.2,22.5,0.2
		c8.4,0,16.9-0.4,25.3-0.3c7.5,0.1,15,0.5,22.5,0.9c0.8,0,1.7,0.3,2.2,0.8c6.3,5.7,13.8,5.3,21.5,4.6c7.7-0.7,15.5-0.8,23.2-2.5
		c11.5-2.6,23.4-1.1,35-3.5c7.3-1.5,14.7,0.9,22,0.2c10.4-0.9,20.9,0.7,31.2-0.2c15.1-1.4,28.9,3.2,43,7.2c2.2,0.6,4.6,0.7,6.5,2.2
		c-2.1,1.9-4.4,1-6.6,0.6c-5.6-1-11.2-1.5-16.9-1.5c-18.8,0.2-37.6,0.6-56.4,0c-10.5-0.4-20.9,0.6-31.4,0.3
		c-17.8-0.4-35.6-0.2-53.4,0.6c-7,0.3-14.2,0-21.3-1c-6.2-0.8-12.6-0.9-18.9-0.5c-18.8,1.3-37.6,0.2-56.4,0.5
		c-14,0.2-27.9,0.1-41.9,0.2c-16.6,0.1-33.2,0-49.9,0c-24.6,0-49.3,0.2-73.9,0.1c-24.9-0.1-49.9-0.4-74.8-0.1
		c-15.5,0.2-30.9,0.5-46.4,0.5c-10.3,0-20.7-0.7-30.9-0.6c-11.1,0.1-22.3-0.5-33.4-0.1c-15.8,0.7-31.6-0.4-47.4-0.2
		c-19.1,0.3-38.2-0.2-57.3,0.1c-12.3,0.2-24.6-0.2-36.9,0.1c-13.1,0.3-26.3,0.8-39.4,0c-6.6-0.4-13.3,0.2-20,0.2
		c-13.8,0-27.6,0.3-41.4-0.4c-5.9-0.3-11.9,0.7-17.9,0.6c-14.5-0.3-29,0.2-43.4-0.1c-16.8-0.4-33.5,0.5-50.3,0
		c-16.6-0.5-33.3,0.3-49.9,0.1c-8.2-0.1-16.3-0.8-24.4-1c-10-0.2-19.9,0.8-29.9,0.6c-15-0.2-29.9,0.2-44.9,0.1
		c-16.1,0-32.2-0.3-48.4,0.1c-22.1,0.6-44.3,0.2-66.4,0c-19.1-0.2-38.2,0.5-57.3-0.5c-7.3-0.4-14.6,0.5-22,0.3
		c-16.5-0.4-32.9,0.7-49.4-0.3c-6.1-0.3-12.3,0.6-18.4,0.3C5.4,364.1,2.1,365,0,362c0-1.7,0-3.3,0-5c5.6-0.8,11.3-0.8,17-1h0
		c0.4,0.3,0.8,0.6,1.3,0.5c8.8-1.2,17.5-0.3,26.3,0c0.8,0,1.6,0.1,2.3-0.5c5.3-0.4,10.6-0.5,15.8-0.2c11.4,0.6,22.7,0.7,34.1,0.1
		c11.4-0.6,22.9,0.1,34.3,0.3c10.1,0.1,20.2-0.4,30.2-0.1c8.1,0.3,16.1-0.2,24.2,0c7.7,0.2,15.6,0.2,23.3,0.2
		c10.5,0,21.1-2.2,31.7,0.2c0.8,0.2,1.7,0.1,2.4-0.5c3.5-1.5,6.8,0.7,10.3,0.6c19.9-0.7,39.7-0.6,59.6-0.4
		c15.4,0.1,30.8,0.4,46.1,0.2c14.3-0.2,28.6,0.5,42.9-0.5c7.3-0.5,14.8-0.3,22.2,0.6c4.6,0.5,9.3-0.2,13.9-0.5
		c13.4-0.7,26.9,0.3,40.3,0.2c13-0.1,26,0.6,39-0.4c12.1-0.9,24.4,1.1,36.6,0.4c13.7-0.9,27.4,0.7,41.2-0.5
		c7.6-0.7,15.2,0.9,22.9,0.9c14.2,0,28.4-0.6,42.6-0.4c20.2,0.3,40.3-0.1,60.5,0.3c1,0,2,0.2,2.9-0.5c8.4-0.2,16.9-0.3,25.3,0.1
		c10.6,0.5,21.2,0.3,31.8-0.6c1-0.1,2-0.2,2.9,0.4c4.4,1.1,8.9,0.4,13.3,0.4c12.2,0,24.4,0.7,36.5,0c13.2-0.9,26.4,0.5,39.6-0.1
		c16.2-0.8,32.4,0.4,48.6,0.1c9.1-0.2,18.2,0.3,27.3,0.1c9.7-0.3,19.5-0.4,29.3-0.1c9.9,0.3,19.9-0.5,29.8,0
		c6.8,0.4,13.6,0.3,20.4,0c5.6-0.2,11.2-0.4,16.8-0.2c10.1,0.3,20.1-0.2,30.2,0.5C1079.5,356.8,1083.2,354.6,1087,356z"/>
	<path fill="#0A6582" d="M129,284c14.3-1.3,28.6-3,43-3.7c13.4-0.6,26.9-1,40.4,0.3c1.8,0.2,3.6,0.4,5.5,0.4
		c62.6,0,125.3,0.3,187.9-0.2c20.6-0.2,41.3-2.3,61.6-6.4c4.2-0.8,8.5-1.2,12.8-1.4c20.5-0.7,40.9,0.2,61.3,1.2
		c9.1,0.5,18.3,1.3,27.4,0.6c22.4-1.7,44.1,2.7,65.8,7.1c3.6,0.7,6.8,2.5,10.3,3.9c-4.3-8.2-16.8-15.8-26.2-15.8
		c-21-0.1-42-0.5-63,0.2c-8.4,0.3-16.9,0.6-25.4,0.8c-14.4,0.4-28.4-2.1-42.1-6.3c-11.3-3.5-23.1-4.1-34.7-5.7
		c-1.3-0.2-3,0.4-3.8-0.8c-4.3-6.6-10.4-3.5-15.8-2.9c-2.8,0.3-5.6,0.7-8.4,0.7c-42.3,0-84.7-0.7-126.9,0.3
		c-19.5,0.5-39,2.5-58.5,3.5c-7.1,0.4-14.3,0.3-21.5,0.1c-14.2-0.5-28,2.3-41.9,4.5c-20.9,3.4-41.7,8.5-63.1,6.5
		c-11.2-1.1-22.3-2.8-33.2-5.7c-5.2-1.4-10.3-2.1-15.7-2.4c-3.2-0.1-7,2-9.4-2.6c-0.5-0.9-4.2-0.7-6.2-0.2c-5.9,1.4-11.9,1-17.9,0.8
		c-10.5-0.4-20.9,1.2-31.4,1.1c0-1,0-2,0-3c5.4-2.6,11.4-2.4,17.1-2.4c15,0.1,30-0.6,44.9-1.4c13.2-0.7,26.2-0.6,39.4,0
		c10.9,0.5,21.9-0.9,32.8-2.3c11.6-1.5,23.1-2.4,34.8-2.5c10.3-0.1,20.5-1.9,30.8-3c17.4-1.9,34.9-1.7,52.4-2
		c33.3-0.7,66.6-1.1,99.9-0.9c8.7,0,17.3,1.2,25.9,1.4c2.5,0.8,5.2,1,7.8,0.9c0.9,0,1.7,0.2,2.6,0.4c7.8,0.1,15.2,3.3,22.4,2.4
		c-2.1,0-5.1,0.2-7.9-0.2c-1.4-0.2-3.8-0.3-2.4-3c1.9-1.7,4.2-1.9,6.6-1.8c8,0.4,15.9-1.1,23.8-1.4c-25.2,1.8-50.4,2.2-75.7,0.6
		c-6.7-0.4-13.3-0.3-20-0.1c-22,0.4-44,0.6-65.9,0.5c-25.1-0.1-50.2,0.5-75.3-2.1c-12.4-1.3-24.9-0.8-37.4,0.1
		c-10.6,0.7-21.3,1.2-31.9,1.4c-23.3,0.3-46.6,0.2-69.9,0c-9.2-0.1-18.2,1.6-27.4,1.1c-1.7-0.1-3.3,0-5-0.2
		c-1.9-0.2-3.8-0.6-4.4-2.7c-0.7-2.5,1.6-2.9,3.2-3.7c4.5-1.1,8.9,0.5,13.4,0.4c27.6-0.1,55.3,0.4,82.9-0.2
		c17.1-0.4,34.2-1.1,51.3-2.5c9-0.7,18-0.8,26.9,0.2c7.6,0.9,15.2,1.5,22.9,1.5c12.8,0,25.6-0.7,38.4,0.8c7,0.8,13.9-0.9,20.9-0.9
		c27.5,0,55-0.7,82.4,0.2c21.8,0.7,43.6,0.5,65.4,0.8c2,0,4,0,6-0.1c4-0.2,6.8-1.3,6.1-6.3c-0.3-2,0.3-4,2.3-5.1
		c0.8-0.4,1.4-1.1,2.1-1.6c0.3-0.1,0.5-0.2,0.8-0.4c1.9,1.1,1.5,3.2,1.9,4.9c0.5,2.3,0.7,4.6,1.2,6.9c3.2,15,6,16.7,20.7,20.5
		c24.3,6.4,48.9,6.7,73.8,7c28.6,0.4,57.2,1.4,85.8,2.3c12.1,0.4,20.2,9.8,25.8,20.4c1.7,3.3,3.2,6.6,6.9,8.1
		c0.7,0.5,1.6,0.4,2.4,0.4c1.5,0,3.3-0.2,3.1,2.1c-0.2,2.3-2.4,3-3.6,2c-3.6-2.7-7.1-0.4-10.7-0.5c-5.3-0.1-10.5-1.5-15.7-2.2
		c-2.3-0.3-4.6-0.6-6.9-0.7c-0.8,0-1.6-0.2-2.4-0.4c-2-0.8-4.1-0.6-6.1-0.8c-0.5-0.1-1-0.2-1.5-0.3c-2.6-0.8-5.2-0.4-7.8-0.4
		c-1.7,0-3.3-0.1-4.9-0.4c-4.2-1.1-8.4-0.4-12.6-0.6c-2.4,0-4.6-0.6-6.8-1.3c-8.6-1.2-17.2-0.8-25.8-0.2c-0.5,0.2-1.1,0.3-1.7,0.3
		c-3.3,0.4-6.7-0.3-10,0.8c-1.4,0.3-2.9,0.4-4.3,0.4c-4.7,0.2-9.4-0.6-14,0.7c-4.9,0.7-9.9,0.4-14.8,0.4c-14.2-0.2-28.4,0-42.7-0.1
		c-1.7,0-3.3,0.2-4.9,0.7c-3.5,0.6-6.9,0.3-10.4,0.4c-12.6-0.1-25.2,0-37.8-0.1c-0.9,0-1.8-0.1-2.7-0.3c-2.5-0.9-5-0.7-7.6-0.7
		c-1.2,0-2.4-0.2-3.6-0.5c-5.8-1-11.6-0.4-17.4-0.5c-11.5-0.1-22.9-0.1-34.4,0c-1.6,0.1-3.2-0.1-4.8-0.4c-1.6-0.5-3.3-0.6-4.9-0.6
		c-21.5,0-43-0.1-64.5,0.1c-22.4-1.5-44.7,1.8-67.1,1c-10.2,0-20.4-0.7-30.5,0.4c-1.2,0.3-2.4,0.4-3.6,0.5c-2.7-0.2-5.5,0.4-8.2-0.7
		c-1.3-0.8-1.6-1.9-0.8-3.2c2.3-2.4,5.4-2.7,8.3-2.8c8-0.2,15.9-1.7,23.9-1.3c1.3,0.1,2.7,0,4,0c56.1-0.5,112.3,1,168.4,1.3
		c31.9,0.2,63.9,2.3,95.9,1.6c26.8-0.6,53.6-1,80.4-2.2c30.9-1.3,61.5,0.4,92.6,4.3c-5.3-2.9-10.6-4.5-16-5.7c-19.4-4-39-7.1-59-6.2
		c-26.7,1.1-53.2-2.5-79.9-2.1c-9.7,0.2-19.3,1-28.8,2.8c-13.5,2.5-27.1,3.8-40.7,4.1c-65.8,1.5-131.6,1.7-197.4,0.9
		c-19.3-0.2-38.6-0.4-57.9-0.7c-5.8-0.1-11.6,0.6-17.3,1.6c-9.8,0.1-19.5,1.7-29.2,2.1c-2.3,0.1-4.6,0.2-6.6-2
		c3.6-1.8,7.3,0.1,10.4-1.4h0C122.9,283.7,126.1,285.4,129,284z"/>
	<path fill="#0A6582" d="M0,279c17.4-4.1,34.9-5.4,52.7-3c4.6,0.6,8.8,2.5,12,5.6c7,6.9,15.5,5.6,23.9,5c1.5-0.1,2.9-0.4,4.4-0.6
		c2.6-1,5.2-0.3,7.9-0.5c0.9-0.1,2.1-0.2,2.4,1.1c0.3,1.5-0.9,2.1-2,2.3c-3.1,0.6-6.1,1.2-9.3,1.3c-0.1,0-0.3-0.2-0.4-0.3
		c0,0.1,0,0.2,0,0.5c20.3-2.2,40.6-3.6,60.9-5.2c0.9-0.2,1.8-0.1,2.5,0.4c0.6,0.8,0.6,1.6,0.2,2.4c-2.1,1.7-4.9,1.1-7.2,2
		c-11.2,1.4-22.4,2.7-31.2,2.8c4.2,0.1,10.7,1.3,17,4c8,5.4,16.8,9,25.6,12.7c13.3,6.5,27.7,7.9,42.2,8.9c1.2,0.1,2.3,0.1,3.5,0.3
		c4.6,1,8.9,1.9,13.3-1.1c2.1-1.4,5.1-1.3,7.8-1.2c11.3,0.2,22.6-0.7,33.9-1.8c3.7-0.4,7.3,0.9,10.9,0.8c21.5-1,42.9-1.1,64.4-0.9
		c0.3,0,0.5-0.3,0.3,0.2c-15.6-1.5-31.4-5.3-47.5-4.3c-16,1-31.9-0.9-47.8-2.1c-1.2,0-2.4-0.1-3.6-0.4c-6.8-1.3-13.7-0.4-20.6-0.6
		c-2.6,0.1-5.2,0.2-7.8-0.3c-1.8-0.4-4.2-0.6-2.9-3.6c1.8-1.2,4.1-0.9,6-1.7c6-0.6,11.9-0.6,17.9,0c3,1,6.2,0.7,9.3,0.7
		c1.7,0,3.4,0.1,5,0.4c2.6,0.9,5.4,0.6,8.1,0.6c1.4,0,2.8,0.1,4.2,0.4c2.5,0.8,5.1,0.6,7.7,0.4c28.5-0.9,56.8,1.6,84.9,6.4
		c3.3,0.6,6.6,0.6,10,0.6c23.8,0,47.6-0.5,71.3,1.1c14.5,0.9,28.6,4.3,42.9,6.3c12.5,1.9,25.1,3.1,37.7,3.5c13.5,0.4,27,0.5,40.4,0
		c14.3-0.5,28.5-1.6,42.7-3.3c18.9-2.7,37.9-5.4,56.7-8.9c1.9-0.3,4.7-1.1,5.2,1.2c0.6,2.3-2.3,2.8-4.1,3.4
		c-6.9,2.3-14,3.1-21.3,3.4c34.9-0.4,69.7-2,104-9.3c30.2-4.2,60.4-3.1,90.6,0.9c11.5,1.5,23.2,2.3,34.8,2.7
		c17.6,0.6,35.3,1.5,52.1,7.9c7.9,3,16.6,3.4,24.6,6.4c1.7,0.3,3.3,1.1,4.7,2.2c0.6,0.8,0.5,1.6-0.2,2.4c-3.3,1.7-6.9,0.8-10.4,1
		c-4,0-7.8-1.1-11.6-2c-1.9-0.5-3.8-1.1-5.7-1.6c-16.8-6.2-34.1-8.1-51.9-8.6c-19.1-0.6-38.1-2.7-57.1-5
		c-24.9-3.1-49.8-2.9-74.5,2.7c-3.6,0.8-7.2,1.5-10.9,1.6c-2-0.1-4.1-0.1-6,0.6c-0.6,0.2-1.2,0.3-1.8,0.3
		c-14.4,1.8-28.8,2.5-43.2,3.3c-26.1,1.5-52.3-1-78.2,4.3c-13.7,2.8-27.6,5.5-41.6,4.5c-24.6-1.8-49.2-3.1-73.7-6.1
		c-9.3-1.1-18.4-3.1-27.5-5c-7.1-1.5-14.2-2-21.3-2.5c-28-2.2-55.9-0.7-83.8,0.6c-8.6,0.4-17.3,0.6-25.9,0.9
		c-13.6,0.4-27.3,1.8-40.9,1.3c-10.5-0.4-21,0.7-31.4,1.8c-3.8,0.4-7.5-0.2-11.3,0.2c4.3-0.1,8.7,0,13,0.1
		c24.7,0.5,49.3-1.7,73.9-1.1c7.2,0.2,14.3,1.2,21.3,2.6c2.8,0.6,5.6,1.5,7.8,3.3c8.1,6.8,17.8,8.1,27.7,8.1
		c20.2-0.1,40.1,3.5,60.3,3.5c6.5,1.4,13.2,0.9,19.8,1.4c20.6,1.7,41.2,0.5,61.8,1.2c15.1,0.5,30.2,0.7,45.3,0.9
		c1.3,0,2.7,0.1,3.9,0.5c2.1,1.1,3,2.5,1,4.5c-1.2,0.7-2.4,0.7-3.7,0.6c-12.3-1.3-24.5-0.2-36.8,0c-0.6,0-1.3,0-1.9-0.2
		c-2.4-0.7-5-0.4-7.4-0.4c-19.1-0.1-38.2,0-57.3,0c-0.9,0-1.8-0.1-2.7-0.3c-4.2-1.3-8.6-0.5-12.8-0.8c-0.9,0-1.7-0.2-2.6-0.4
		c-4.7-1.2-9.6-0.2-14.3-0.7c-0.6,0-1.1-0.1-1.7-0.3c-4.7-1.2-9.4-0.3-14.1-0.6c-0.8,0-1.6-0.2-2.4-0.3c-2.8-1.1-5.7-0.4-8.5-0.9
		c-0.5-0.1-1-0.2-1.6-0.3c-4-0.8-8.1-0.1-12.1-0.4c-0.8,0-1.7-0.2-2.5-0.4c-5.4-1.1-10.8-0.3-16.2-0.5c-1.2,0-2.3-0.1-3.5-0.4
		c-5.7-1-11.4-1-17.1,0.1c-4.5,0.6-9,0.6-13.5,0c-3.5-1.1-7.2-0.6-10.8-0.6c-17.5-2.7-35.1-2.3-52.7-3.8c-6.7-0.6-13.3,0.8-19.9,0.7
		c-23.3-0.4-46.6,1.7-69.8,1c-21.9-0.7-43.9-0.7-65.8-0.9c-6.6-0.1-8.2-1.3-10.6-7.6c-1.5-3.8-4.9-4.8-8.3-5.6
		c-10-2.3-20.3-3.3-30.6-3.7c-19.9-0.7-39.8,0.3-59.6,1.7c-2.5,0.2-5,0.4-7.1-1.4c0-1.7,0-3.3,0-5c5.7-3,12.1-2.3,18-2.3
		c28.6-0.1,57.1-2,85.7-1.3c1.7,0,3.3,0.1,5,0.4c4,1.3,8.2,0.7,12.3,0.8c9.8,0.1,19.5,0,29.3,0.1c0.9,0,1.9,0.1,2.8,0.3
		c3.7,1,7.4,1.7,10.8,3.6c3.9,2.2,7.2,4.7,7.9,9.6c0.4,3.2,2.8,4.6,5.8,4.3c12.4-1.4,24.9,0.3,37.4-0.4c19.2-1.1,38.6-1.2,57.9,0.2
		c8.5,0.6,16.9,0.7,25.4,1.1c13.3,0.6,26.5,2.4,39.8,3c2.6,0.1,5.2,0.4,8.4-0.4c-2.1-3.1-4.9-4.1-7.7-4.8
		c-6.1-1.6-12.3-2.7-18.7-2.7c-14.5,0.1-29-0.6-43.5,0.1c-29.1,1.5-57.7-2.7-86.6-4.7c-12.1-0.8-23.1-4.3-34.1-8.7
		c-7.4-3.5-15-6.3-22-10.7c-5-3.1-10.7-4.7-16.4-5.6c-9.5-1.4-19.1-2.4-28.8-2.6c-26.3-0.5-52.5,1.4-78.7,3.5c-0.5,0-1,0.1-1.5,0.2
		c-2.2,0-4.9,0-5.2-2.6c-0.3-2.6,2.2-3.5,4.5-3.7c5.1-0.6,10.1-2.3,15.3-1.9c8,2.1,15.9,0,23.7-0.6c10.1-0.7,20.1-0.8,29.5,0.2
		c-2.9-0.6-6.6,0-9.7-2.2c-8.1-6.9-17.4-9.4-28.1-9c-11,0.4-21.8,0.8-32.6,3c-1.9,0.4-3.9,1.1-5.8-0.2C0,281.7,0,280.3,0,279z"/>
	<path fill="#0E6886" d="M0,362c7.8,1,15.7,1.7,23.5,0.2c3-0.6,5.6,0.9,8.3,0.7c8.9-0.5,17.8,0,26.8-0.5c6.4-0.4,13.1,0.2,19.7,0.4
		c5.9,0.2,11.7-0.1,17.5-0.7c2.4-0.3,4.5,0.8,6.8,0.7c8.8-0.4,17.6-0.6,26.3-0.5c8.2,0.2,16.6-0.8,24.9,1c2.2,0.5,4.6-0.3,6.8-0.3
		c12.1-0.3,24.2-0.7,36.3,0c14.2,0.8,28.4-0.1,42.6-0.3c8.6-0.1,17.3,0,25.9-0.2c10.9-0.2,22,0.3,32.9,0.4
		c16.4,0.1,32.8-1.3,49.2-0.7c16.2,0.6,32.3,0.9,48.5,0.6c9.8-0.2,19.7,0.5,29.6-0.6c2.8-0.3,5.8,1,8.9,0.8
		c6.1-0.4,12.2-0.8,18.3-0.9c3.5,0,6.9,0.9,10.4,0.8c11.5,0,23.1,0.4,34.6-0.8c2.4-0.2,4.8,0.9,7.4,0.9c16.7,0,33.4,0,50.1,0.1
		c11.7,0.1,23.6,0.2,35.4-0.6c7.4-0.5,15.2,0.5,22.8,0.2c9.5-0.3,19,0.7,28.5-0.4c3.8-0.5,8-0.3,12.1,0.5c6,1.2,12.1-0.7,18.2-0.5
		c8,0.3,16,0.1,23.9,0.4c8.9,0.3,17.7-0.1,26.5-0.5c6-0.3,12,0.5,18,0.2c8.3-0.4,16.6,0.8,24.9,0.6c10.6-0.3,21.2,0.1,31.9,0
		c6.2,0,12.5-0.1,18.7,0c13.4,0.2,26.8,0.3,40.3,0c13.1-0.4,26.2,0.6,39.3-0.1c9.4-0.5,18.8,0.2,28.2-0.5c4.4-0.3,9.2,1,13.8,0.6
		c11.7-1.1,23.4,1,35.1-0.3c3.7-0.4,7.6,0.2,11.4,0.4c13.7,0.5,27.5-0.5,41.2-0.1c13.5,0.4,27.1-1,40.6-0.5
		c12.5,0.5,25-0.2,37.5,0.4c11.7,0.5,23.5-0.3,35.3-0.3c8.5,0,17,0.3,25.5,0.4c4.4,0,8.9-0.3,13.3-0.4c8.8-0.2,17.6,0.2,26.4,0.6
		c6.9,0.4,14.1,2.3,21.1,0.2c1.2-0.4,2.6-0.3,4-0.4c18.8-0.8,37.7,0.4,56.5-0.5c12.9-0.6,26,0.7,38.9,0.4
		c13.8-0.3,27.7,0.5,41.5-0.5c6.4-0.5,13.1,1.7,19.6,2.6c4.2,0.2,8.2,1.2,12,3c-466,0-932,0-1398,0C0,366,0,364,0,362z"/>
	<path fill="#147493" d="M443,227c-4.1,1.2-4.7,3.8-3.4,7.5c0.9,2.5,0.6,4.4-2.9,4.7c-2.6,0.3-5.2,0.8-7.9,0.8
		c-17.5,0-35,0.7-52.5-0.2c-32-1.5-63.9-0.5-95.9-0.8c-7.1-0.1-14.3,1.3-21.4,0.8c-17.3-1.3-34.6,0.1-51.9-1.1
		c-12.3-0.9-24.5-2.6-36.8-1.6c-43.3,3.6-86.7,2.6-130.1,2.9c-6.5,0-12.9-0.7-19.4-1.1c-7,0.1-14.1,1-21-1c0-2.7,0-5.3,0-8
		c2.1-2.6,5.2-3,8.1-3.4c18.1-2.5,36.2-4.8,54.5-5.2c24.4-0.6,48.9-1.4,73.3-2.1c11.3-0.3,22.5-2.1,33.8-1.7
		c2.9,0.1,7.4-0.4,7.7,2.6c0.2,2.7-4.5,2.2-7,2.5c-4,0.4-7.9,1-11.9,1.3c9.7-0.7,19.3-3.2,29-2.5c20.3,1.6,40.6,0.1,60.9,1.2
		c20,1.1,40.1,3,60.1,3.5c21.6,0.5,43.3,1,64.9-0.5c9.8-0.7,19.6-0.1,29.5-0.2c11.2-0.1,22.3,0,33.5,0
		C438.6,225.5,441,225.2,443,227z"/>
	<path fill="#187A9A" d="M0,179c0-5.3,0-10.7,0-16c5.6-2.5,11.7-2.4,17.6-2.5c14.8-0.2,29.6,0.6,44.4,1.2c0.4,0,0.5,0,0.5-0.3
		c-8.7,0.1-17.4-0.7-26.1-0.5c-1.2,0-3.1,0.3-3.1-1.5c0-1.6,1.9-1.8,3.1-1.8c7.3-0.1,14.7-0.5,22,0.2c5.3,1.3,10.9,0.5,16.2,1.7
		c1.9,0.4,4.1,0,4.8,2.5c0,0.6-0.3,1.1-0.7,1.4c-1.6,1-3.6,0.6-5.2,1.5c-4,1.7-8.3,1.3-12.4,2.4c2.5-0.3,5.1-1,7.6-0.2
		c6.1,1,12.1-1.1,18.2-0.6c1.9,0.2,3.9-0.1,5.8-0.2c-2.1,0.1-4.1-0.1-6.2,0.2c-1.4,0.2-3.1,0.6-3.6-1.5c1.6-2,3.9-1.8,6-1.7
		c15.3,0.6,30.6-1.3,45.9-1c7.8,0.1,15.4-2.2,23.2-2.6c1.8-0.1,3.6-0.5,5.5-0.5c20.8,0.5,41.5-1.9,62.2-2.8
		c14.1-0.6,28.3-0.3,42.5-0.2c14.7,0.2,29.3-0.9,43.9-1.8c12.5-0.8,25-0.2,37.5-0.2c1.2,0,2.3,0.3,3.3,1c0.6,3.5-2.3,2.5-3.9,2.7
		c-8.7,1.1-17.6,1.4-26.4,1.7c-2.5,0.1-5,0.1-7.5,0c-21-0.7-41.9,1.5-62.9,1.1c-7.1-0.1-14.1-1.5-20.5-1.4
		c16.8,1.4,34.5,2.5,52.1,0.5c1-0.1,2-0.1,3-0.1c26.8,0.3,53.6-0.8,80.4-0.4c3.7,0,7.3,0,10.9-0.7c5.1-0.9,9.2,2.8,9.1,7.9
		c-0.1,2.4-1.7,3-3.7,3.1c-9.5,0.6-18.9,0.7-28.3-0.9c-6.1-1-12.2-2.1-17.9-1.5c6.4-0.2,13.3,0.7,20.2,2c8.9,1.6,17.9,0.9,26.9,0.5
		c2.8-0.1,4.9,0.6,6,3.4c1.3,2.5,0.9,4.6-1.5,6.2c-4.7,0-9.9,2.4-13.7-2.6c-1.1-0.8-2.2-1.3-3.7-1.2c-19.6,1.2-39.3,0.9-58.9,0.3
		c-15.1-0.5-30.2-2.4-45.3-1.6c-13.9,0.7-27.8,1.8-41.7,3.5c-4,0.5-8,1.1-11.9,1.1c-14.3-0.2-28.5,2.4-42.8,2.3
		c-22.5,1.6-45.1,0.8-67.6,1c-2.7,0-5.3,0.1-8-0.3c-9.4-0.4-18.7-2.1-28.2-1.1c-9.2,1-18.6,0.7-27.9-0.2
		c-10.6-1.1-21.3-0.2-31.9-0.4C4.7,180.3,2.1,180.9,0,179z"/>
	<path fill="#106987" d="M410,344c0.7,0,1.3,0,2,0c4.9,1.4,10.1-0.4,15,1c0.3,0,0.7,0,1,0c4.9,1.4,10.1-0.4,15,1c0.7,0,1.3,0,2,0
		c4.2,1.5,8.7-0.4,13,1c0.7,0,1.3,0,2,0c1.7,1,3.6,0.5,5.4,0.5c18.4,0,36.8,0,55.3,0c1.8,0,3.7-0.5,5.4,0.5c0.3,0,0.7,0,1,0
		c3.9,1.4,8.1-0.4,12,1c-3.8,3.6-8.4,1.1-12.5,1.3c-10.1,0.4-20.3-0.3-30.4-0.3c-14.4,0-28.7,0.7-43.1,0.1
		c-8.2-0.4-16.6,0.8-24.8,0.5c-12.5-0.5-24.9,0-37.4-0.2c-16.5-0.3-33,0.6-49.6-0.3c-11.4-0.6-22.8-0.3-34.2,0.1
		c-16.4,0.6-32.8-0.1-49.2,0.2c-16.7,0.3-33.5,0.3-50.2,0.3c-19.6-0.1-39.1-0.5-58.7-0.1c-20.6,0.4-41.2-0.7-61.8-0.4
		c-14,0.3-28,0-42,0.1c-13.5,0.1-27,0.1-40.5,0.3c-1.7,0-3.2-0.4-4.8-0.6c0-4,0-8,0-12c4.6-2.5,9.8-2.1,14.6-1.9
		c14.5,0.7,29,0.3,43.4,0.3c12.5,0,25,0.8,37.4-0.3c4-0.4,8.2,0.2,9.4-5.2c0.2-0.7,1.2-1.1,2.1-0.8c0.6,5.3,3.6,7.1,8.8,7.1
		c22.3-0.1,44.5,0.1,66.7,0.8c23.6,0.7,47.2-0.5,70.7-1.3c13.8-0.5,27.5,0.8,41.2,0.6c10.2-0.1,20.4,1.8,30.5,2.8
		c3.2,1.4,6.8-0.4,10,1c4.7,0,9.3,0,14,0c5.7-0.8,11.3-0.8,17,0c1,0,2,0,3,0c5.6,1.4,11.4-0.4,17,1c0.7,0,1.3,0,2,0
		c4.2,1.5,8.7-0.4,13,1C403.9,344.4,407.1,342.7,410,344z"/>
	<path fill="#167796" d="M0,209c0-2.7,0-5.3,0-8c3.7-2.5,7.8-1.7,11.7-1.2c12.6,1.5,25.3,0.7,37.9,0.8c15.3,0.1,30.6-1.6,45.9-0.9
		c10.6,0.9,21.2,0.1,29.7,0.4c-6.2,0-14.5,0-22.8,0c-1.5,0-3.9,0.7-4-1.5c-0.1-1.7,2.2-1.7,3.6-1.7c1.5-0.1,2.9-0.5,4.4-0.9
		c10.4-1.7,20.8-1.2,31.3-0.4c12.3,0.9,24.7,0.4,36.9-1c20.5-2.4,40.9-4.8,61.6-3.8c10.6,0.5,21.3-1,31.7,2.2
		c2.6,0.8,5.7,0.7,7.6,4.8c-26.1-0.1-51.7,0.9-72.5,0.6c10-0.7,24.8,0.6,39.5-0.4c1-0.1,2-0.1,3-0.1c39.9-1.5,79.9-1,119.8-1
		c15.3,0,30.1-2.1,44.8-5.8c3.5,3.7,3.1,8.3,2.2,12.5c-0.6,2.8-4.3,2.8-6.8,3.1c-4.8,0.5-9.6,0.8-14.4,0.9c-9.1,0.3-18.3,1-27.4,1.4
		c-16.6,0.8-33.3,0-49.9,1c-20.7,1.3-41.3,0.6-61.9,0.7c-45.8,0-91.7,0.4-137.5,0.2c-5,0-10,0.4-14.9,1.6c-11.4,2.7-22.8,2-34.2-0.1
		c-16.3-3.1-32.7-3.3-49.2-1.8C10.8,210.8,5.2,211.9,0,209z"/>
	<path fill="#1E82A3" d="M0,100c0-4.3,0-8.7,0-13c3.3-2.4,7.2-1,10.8-1.4c1.5,0,3.1,0,4.6,0c9.8-0.4,19.6,0.7,29.3-0.6
		c19.4-1.5,38.4-5.7,57.6-8.7c12.6-2,25.2-2.8,37.5,1.1c7.5,2.3,15.1,0.9,22.2-0.3c15.2-2.5,30.1-0.9,45.1,0.9
		c9.6,1.1,19.1,2.4,28.8,2.6c8.7,0.2,17.1,2.4,25.6,3.6c3,0.4,6.1,1.3,9.1-0.4c0.5-1.7,1.9-2.1,3.4-2.4c2.4-0.1,4.5,0.6,6.2,2.5
		l-0.1-0.1c0.7,1.4,0.9,2.8,0.9,4.4c0.1,5.1-0.8,6.2-6,6.3c-16,0.1-31.8,2.8-47.6,4.5c-10.4,1.2-20.8,2.8-31.2,3.3
		c-6.9,0.3-13.9-0.8-20.9-0.7c-15.3,0.1-30.6,0-45.9,0.1c-13.1,0-26.2-1.2-39.3-2.1c-1.5-0.1-3-0.3-4.1-1.4c1.4-3.2,4.2-2,6.4-2
		c27.1-0.1,54.3-0.1,81.4,0c4.8,0,9.6-0.5,14.4-1c9.7-0.6,19.4-2.1,29.1-2.7c8.6-0.5,17.2-1.4,25.8-2.2c3.8-0.3,7.5-2,10-1.3
		c-23.3,3.4-48.2,4.2-72.8,7.1c-24.6,0.1-49.2,0.3-73.9,0c-18.4-0.2-36.7,3-55.1,2.5c-2.2-0.1-4.3,0-6.5,0c-1.5-0.1-3.4-0.1-3.6-1.9
		c-0.2-1.6,1.6-2.3,3-2.8c4.1-1.4,8.4-1.8,12.6-2.1c3.3-0.2,6.5-0.4,9.8-1c3.2-0.2,6.4,0.3,9.5-0.6C77,90,77.9,90,78.8,90
		c19.3-0.3,38.6-2.6,57.9-0.9c0-0.1,0-0.2,0-0.6c-15.6-0.1-31.3,0.1-46.9,1.2c-7,0.5-13.9,0.3-20.9,0.7c-2.1,0.1-4.3-0.2-6.4,0.6
		c-18.9,0.7-36.7,7.7-55.3,9.5C4.8,100.7,2.3,101.8,0,100z"/>
	<path fill="#127291" d="M0,238c7-0.2,14.1-0.8,21,1c-0.4,1.3-3,0.6-2.5,2.5c0.4,1.5,2,1.5,3.4,1.5c8.6,0,17.3-0.6,25.9-0.8
		c20.3-0.5,40.7-0.4,61-0.1c15.2,0.3,30.3-0.6,45.4-1.4c13-0.7,26.1-1.6,38.8-0.4c18.8,1.9,37.5,0.7,56.3,1.8
		c23.9,1.4,47.8-1.2,71.7-0.2c6.7,0.3,13.3-0.2,20,0.1c20.1,0.9,40.2,0.8,60.4,1.1c10.3,0.1,20.6-1.6,30.9-1.1c1.6,0.1,3.2,0,6,0
		c-4.4,2.9-8.4,2.3-12,2.8c-6.9,1.1-13.9,1.4-20.8,1.2c-1.8-0.1-3.6,0.6-5.4,0.9c-3.8,2.5-7.9,1.5-12,1c-0.7,0-1.3,0-2,0
		c-2.2-1.3-4.8,0.3-7-1c-29.1-1.4-58.3-1.5-87.4-0.8c-23.3,0.6-46.6,0.2-69.9,1c-12,0.4-24.1,1.3-36,3.5c-5.5,1.1-11.2,1.2-16.8,1.2
		c-15.1-0.1-30,2.6-45,3.7c-10.2,0.8-20.3,2.1-30.8,0.7c-8.6-1.1-17.6-1.3-26.3,0.5c-0.6,0.1-1.3,0.1-2,0.1c-15-0.3-29.9,1.7-44.9,1
		c-6.6-0.3-13.2,1.6-19.9,1C0,252,0,245,0,238z"/>
	<path fill="#147898" d="M106,197c-1.9,2.2-4.8,0-8,2.3c12.9,0,24.6,0,36.4,0c0,0.6,0,1.2,0,1.7c-12.8,0-25.5,0-38.3,0
		c-1.7-1.5-3.8-1-5.7-1c-20.6-0.1-41.1,1.6-61.7,1c-8.6-0.2-17.2-1.4-25.8-1.1c-1,0-2-0.3-2.8-0.9c0-6,0-12,0-18
		c0.5-0.4,1.1-0.8,1.8-0.8c11.8-0.2,23.6-0.8,35.3,0.2c10.1,0.9,20.2,0.8,30.3,0.4c6.2-0.3,12.3,0.4,18.4,0.3
		c23.1,1.6,46.2,0.4,69.3,0.3c10.1,0,20.3,0.6,30.4-1.1c3.3-0.3,6.7-0.6,10,0.2c0.6,0.3,0.8,0.8,0.7,1.5c-1.3,1.5-3.2,1.6-4.9,2
		c-12.1,1.5-24.3,1.2-36.5,2.1c-20.7,1.3-41.5,0.7-62.2,2.8c-8.3,0.9-16.6,0.3-25,0.2c-16.3-0.3-32.5,2.1-46.3,1
		c7.9-0.5,18.3,0.8,28.8-0.7c6-0.9,12.3-0.2,18.5-0.2c27.3,0.1,54.5-2.2,81.7-3c8.3-0.2,16.6-0.1,24.9-0.9c25.9-2.4,51.9-2,77.9-1.4
		c19.6,0.5,39.2,1.3,58.8,2.4c14.6,0.9,29.3,0.1,44,0.3c13.1,0.2,26.3,0.9,39.4,1.6c2.5,0.1,5-0.4,7.5-0.4c2.4,0,5.1-0.8,6.5,2.2
		c-4.9,3.2-10.6,3.3-16.1,4.5c-5,1.1-10.2,1-15.4,1.3c-21.3,1.1-42.6,0.5-63.9,1c-17.7,0.3-35.2-0.6-52.4-5.4
		c-2-0.6-3.9-0.6-5.9-0.6c-4.3,0-8.7,0-13,0c-20.1,0-40.1-0.3-60.1,3c-15.9,2.6-32.1,2.5-48.3,1.6c-10.9-0.6-21.9-0.1-32.9,0.6
		c-12.2,0.8-24.5,0.2-31.2-0.1c7.2,0.3,20,0.7,32.7,0.1C104.1,195.7,105.2,196.1,106,197z"/>
	<path fill="#1F84A6" d="M0,69c0-2,0-4,0-6c4.9-0.9,9.9-0.8,14.8-0.9c17.8-0.4,35.6,0.8,53.4-1.2c9.2-1,18.6-0.6,27.6-3.6
		c1.3-0.4,2.6-0.4,3.9-0.2c-1.2-0.3-2.4-0.3-3.5,0C83,61,69.3,61,55.8,61.8c-17.8,1-35.6-0.1-53.4,0.7c-0.8,0-1.7,0.1-2.4-0.5
		c0-2.7,0-5.3,0-8c4-2.1,8.5,0.2,12.7-1.3c0.6-0.2,1.4,0,2-0.2c11.3-3.9,23.3-2.9,34.7-5.4c5.9-1.3,12,0.4,17.8-1.1
		c21.5-2,43-4.2,64.5-7.1c7.4-1,14.9-0.8,22.4-1.2c4.7-0.3,9.4,0.5,12,5.5c1,1.8,2.8,2.3,4.7,2.4c2.5,0.1,5-0.1,7.5,0.2
		c4.2,0.4,7,3.3,7.2,7.5c0.1,2.3-1.4,2.9-3.2,2.8c-9.1-0.4-18.6,0.1-27.1-3.4c-6-2.5-11.7-3.2-17.9-3c-10.8,0.4-21.6,1.4-32.4,3.1
		c-0.6,0.4,0.4,1,0,0.5c-0.2-0.2-0.1-0.4,0.3-0.4c12.4-2.1,24.9-3.2,37.6-3c1.2,0,2.5,0.1,3.3,0.9c5.5,5.4,12.8,4.1,19.4,4.7
		c6.3,0.6,12.6,1,18.9,0.6c2.6-0.2,4.3,1.2,6.4,2.3c3,1.7,6.5,2.6,9.6,4.2c1.5,0.7,3.8,1.3,3.5,3.1c-0.3,2.2-2.8,1.8-4.5,1.9
		c-16.6-0.4-33.2-0.6-49.4-4.6c-6.4-1.6-12.7-4-19.4-2.3c-0.7,0.2,0.4,0.8,0,0.2c-0.1-0.1,0-0.2,0.4-0.3c4.1-0.6,8.2-0.9,12.3,0.5
		c9.2,3.1,18.7,4.1,28.2,5.2c5.3,0.6,10.6,0.8,15.9,0.9c9.7,0.6,19.4,0.5,29.2,0.5c4.1,0,7.7,1.5,11.2,3.4c1.2,0.6,2.9,1.3,2.2,3.3
		c-2.7,1.4-5.6,0.3-8.3,0.1c-14.1-1.1-28.3-2-42.5-1.9c-10.6-0.7-21.2,0.9-31.8,1.1c-3.6,0.1-6.9-0.5-9.9-2.7
		c-2.2-1.6-4.7-2.4-7.3-3.1c-15.2-4.4-30.6-5.2-46.3-3c-10.3,1.5-20.6,3-31.2,2.9c-16.3-0.2-32.6-0.6-48.7,1.9
		C2.6,69.7,1.2,69.7,0,69z"/>
	<path fill="#0B6582" d="M155,185c12.3-1.5,24.7-1,37-2c8.1-2.3,16.4-0.9,24.6-1.6c5.7-1.5,11.6-0.8,17.4-0.9
		c21.1-0.4,42.3,0.7,63.4,1.3c19.8,0.6,39.6,0.3,59.4,0.6c6.3,0.1,12.5,1.6,18.9,0.2c4.2-0.9,8.4-1.9,12.4-3.6c2.3-1,2-3,1.9-5
		c-0.2-1.2,0.3-1.6,1.4-1.2c0.9,1.6,2.5,3.1,2.6,4.7c0.4,5.1,3.4,5.6,7.7,5.7c13.9,0.2,14,0.4,15.6,14.2c0.6,4.8,1.6,9,7.7,9.5
		c2.2,0.2,4.3,1.6,6.6,2.2c10,2.8,11.8,5.2,11.5,15.9l0,0c-1.6,0.6-2.9-0.2-4.2-1.1c-1.4-1.6-3.3-2.2-5.4-2.3
		c-6.6,0-13.2-1.5-19.9-1.2c-18.1,0.7-36.2-1-54.3-1.1c-3,0-6.8,0.6-8.3-3.6c5-2.7,10.5-0.6,15.7-1.2c21.1-0.1,42.2,0,63.7-0.1
		c-1.8-0.6-3.2-1-4.6-1.5c-9.9-4.7-20.3-4.5-30.8-3.2c-9.1,1.1-18.3,1.1-27.4,1.5c-17.6,0.9-35.2,1.8-52.9,1.2
		c-5-0.2-9.9,0.3-14.9,1c-9.3-0.3-18.5,0.7-27.8-0.4c-28.4-2.1-56.9-0.2-85.3-1.5c28.4,1.4,56.9-1,85.3,1.8c1.6,1.1,0.9,1.9-0.4,2.5
		c-1.7,0.8-3.6,0.6-5.4,0.6c-23.1,0-46.3,0.5-69.4,0.1c-12-0.2-23.9-1.6-35.9-0.9c-21.9,1.4-43.9,0.5-65.8,1.1
		c-8.8,0.2-17.5,1.9-26.3,1.9c-17,0-33.9-1.6-50.7-3.6c-3.8-0.4-7.6-0.5-11.5-0.5c-2.3,0-4.7,0.1-6.6-1.6c0-1.3,0-2.7,0-4
		c15.3,0.2,30.6-1.6,45.9-1.1c8.8,0.3,17.4,2.3,26.1,3.5c9,1.2,17.7,0.9,26.5-0.7c5-0.9,10.1-1.7,15.3-1.7c63.5,0,127,0.4,190.5-0.2
		c15.4-0.1,30.9-0.2,46.4-0.8c18.2-0.7,36.4-1.9,54.6-3c5.8-0.3,6.2-0.9,5.7-6.9c-0.2-2.4-0.6-4.8-0.9-7.1c-0.6-0.1-0.9-0.4-1.1-0.9
		c-1.1-1.5-2.8-1.3-4.1-1c-6.1,1.5-12.2,0.2-18.2-0.1c-24.6-1.2-49.2-0.4-73.8-1.1c-16.2-0.5-32.5-1-48.7-2
		c-24.1-1.5-48.2-0.5-72.3-0.6c-5.6,0-11.2,0.9-16.9,0.8c-6.2,1.1-12.4,0.2-18.6,0.4C155.5,186.5,154.9,186.1,155,185z"/>
	<path fill="#1D7FA0" d="M0,118c0-4.3,0-8.7,0-13c9-3.2,18.1-5.9,27.8-3.1c0.6,0.4-1.3,2,0.9,1.7c23.5-2.2,46.8,1,70.1,2.6
		c1,0.1,2,0.2,3,0.2c36,0,71.9,0.4,107.9-0.2c19.5-0.3,38.8-3.2,57.8-7.9c6.7-1.6,13.5-1.6,20.2,1c2.7,1.1,5.5,1.1,8.3,0.3
		c2.1,0.5,2.5,2.1,2.2,3.8c-0.4,1.9-2.1,2.6-3.8,2.7c-5,0.2-10,0.6-14.9,1.3c-6.9,0.9-13.6,1.8-19.6,6.3c-4.5,3.5-10.9,2.8-16.4,3.4
		c-15.9,1.6-31.7,4-47.7,3.2c-9.9,2.5-19.8,0.3-29.6-0.4c-12.1-0.8-24.2-0.3-36.2-0.7c-36.9-2.8-73.9-2-110.8-2
		c-4.6,0-9.2,0.9-13.9,1.5C3.3,119.1,1.6,119.3,0,118z"/>
	<path fill="#1C7E9F" d="M0,136c0-3,0-6,0-9c1.8-1.6,4-1.5,6.1-1.5c17.8,0,35.5,0,53.2,1.7c9.7,1,19.6,1.1,29.3-0.7
		c4.6-0.9,9.1-1.8,13.1-4.5c3.2-2.1,6.7-2.6,10.5-2.6c6.3-0.1,12.6,0.5,18.9-0.4c9.1-0.1,18.3-0.7,27.4,0.2
		c7.4,0.7,14.8,0.3,22.2,1.6c5.9,1,11.9,0,17.9-0.2c4-0.1,8.1-0.1,12.1,0c13.6,0.1,27.3,0.2,40.9-0.1c6.3-0.1,12.6-0.8,18.9-1.1
		c3.4-0.2,6.6-1.3,9.6-3.6c5.3-3.9,11.9-3.5,18.2-4c2.4-0.2,3.4,1.7,4.1,3.7c0.5,2.6,1.8,5.2,0.3,7.8c-3.9,2-8.1,1.4-12.2,1.7
		c-12.1,1-23.9,3.4-35.8,5.7c-3.8,0.7-7.7,1.9-11.8,0.8c-1.9-1.4-4.1-1.1-6.2-1.2c-16.3-0.3-32.5,0.4-48.7,1
		c-13.8-0.1-27.6,1.4-41.3,3c-4.6-0.4-9,1.1-13.6,1.2c-1,0-2.7-0.5-1.5,1.6c-1.1,1-2.4,1.1-3.7,1.2c-16.4,0.4-32.7,2.7-49.1,2.1
		c-9.1-0.3-18.1-0.9-27-3.3c-5.8-1.5-11.9-0.7-17.9-0.7c-10.3,0-20.6-0.7-30.8,0.5C2,137.1,0.9,136.8,0,136z"/>
	<path fill="#106D8B" d="M23,293c-5.6,0.7-11.1,1.4-16.7,2.1c-1.2,0.2-2.6,0.9-2.4,2.1c0.2,1.5,1.9,1.9,3.1,1.7
		c9.9-1.8,20.1-1.3,30.1-2.6c5.2-0.7,10.6-1.1,15.8-1.1c22.5,0.1,45.1-1.8,67.5,2.8c4.9,1,9.7,2.3,13.9,5.1
		c6.8,4.6,14.7,6.9,21.8,10.9c0.8,3.4-1.2,2.5-3,2c-0.7,0-1.3,0-2,0c-6.2-1.2-12.5-0.2-18.8-0.5c-7.7-0.3-15.5,0.6-23.2-0.5
		c-14,0-28-0.5-41.9,0.1c-16.6,0.8-33.2,0.4-49.8,1.1c-5.8,0.2-11.5,0.7-17.3,0.8c0-9.3,0-18.7,0-28c1.5-1.3,3.3-1.6,5.1-1.3
		c6.3,0.8,12.5,1.2,18.8,2c1.3,0.2,2.7,0.3,3.1,1.9C26.1,293.4,24.3,292.5,23,293z"/>
	<path fill="#1B7D9D" d="M0,145c0-1,0-2,0-3c6-3.6,12.7-2,19.1-2.4c7,0.3,13.9-0.7,20.8-1.8c7.1-1.1,14.2,0.2,21.3,1.1
		c18.1,2.2,36.2,1.7,54.2-0.1c33.6-3.3,67.2-5,100.9-4.5c15.9,0.2,31.8-1.4,47.5-5.1c3.1-0.7,6.2-1.4,9.4-1c1.5,0.7,3,0.9,4.8,0.7
		c7.9-0.8,15.9,0,23.9-0.7c2.9-0.3,7,4.3,7.2,7.3c0.1,2.3-1.6,2.6-3.2,3.1c-4.1,1.5-8.6,1.2-12.8,1.5c-11.2,0.9-22.5,2.2-33.7,2.2
		c-5.3,0-10.5,1.5-15.9,1.1c-11.8,0.2-23.5,1.6-35.2,2.7c-2.5,0.2-5,0.3-7.5,0.3c-30.8,0-61.5,0-92.3,0c-2.5,0-5-0.3-7.4,0.6
		c-9.6-0.2-19.1,1.3-28.8,0.9c-5.8-0.3-11.9,0.3-17.9,1.2c-4.1,0.7-8.3,0.8-12.1-1.7c-1.9-1.2-4.2-1-6.3-1c-10,0-20,0-30,0
		C4,146.4,1.8,146.6,0,145z"/>
	<path fill="#1F85A7" d="M167.9,11.2c1,0,2-0.1,3-0.1c1.9,3.1,4.9,5.2,7,8.1c1,1.4,2.6,2.7,1.4,4.8c-0.4,0.4-0.8,0.6-1.4,0.7
		c-11.1-6.2-23.3-2.8-35-3.6c-2,0-3.9,0-5.9,0c-3.4-0.1-6.8-0.1-10.1,0.9c-1.4,0.2-2.9,0.1-4.3,0.1c-12.2,1.1-24.5,1.9-36.6,3.8
		c-7.8,0.7-15.4,2.8-23.2,2.5c-1.3-0.2-3,0.5-3.5-0.7c3.7,2.4,8,0.1,12.1,0.3c6.7-0.7,13.2-2.5,20-3c13.3-1.7,26.8-2.4,40.1-3.9
		c11.2-0.4,22.4,0.3,33.6-0.4c4.6,0.3,8.8,2.3,12.3,4.8c4.2,2.9,4.4,8,3.8,12.8c-1.9,1.1-3.7,1.2-5.3-0.7c0.2-1.1-0.1-2-1-2.6
		c-5.6-3.9-11.1-7.6-18.5-7.7c-14-0.1-27.8,2-41.7,2.8c-4.6,0.3-9.3,0.7-13.9,1.3c-17.1,1.1-34,3.2-50.7,7.2
		c-8.1,1.9-16.5,2-24.6,3.3c-1.4,0.4-2.8,0.4-4.3,0.4c-2-0.1-4,0.1-5.9,0.8c-3.3,0.4-6.5,0.3-9.8,0.3c-2.1,0-4.3-0.2-5.5-2.4
		c0-3.7,0-7.3,0-11c4.1-2.3,8.6-2.4,13.1-2.4c5.6,0,11.2,0,16.9,0c2,0,4,0.1,5.7-1.2c2-0.9,4.3-1.1,6.3-0.7c5.8,1.1,11.4,0,17.1-1.1
		c3.2,0,5.8-2.6,9.1-2.6c5.3-0.4,10.5-1.6,15.7-2.6c4.5-0.8,8.9-0.1,12.8-1c-1.2-0.6-3.3,1.1-4.8-0.6c-0.1-0.6,0.2-1.1,0.7-1.4
		c0.7-0.4,1.6-0.7,2.4-0.7c10.3,0.6,20-1.9,29.9-4c13.6-2.8,27.4-0.6,41.2-0.4C166.7,11.4,167.3,11.5,167.9,11.2z"/>
	<path fill="#096582" d="M211,122c-4,0-8,0-12,0c-0.8-0.7-1.8-0.3-2.7-0.5c-2.2-0.6-1.6-1.5-0.2-2.4c20.3,0.5,40.3-2.3,60.4-5
		c1-0.1,2.3-0.2,2.8-0.8c4.6-6.1,11.7-5.9,18-6.9c5.3-0.9,10.8-1.7,16.3-1.3c4.5,0.3,4.8-1.7,2.5-5c-7-0.4-13.6-3.2-20.7-2.5
		c-3.3,0.3-6.6,0.4-9.9,0.9c-21.4,3.7-42.9,4.8-64.5,6.5c-30.2,2.4-60.3,1.2-90.4,1.5c-13.1,0.1-26.2-2.2-39.3-2.5
		c-11.3-0.3-22.6-1.5-33.9-1.4c-2.8-0.2-5.6,0-8.4-0.3c-0.3-0.1-0.5-0.1-0.8-0.2c-9.5-0.7-18.6,2.3-28,3c0-1.7,0-3.3,0-5
		c14.3-2.2,28.8-4,42.8-8c6.3-1.8,12.7-2.2,19.2-2c4.8-1,9.7-0.2,14.6-0.4c0.9,0,1.5,0.4,1.4,1.5c-0.7,0-1.3,0-2,0
		c-2.9,1.3-6.1-0.4-9,1c-7.8,1.6-15.9,0.7-23.5,3.3c-0.5,0.2-1.9,0.1-1.4,1.3c0.1,0.3,1.2,0.2,1.8,0.3c7.8,1,15.5,0.4,23.3,0.3
		C73.6,97.2,79.9,96,86,98c33.9,2.7,67.8,1.4,101.7,2.3c16.2,0.4,31.9-2.6,47.8-4.1c12.5-1.2,25-3.2,37.6-3.2c6.8,0,6.8,0,6.8-6.7
		c0-0.8,0-1.7,0.1-2.5c0.6,0.7,1.9,1.5,1.8,2.1c-0.9,6,2.8,5.7,7,6c8.6,0.5,10.8,3,12.1,11.9c0.5,1.7,1,3.5-0.8,4.9
		c-7.7,2.3-15.8,1.2-23.7,2.5c-5.1,0.8-10.1,1.9-14.4,5c-2.3,1.7-5.2,2-8.1,2.3c-4.8,0.5-9.5,1.5-14.3,2
		C230.2,120.4,220.6,121.4,211,122z"/>
	<path fill="#106B89" d="M107,330c-0.6,0.6-1.7,1.3-1.7,1.7c1.7,7.5-4.9,5.9-7.8,6c-17.3,0.5-34.7,0.7-52,0.2
		c-10.7-0.3-21.4,1-32.2-0.5C9.2,336.8,4.5,338,0,338c0-5.3,0-10.7,0-16c22.7-1,45.5-3,68.2-1.8c11.1,0.6,22.5,0.9,33.3,4.8
		C104,325.9,106.6,326.7,107,330z"/>
	<path fill="#147594" d="M272,212c9.3,0,18.7,0,28,0c4.7,1.3,9.4,0.2,14.2,0.4c9.1,0.4,18.3,0.1,27.4,0.2c2.2,0,5.9-0.5,6,1.8
		c0.1,2.8-3.6,1.9-5.7,2c-10,0.1-19.9,0-29.9,0.1c-23.1-0.5-46.2,1.7-69.4,1c-1.5,0-3,0.1-4.4,0.6c-11.5,1.7-23.2,1.3-34.8,2.3
		c-3.8,0.3-7.5,1.3-11.4,1.2c-5-0.2-9.9,0-14.6-2.4c-1.5-0.8-3.4-1.1-5.3-1.2c-11.8,0-23.5-0.2-35.2,1.9c-0.7,0.1-1.3,0.1-2,0.1
		c-18-0.7-35.9,0.7-53.8,1.2c-25.7,0.6-51.5,1.2-76.8,6.4c-1.5,0.3-3,0.6-4.3-0.5c0-4.7,0-9.3,0-14c12.6-0.4,25.1,1.8,37.6,2.7
		c17.8,1.2,35.8,3.1,53.6-0.5c3-0.6,6.3-0.2,9.5-0.2c14.8,0,29.7,0.5,44.5-0.2c13.3-0.6,26.6-1.5,39.9-0.7
		c27.6,1.7,55.3,0.2,82.9,0.8c1.3,0,2.6-0.1,3.9-0.2c0.1,0,0.2-0.2,0.2-0.4c0-0.2-0.1-0.3-0.2-0.5C271.4,213.3,271.4,212.7,272,212z
		"/>
	<path fill="#1F84A6" d="M0,227c22.3-4.6,44.9-5.7,67.6-6.2c22.4-0.5,44.8-1.2,67.2-2.1c12.1-0.5,24.1-2,36.2-1.7
		c1.5,0,3.2-0.2,4.4,0.4c11.1,5,22.6,2.1,33.9,1.4c9.6-0.7,19.2-0.5,28.7-1.7c5.7-0.5,11.5-1.3,17.2,0.4c-0.1,0.6-0.5,1.1-1.1,1.4
		c-6.2,1.5-12.5-0.3-18.7,1.1c-3.4,0.8-6.9,0-10.3,0.9c-0.6,0.1-1.1,0.1-1.7,0.1c-6.9,0.2-13.9-0.4-19,0.4
		c8.5-0.7,18.8-0.2,29.2-0.8c23.7-0.4,47.2,1.8,70.8,2.7c10,0.4,20,0,30,0.2c32.3,0.5,64.6-0.7,96.9-1c3,0,6-0.3,8.7,1.6
		c1,0.3,2,0.7,3,1c0,0.7,0,1.3,0,2c-10.7,0-21.3,0.1-32,0c-32.5-0.3-64.9,2-97.4,0.9c-21.2-0.7-42.4-1.7-63.5-3.8
		c-5.9-0.6-12,0-18-0.2c-13.3-0.4-26.6,0.5-39.9-0.8c-12.1-1.3-24.2,0.8-36.2,1.8c-1.7,0.1-3.4,0-5.1-0.7c8.7-1.6,17.6-1.6,26.3-3.6
		c-2.2-1.7-4.7-1.6-7.1-1.7c-21.1-0.3-42.1,2.5-63.3,2.3c-9.4-0.1-18.9,0.1-28.4,0.7c-20.3,1.2-40.7,1.3-60.9,4.7
		c-5.9,1-11.7,1.9-17.5,3.3C0,229,0,228,0,227z"/>
	<path fill="#0B6582" d="M0,145c12.3,0,24.6,0,36.9,0c2.7,0,5.2,0.2,7.5,1.9c2.8,2.1,6.1,1.2,9.2,0.9c7.7-0.8,15.3-1.1,23.1-1
		c8.1,0.1,16.2-1,24.3-0.8c1.1-0.7,2.3-0.5,3.4-0.5c25.9,0,51.8,0,77.7,0c1.4,0,3-0.7,4.1,0.9c-0.8,1.9-2.6,1.8-4.2,2
		c-4.4,0.7-8.9,1.1-13.4,1c-16.5-0.2-32.9,0.7-49.3,2c-3.7,0.3-7.2,1-10.2,3.5c-1.5,1.3-3.4,2.1-5.5,2.2
		c-14.4,1.1-28.8,2.3-43.2,2.1c-0.5,0-0.9-0.3-1.4-0.5c-8.3,0-16.6,0-24.8,0c10,0.5,19.8,1.7,29.8,2.6c-21.3,0.7-42.6-0.2-63.9,1.4
		c0-1.3,0-2.7,0-4c3.9-3.2,8.6-3.2,13.2-3.4c4.6-0.2,9.3,0.2,13.9-0.7c10-0.7,19.9-0.4,29.9-0.8c13.5-0.5,26.9-1.8,40.3-2.5
		c2.3-0.1,4.6,0.1,7-1.1c-1.4-1.3-2.8-1-4-0.9c-19.7,1.3-39.6,1.6-59.2,4.4c-4,0.6-8.2,1.7-12.3,0.3c-1-1.5-0.9-3.2,0.7-3.8
		c3.4-1.3,7-2.5,10.7-0.9c-0.9-1.8-2.8-1-4.4-1c-9.8-0.1-19.5,0-29.3-0.1c-2.3,0-4.7,0.2-6.6-1.5C0,146.3,0,145.7,0,145z"/>
	<path fill="#2B97BB" d="M0,69c7.5-2.5,15.3-2.5,23-2.8c11.1-0.6,22.3-0.2,33.4-0.2c11.5,0,22.7-2.3,34-3.4
		c16-1.6,31.8-0.7,46.1,6.2c7.6,3.7,14.5,2.9,21.9,2.5c6.8-0.3,13.6-0.2,20.4-0.4c-0.3,2.7-2.6,2.1-4.2,2.3c-2,0.2-4,0-5.9,0.9
		c-10.3,2.7-20.8,2.4-31.4,1.9c-1.5-0.3-2.7-1.2-3.8-2.3c-7-2.1-14-3.6-21.3-3c-1.5,0.1-3,0.6-4.4,0.5C90.3,69.7,73.4,75,56.2,77
		c-6.8,0.9-13.5,2.5-20.3,3.4c-10.2,1-20.2,3.1-30.3,4.4C3.6,85,1.7,85.5,0,84c0-0.7,0-1.3,0-2c2.4-2.5,5.7-3,8.8-3
		c9.9,0,19.3-3.3,28.9-4.8c9-1.5,18-2.7,26.9-4.3c5.8-1.3,11.7-1.4,17.5-2.9c4-0.3,7.9-1.4,12-1c6,0.1,12-0.3,18,0.2
		c-5.8-0.3-11.5-0.2-17.3-0.3c-0.8,0-1.7,0-2.5,0c-1.9,0-3.8-0.2-5.7,0.5c-2.5,0.5-5,0.4-7.5,1.1c-11.1,1.9-22.4,2.6-33.7,3.1
		c-9.9,0.4-19.8,1.3-29.7,2.5C10.5,73.8,5.2,74.2,0,73C0,71.7,0,70.3,0,69z"/>
	<path fill="#1F85A7" d="M274,129c-11.7,2-23.3,4.7-35.2,5.8c-5.6,0.5-11.2,1.1-16.8,1.1c-17.6,0.1-35.3,0.4-52.9-0.1
		c-9.7-0.3-19.2,1.4-28.7,2.5c-6.6,0.8-13.2,0.7-19.8,1.4c-18.2,2-36.5,1.9-54.8,1c-8.4-0.4-16.8-2.5-25.2-1.6
		c-7.2,0.8-14.4,2.1-21.7,1.8c-3.5-1.4-7.4,0.4-10.9-1.7c9-2.4,18.2-0.3,26.6-1.8c-1.3-0.8-3.5,0.5-5.6,0.5c-8,0.1-16-0.5-23.9,0.4
		c-1.8,0.2-3.7-0.1-5.1-1.5c0-0.3,0-0.7,0-1c16.5-2.1,33.1-0.9,49.7-0.8c5.9,0,11.6,2.8,17.7,3.2c12.1,0.7,24.1,0.9,36.2-0.1
		c7.7-0.6,15.5-0.9,23.3-1.4c1.8-0.1,3.7,0.6,5.2-1c4.6-1.4,9.4-1.7,14.1-2c2.1-0.1,4.3,0.1,6.3-0.9c22.6-2.1,45.3-2.3,68-2.6
		c3.1,0,6.3,0.3,9.4-0.5c4.3,0.2,8.8-1.1,13,0.8c10.5-0.6,20.7-3.7,31.1-5.3c9.6-1.4,19.2-2.7,28.9-2.7c1.5,2.2,1.2,3.1-1.1,4.4
		c-2.6,1.4-5.5,1.2-8.3,1.2C287.1,128.8,280.6,129.9,274,129z"/>
	<path fill="#126B89" d="M1440,343c-10.5-0.3-21.2,2-31.5-1.1c-8.6-2.6-18.6-1.1-25.7-9.1c-2.5-2.8-7.3-3.2-11.2-2.5
		c-12.5,2.1-25.1,1.4-37.6,1.8c-6.9,0.2-13.4-1.9-20-3.2c-5-1-8.5-3.6-9-9c16-0.1,31.8,1.8,47.7,2.8c12.1,0.7,23.7,3,35.2,6.6
		c4.7,1.5,9.5,2.8,12.6,6.6c4.7,5.6,11.1,6,17.5,6.3c7.3,0.4,14.6-0.3,21.9-1.1C1440,341.7,1440,342.3,1440,343z"/>
	<path fill="#2085A7" d="M0,26c0-2.7,0-5.3,0-8c1.8-1.6,4-1.4,6.1-1.4c8.3,0,16.6,0.3,24.9-0.1c13.5-0.7,27.1-0.3,40.5-2.8
		c4.7-0.5,9.8,0.6,13.7-3.3c4.5-2.3,9.5-2,14.2-3.1c3.4,0.5,6.8,0.3,10.3-0.3c3.4-0.6,6.9-1.2,10.1,0.7c0.2,3.8-3.5,0.4-4.3,2.3
		c1.5-0.9,2.9-0.5,4.4,0c-0.3,2.1-1.8,2.2-2.9,2.6C110.7,15,104,15.9,97.2,16c-2,0-4-0.3-5.8,0.7c-12.8,0.8-24.7,6.2-37.4,7.2
		c-3.3,0.4-6.8,0.3-9.9,1.9c-13.9,0.9-27.9,0-41.8,0.9C1.4,26.9,0.7,26.5,0,26z"/>
	<path fill="#1B7E9F" d="M0,124c0-1.3,0-2.7,0-4c7.1-2.7,14.7-2.7,22.1-2.9c21.7-0.4,43.3-0.1,65-0.1c3.8,0,7.6,0.6,11.5,0.6
		c1.6,0,3.8-0.1,4.2,1.8c0.5,2.2-1.8,3-3.4,3.7c-6.5,2.9-13.4,4-20.4,4.4c-13.8,0.7-27.6-0.7-41.4-1.6c-10.3-0.7-20.6-0.1-31-0.4
		C4.3,125.4,1.9,125.7,0,124z"/>
	<path fill="#0C6683" d="M0,124c6.3,0,12.7,0.1,19,0c19.9-0.3,39.8,2.9,59.7,2c6.9-0.3,13.5-1.7,19.9-4c1.4-0.5,2.6-1.3,3.8-3
		C67.9,117.8,34,116.7,0,120c0-0.7,0-1.3,0-2c31.2-3.9,62.5-1.9,93.7-1.7c12,0.1,24.2-0.3,36.3,1.7c0.5,0.6,1.6,0.9,1,2
		c-5.6,2.1-11.5,0.8-17.3,0.9c-4.8,0-8.9,1-13.1,3.5c-6,3.6-13.2,4.4-20.1,4.5c-26.9,0.2-53.6-3.2-80.5-1.9C0,126,0,125,0,124z"/>
	<path fill="#116F8D" d="M0,283c16.3-4.4,32.9-4.6,49.6-3.8c6.8,0.3,12.2,4.8,17.4,8.8c-0.4,2.6-2.6,2.3-4.2,2.4
		c-14.7,1.3-29.4,1.5-44-1.5c-4-0.8-8.2-0.8-12.3-1.5C4.1,287,1.8,286.7,0,285C0,284.3,0,283.7,0,283z"/>
	<path fill="#0D6784" d="M67.1,47c-1.3,1.4-3.1,1-4.7,0.9C54,47.2,46,50.1,37.8,50.1c-10.2,0-19.5,4-29.5,4.8C5.6,55,2.8,54.3,0,54
		c0-1,0-2,0-3c1.3-1.2,3-1.5,4.6-1.4c10.3,0.8,20.1-2.3,28.1-3.7c-2.5,0.8-7.1,1-11.7,1.4c-5.4,0.5-10.9,0-16.4,1
		C3,48.5,1.3,48.2,0,47c0-0.7,0-1.3,0-2c3.2-2.4,7-1.4,10.5-1.8c3.7-0.4,7.5-0.7,11.3-1.2c12.8-1.1,25.4-3.1,38-5.3
		c2.2,0,4.6-0.6,6.3,1.6c0,1.4-1.1,2-2.2,2.4c-6.4,2.1-12.7,4-18.4,5.4c4-0.1,8.8-2.2,13.8-1.7C61.5,46.6,65,44.9,67.1,47z"/>
	<path fill="#136683" d="M99.1,8.1c-4.7,1-9.4,2-14,3c-6.6,2.8-13.8,2.3-20.7,3.4c-2.1,0.1-4.1,0.6-6.2,0.9
		C40.9,14.9,23.8,17,6.6,16.4C4.3,16.3,1.9,16.7,0,15c0-1.3,0-2.7,0-4c19.6-0.8,39.1-0.4,58.7-0.9C71.4,9.8,84.1,8,96.8,6.9
		c1.3-0.4,2.6-1,3.4,0.7C100,8.3,99.6,8.4,99.1,8.1z"/>
	<path fill="#1B7B9C" d="M27,156c-1.3,0.7-2.8,1.1-4.3,1c-7.7-0.4-15.2,0.2-22.7,2c0-4,0-8,0-12c12.2,0,24.3,0,36.5,0
		c2.2,0,4.7-0.4,5.9,2.6c-3.7,0.5-7.1,1-10.5,1.3c-2.1,0.1-3.1,0.9-2.9,3C29.6,155.9,27.5,155.1,27,156z"/>
	<path fill="#0D6784" d="M0,285c11.2,1.9,22.5,2.5,33.7,4.6c6.8,1.3,14,1.2,20.7-0.1c4.2-0.8,8.6,1,12.5-1.5c4.3,2.4,9,2.9,14.1,3.1
		c-0.4,0.5-0.5,0.8-0.6,0.8c-17.1-0.2-34.1,0.3-51.1,2.1c-2.1,0.2-4.3,0.3-6.3-1c0.6-1.2,2.1-0.7,3.3-1.8c-9-0.8-17.7-1.5-26.3-2.2
		C0,287.7,0,286.3,0,285z"/>
	<path fill="#1E83A3" d="M65,71c-5.6,2-11.6,1.5-17.4,2.8c-9.3,2.1-18.7,3.8-28.1,5.5C13.1,80.4,6.4,80.3,0,82c0-2.3,0-4.7,0-7
		c1.7-1.2,3.7-1.4,5.7-1.5c14.6-0.4,29.1-2.4,43.6-3.3C54.5,69.9,59.9,68.8,65,71z"/>
	<path fill="#0E6784" d="M0,62c16.9-2.2,33.9-0.1,50.9-1.2c15-1,30.2-0.7,44.9-4.6c1.4-0.4,2.9-0.6,4.9,0.4
		c-6,2.3-11.9,3.6-17.7,4.2c-20.3,2.2-40.8,2.7-61.2,2C14.5,62.7,7.3,65.3,0,63C0,62.7,0,62.3,0,62z"/>
	<path fill="#0F6987" d="M65,71c-16.9,0.1-33.7,2.2-50.5,3.8C9.7,75.3,4.8,75,0,75c0-0.7,0-1.3,0-2c12-1,24-1.9,36-3
		c14.6-1.4,29.4-1.1,44-3c1.1-0.4,2.2-0.8,2,1.1C76.3,69,70.6,70,65,71z"/>
	<path fill="#106B89" d="M86,182c-28.7,0.8-57.3-1.4-86-1c0-0.7,0-1.3,0-2c9.3,0,18.6,0,27.9,0c11.4,0,22.9,2.3,34.2,0.8
		c9.5-1.2,18.8,0.2,28.2,0.2c1.6,0,3.4-0.5,4.7,1C92.1,182.5,88.9,180.5,86,182z"/>
	<path fill="#1F83A5" d="M0,199c17.8-0.3,35.5,1.4,53.2,1.1c13.3-0.2,26.5-1.9,39.8-1c1.1,0.1,3.9-1.6,3,1.9c-32,0-64,2.3-96,0
		C0,200.3,0,199.7,0,199z"/>
	<path fill="#0F6886" d="M59,14c1.6-1,3.3-1.1,5.1-1c2,0.9,4.1,0.4,6.2,0.3c1.3-0.1,2.7-0.3,2.7,1.7c-24.2,3.6-48.6,3-73,3
		c0-0.7,0-1.3,0-2c1.7-0.9,3.6-0.5,5.4-0.5c17.3,0.6,34.5-1.3,51.7-1C57.8,14.5,58.4,14.4,59,14z"/>
	<path fill="#1E82A3" d="M0,47c11.9-0.8,23.8-1.5,35.7-2.3C24.4,50.5,12.3,51.6,0,51C0,49.7,0,48.3,0,47z"/>
	<path fill="#2894B7" d="M0,26c15-2.2,30.1-0.4,45.1-1.1c3.2-1.7,6.9-0.3,10.1-1.8c1.9,0.4,5.2-1.5,4.8,2.9C52.1,28.2,44,26.8,36,27
		c-1.7,1.4-3.8,0.9-5.7,0.9c-8.1,0.2-16.2-0.4-24.3,0.4C4,29.2,2,29.1,0,29C0,28,0,27,0,26z"/>
	<path fill="#1E81A1" d="M0,137c11.9,0,23.8,0,35.7,0c-8.7,3.2-17.8,1.3-27.2,2.3c3.7,1.7,7.5-0.7,10.5,1.7c-6.4-0.5-12.7,0.7-19,1
		C0,140.3,0,138.7,0,137z"/>
	<path fill="#1E82A3" d="M0,84c9.9-1.5,19.9-2.1,29.7-4.4c2.1-0.5,4.2-0.5,6.4-0.5c-2.9,5.1-8.1,4.6-12.8,5.3c-1.8,0-3.7,0-5.5,0.7
		c-2.9,0.7-5.8,1.2-8.8,1c-3-0.6-5.9,1.3-8.9,0C0,85.3,0,84.7,0,84z"/>
	<path fill="#157796" d="M59,14c-1,1.3-2.4,0.9-3.7,1C36.9,15.8,18.4,16.3,0,16c0-0.3,0-0.7,0-1C19.7,15.7,39.3,13.5,59,14z"/>
	<path fill="#2690B3" d="M22,43c-7.3,1.4-14.6,1.8-22,2c0-1.3,0-2.7,0-4c5.2,2.1,10.7,0.5,16,1c1.5-1.2,3.5,0.2,5-1c1.3,0,2.7,0,4,0
		c0.8-0.6,1.6-0.6,2,0.3c0.3,0.7-0.5,1-1.2,1.1C24.5,42.6,23.2,42.1,22,43z"/>
	<path fill="#0F6886" d="M17,356c-5.6,1.2-11.3,1.1-17,1c0-0.7,0-1.3,0-2c4.5,1.1,8.9,1.3,13.4,0.1C14.6,354.8,16.1,354.7,17,356z"
		/>
	<path fill="#126F8D" d="M0,29c1.5-0.9,3.2-1.1,4.9-1.1c2.7,0,5.7-2,8,1c-4.3,0.3-8.6,0.7-13,1C0,29.7,0,29.3,0,29z"/>
	<path fill="#116D8B" d="M0,86c3-0.3,6-0.7,9-1c0.4,0.9,2.6,0.1,2,2c-3.7,0-7.3,0-11,0C0,86.7,0,86.3,0,86z"/>
	<path fill="#E9ECEF" d="M135,0.9c0-0.3,0-0.6,0-0.9c2.7,0,5.3,0,8,0c0,0.4-0.1,0.8-0.1,1.2C140.2,2.8,137.5,3,135,0.9z"/>
	<path fill="#116D8B" d="M734,310c-8.1,2.7-16.7,3.6-25.1,4.8c-25.9,3.7-52.1,4.7-78.3,4.2c-0.8,0-1.6,0-2.5-0.3
		c8.9-2.8,18.5-3,26.9-7.8c-6.9,1.2-13.9,2.4-20.8,3.5c-13.4,2.1-26.6,4.6-40.2,5.6c-16.1,1.1-32.3,0.6-48.4,0.8
		c-16.5,0.2-33-0.5-49.4-0.3c-7.7,0.1-15.5-0.1-23.2-0.6c-10.1-0.7-19.9-2.8-29.9-4.4c-4.4-0.7-8.8-1.3-13.3-1.5
		c-25.6-1.5-51.2-0.4-76.8-1.3c-12.3-0.4-24.5-3.4-36.8-5.2c-1.3-0.2-2.6-0.6-3.9-0.6c-16.4-0.2-32.9-1.6-49.3-1
		c-2.2-1.3-4.8,0.3-7-1c-1.3,0-2.7,0-4,0c-2.5-1.4-5.5,0.3-8-1c-1.7,0-3.3,0-5,0c-2.9-1.4-6.1,0.3-9-1c-6.3,0-12.7,0-19,0
		c-1.5,1.2-3.5-0.2-5,1c-0.7,2.2,1.1,1.9,2.2,2c2.6,0.1,5.2,0.1,7.8,0.1c5,1.1,10.1,0.2,15.2,0.5c1.9,0.1,3.9-0.5,5.8,0.5
		c1,0,2,0,3,0c1.4,1.1,3.3-0.1,5.4,1.3c-2.3,3.5-5.9,3.7-9.4,3.7c-22.3-0.4-44.5-1.4-66.8-0.2c-3.9,0.2-7.6-0.8-11.2-1.7
		c-8.5-3.1-16.9-6.2-24-12c2-2.7,5-2.2,7.8-2.2c14.9,0,29.9,0.5,44.7,0c13.9-0.4,27.8,0.2,41.8,0c14.1-0.2,28.2-0.8,42.2-0.3
		c17.5,0.7,35,0.3,52.5,0.2c14.9-0.1,29.8,0.5,44.8-0.3c12-0.6,24.2-0.2,36.3,0c15.4,0.3,30.9-0.2,46.3,0.1
		c13.3,0.3,26.5-0.2,39.8-0.1c12.8,0.1,25.5,0.1,38.3,0.1c13.1,0,26.3-0.3,39.4,0.1c12.6,0.5,25.3-0.3,37.9-0.5
		c5.2,0,10.3,0.4,15.5,0.7c2,0.1,4,0.3,5.7-1c6.5-0.3,12.7,1.5,19.1,2.3c3.2,0.4,6.2,1.9,9.2-1.2c1.2-1.2,2.7,0.4,3.7,1.4
		c1.2,1.1,2.4,1.9,4,1.2c0.7-0.3,1-0.9,0.7-1.6c-0.7-1.6-2.3-0.8-3.5-1.2c-0.4-0.2-0.8-0.5-1.2-0.8c12,0.3,23.6,3.4,35.5,4.4
		c1.5,0.1,3,0.2,4.4,0.3c2.2,4.2-1,5.2-3.8,5.5c-8,1.2-16,3.1-24.1,3.7c-1,0.1-2-0.1-2.6,0.3c5.4,0.1,11-1.8,16.7-1.7
		c7,0.1,14-0.1,18.5-6.9c2.2,5.1,6.6,5.6,11.4,5.8c4.5,0.2,8.9,0.4,13.4,0.5C730.9,307.1,733.1,307.1,734,310z"/>
	<path fill="#0F6A88" d="M941,331c0-0.7,0-1.3,0-2c6,2,11.9,4.1,18.4,3.7c2.4-0.2,4.1-0.3,4.5-3.3c0.8-5.1,4.3-8,9.1-8.5
		c7.8-0.8,15.3-2.8,23-4.3c3.9-0.7,7.8-0.4,11.1,1.8c3.4,2.3,6.9,2.1,10.5,1.2c3.9-0.9,7.8-1.3,11.8-1.7c16.6-1.6,33.2,1.2,49.8,0
		c26.2-2,52.5-2.2,78.8-1.9c-1.3,1.5-3.1,0.9-4.7,0.9c-8.8,0-17.7,0.2-26.5,0c-21.3-0.5-42.4,3.1-63.7,2c-3.1-0.2-5.5,1.6-5.8,4.4
		c-0.3,2.4,2,4,4.5,4.6c2.3,0.5,4.5,1.2,6.9,1.1c11.3-0.7,22.6,0.8,33.9,1c2.3,0,4.7,0.1,1.9,3.1c-1.9,2-1.4,4.7-2.4,6.9
		c-3.3,3.9-8,2.9-12,3c-10.3,0.2-20.7-0.4-30.9-0.2c-9.8,0.2-19.6-0.3-29.4,0.1c-15.6,0.7-31.2,0.4-46.9-0.2
		c-20.1-0.8-40.3-0.4-60.5,0.1c-15.7,0.4-31.2-0.8-46.9-0.3c-13,0.4-25.9,1-38.9,0.6c-15.5-0.5-30.9-0.5-46.4-0.4
		c-18.6,0.1-37.3-0.5-55.9,0.2c-10.9,0.4-21.9,0.7-32.9-0.3c-12-1-24,0.1-35.9-0.4c-3.3-0.1-6.7,0.4-10-0.1
		c-1.1-0.2-2.4-0.5-2.7-1.9c-0.3-1.8,1.2-2.1,2.5-2.5c5.8-0.6,11.7-0.2,17.5-0.3c5.7,0,11.5,0.7,17.2-0.5c3-0.5,6.1-0.5,9.1-0.4
		c6.9-0.1,13.9,0.7,20.8-0.6c3.3-0.6,6.6-0.4,10-0.4c4.7,0,9.4,0.6,14-0.5c2.6-0.5,5.2-0.4,7.9-0.4c3.1,0.1,6.2,0.4,9.2-0.5
		c2.2-0.4,4.5-0.4,6.8-0.4c2.2,0.1,4.5,0.1,6.6-0.6c3.1-0.6,6.3-0.4,9.4-0.4c3.6,0,7.2,0.5,10.7-0.4c2.4-0.4,4.7-0.8,6.9-1.9
		c14-1.2,28,0.9,42,0.3c2.3-0.1,4.7,0.2,6.3-2c5.8-1.1,11.3,0.8,17,1.5c3.5,0.4,6.8,1,10.2-0.2c9.8-2,19.8-1.5,29.7-1
		c2.3,0.1,4.6,0.2,6.9,0.1c1.8-0.4,3.6,1.1,5.5,0c3.7,0.7,7.1,2.4,11,2c-1.7,3.9-5.5,2.6-8.2,2.6c-5.8,0-11.6,0.1-17.4-0.1
		c1.1,0.1,2.3,0,3.4,0.1c12.1,0.6,24.1-0.5,35.2-0.8c1.6,0.2,1.1-0.6,1.1,0c0,0.2-0.1,0.2-0.4,0.1C942.5,332.8,941,333,941,331z"/>
	<path fill="#116D8B" d="M734,310c-4.4-3.3-9.5-1.5-14.2-1.7c-4.2-0.2-8.2-1.3-12.6-0.6c-3.7,0.5-1.7-4.5-3.2-6.6
		c2.4-4,6.8-4.3,10.1-5.1c1.2-0.3,0.2-1.2,0.5-0.6c0.7,1.2-5.9,1-8.8-0.3c2-1.6,4.5-1,6.7-1.1c25-0.3,49.9-0.6,74.9-0.8
		c32.8-0.2,65.4,3.8,98.2,2.9c3.1-0.1,5.9,0.9,8.4,2.6c11.8,8.1,23.6,16.1,35.4,24.1c2.2,1.5,4.5,2.7,6.8,4.1
		c-13.9-0.7-26.8-5.9-40-9.3c-6.6-1.7-13.3-2.3-20.1-2.7c-22.6-1.2-45.3-2-67.7-5.8c-5.2-0.9-10.6-1.1-15.8-1.1
		C773.1,308,753.5,307.2,734,310z"/>
	<path fill="#0C6582" d="M67.1,47c-2.1,0-4.1,0-6.2,0c-1.6,0-1.1-1.1-0.9-2c1.8-3.1,5.1-2.8,8-3.2c10.2-1.6,20.5-1.9,30.8-3.2
		c13.2-1.7,26.4-3.4,39.7-4.6c8.3-0.8,16.6-0.4,25-0.4c2.9,0,5,1.5,6.6,3.8c1.5,2.1,3.1,4,6.1,4c-1.5-1.7-4.8-2.4-3-5.6
		c1.3-0.6,2.2-0.1,2.7,1.2c1.4,1.6,3.3,0.8,5,0.9c3.3,1.3,1.7,4.9,3.1,7.1c1.6,8.6,6.8,12.7,15.3,15.3c14.9,4.5,30.1,8,45.1,12.2
		c5.2,1.5,10.8,1.9,16.1,2.1c6.7,0.3,11.8,4.1,17.6,6.2c1,0.4,2.3,1.5,2,3.1c-2.1-0.6-4.2-1.3-6.3-1.9c-8.3,1.2-15.8-1.7-23.2-4.6
		c-4.8-1.6-9.5-3.8-14.6-1.2c-1.3,0-2.5-0.1-3.7-0.4c-1-0.3-1.9-0.9-2.4-1.8c-4.6-3.2-9.5-5.1-15.2-5c-9.3,0.1-18.6,0.2-27.8-1
		c0-2.3,1.8-1.3,2.9-1.5c3-0.4,6.1,0.5,9.1-0.5c1.3,0,2.6,0,3.9,0c-8.6-3.8-15.8-10.8-26.4-9.2c-7.9,1.2-15.9-0.7-23.9-0.8
		c-1.6,0-3.5-0.2-4.1-1.4c-2.6-4.7-7-3.5-11-3.6c-9.5-0.3-18.9,0.4-28.3,1.9c-2,0.3-4.2,0-6.3-0.3c7.1-2.2,14.6-2.7,21.9-3.5
		c3.4-0.4,7-0.8,10.4-0.9c6.6-0.2,13.1-1,19.7,2.7c7.5,4.1,16.6,2.4,24.8,4c1.4,0.3,4.7,1.1,4.4-1.2c-0.3-2.4-0.3-6.5-4.6-6.6
		c-3.3-0.1-6.7,0-10,0c-1.7,0-3.9,0.2-4.4-1.6c-2.1-7.3-7.9-6.5-13.3-6.3c-15.1,0.6-30.1,2.2-45,4.1C93.8,45,80.5,46.3,67.1,47z"/>
	<path fill="#0D6683" d="M274,129c8.4-0.7,16.8-1.3,25.2-2.2c1.8-0.2,5.1,0,3.7-3.8c-1.4-2.2-1-4.6-1-7c-0.6-1.1-0.8-2.1,1-2
		c1.5,4.7,3.6,9.2,4.7,14.1c1,4.3,3.6,6.5,8.7,7.2c10.9,1.4,21.8,1.9,32.7,2.3c8.1,0.4,15.9,3,23.8,4.6c0.2,0.7,0.1,1.1-0.6,1.5
		c-5.4,1.6-10.9,0.6-16.3,0.8c-3.6,0.1-6.9,0.5-9.6,3.2c-2.5,2.6-5.9,2.7-9.3,2.8c-11.3,0.5-22.4,2-33.6,3.6
		c-12.3,1.8-24.5,3.2-37,2.5c-12.1-0.7-24.2-0.1-36.3-0.2c-7-0.6-14.2,1-21.5-1.2c1.1-2.5,3-2.5,4.7-2.6c13.6-0.8,27.2-3.4,40.8-2
		c24.9,2.5,49.1-2.6,73.5-5.5c3.8-0.4,7.6-0.5,11.7-0.8c-7.9-3.6-21.6-4.7-31.6-3.1c-13.3,2.2-26.8,2.9-40.3,3.2
		c-6.1-0.2-12.3,0.1-18.4-0.1c-1.9-0.1-4.5,0.8-5.2-2.3c17.6-1.4,35.3-1.8,52.8-3.9c3.1-0.4,6.2,0,9.4-0.8c2.7-0.7,2.5-1.6,1.2-3.2
		c-2.2-2.7-3.6-5.3-8.6-4.3c-7.7,1.6-15.8-0.5-23.7,1.2C273.4,131.3,273.6,130,274,129z"/>
	<path fill="#0E6785" d="M391.3,172.9c-0.5,0.4-0.9,0.8-1.4,1.2c-2.5-4.7-7.2-3.5-10.7-2.8c-7.2,1.5-14.3,0.4-21.3-0.4
		c-7.6-0.9-15.1-2.1-22.8-1.9c-1.5,0-3,0-4.3-1.4c8-3.3,16-1.3,23.7-0.1c9.6,1.5,19.2,1.4,28.8,1.4c2.7,0,3.4-0.7,2.4-3.7
		c-1.8-5.1-4.8-6.4-9.7-4.6c-1.5,0.6-3.3,0.2-5,0.2c-22.5,0-45,0.2-67.5,0c-16.5-0.1-32.9,1.5-49.4,1.1c-9.5-0.2-18.7-1.6-28.1-2.7
		c6.5-0.1,13-0.2,19.6,0.3c10.6,0.8,21.4,1,32,0c11.3-1,22.6-0.7,33.9-0.6c13.3,0.1,26.5-1.8,39.7-2.2c0.6,0,1.1-0.6,1.7-0.9
		c1.3-1.4,3-1.3,4.7-1.5c3.4,0.5,7.3-1,10.8,2.1c-4.7,2.5-9.4,2.3-14.1,2.4c8.7-0.2,17.4-1.9,26.1-2.2c-1.8-0.6-3.6,0.1-5.3,0.2
		c-2,0.2-4,0.7-5.4-1.4c1.6-2.8,4.8-2.2,7.2-3.4c1.6-0.6,4.4,0,3.6-3.2c0-0.5,0.2-0.9,0.4-1.2c0.4-0.1,0.9-0.1,1.3,0.1
		c2.4,1.1,3.6,3,3.7,5.5C386.5,160.2,388.4,166.7,391.3,172.9z"/>
	<path fill="#1B7C9C" d="M382.3,147.8c-0.4,0.1-0.9,0.1-1.3,0.2c-4.8,4-10.3,5.3-16.6,5.6c-17.8,1-35.6,0.8-53.4,0.8
		c-2.5,0-5,0.5-7.1-1.5c6.9-2.3,14.3-1.5,21.4-2.9c4.9-1,9.8-1.2,14.8-1c2.3,0.1,4.5-0.6,5.7-2.5c2-3.2,4.9-3.5,8.2-3.5
		c6.3,0.1,12.6,0,18.9,0c2.4,1,3.9,3.7,7,3.3C381,146.4,381.8,146.9,382.3,147.8z"/>
	<path fill="#0D6683" d="M91,16c4-2.1,8.5-1,12.7-1.7c5.3-0.9,10.3-2.4,16.7-4c-2.7-0.3-4.1-0.4-5.9-0.6c2-1.3,4.2,0.1,5.5-1.7
		c3.7-2.3,7.9-2.1,12-2.4c5,0.2,10.1-0.3,15.1,0.2c2.5,3.5,5.9,4.5,10.1,4c3.5-0.4,7.2-0.1,10.6,1.5c-2,1.4-4.2,0.7-6.3,0.8
		c-17.4,0.1-34.7-0.8-51.8,4.6C104.4,18.3,98,17,92,17C91.1,17.3,90.8,16.9,91,16z"/>
	<path fill="#106886" d="M303,114c-0.8,0.4-1,1.2-1,2c-1-3.4-3.8-3.5-6.4-2.9c-6.1,1.4-12.8,0.8-17.9,6.1c-1.6,1.6-5.3,1.5-8.1,1.7
		c-19.5,1.3-39.1,1.1-58.6,1.1c9.7-1.2,19.2-3.4,29-3c2.4,1.4,4.9,0.2,7.3-0.1c8.4-0.9,16.9-1.2,25.2-2.8c1.5-0.3,3.1-0.4,4.3-1.2
		c5.6-3.8,12.1-4.3,18.5-5.4c1.6-0.3,3.3-0.3,4.7-1.4c1.6-1.1,0.9-2.8,1.2-4.2C302.6,107,303,110.5,303,114z"/>
	<path fill="#0E6582" d="M705.9,294.9c3.3,0,6.6,0,9.9,0c0.1,0.2,0.2,0.5,0.3,0.7c-4,1.8-8,3.5-12.1,5.3c-1.6,5.4-5.6,7.7-10.8,7.7
		c-9.1-0.1-18.1,2.2-27.2,0.9c9.7-2.5,19.5-4.2,29.4-5.5c2.8-0.4,3.8-1.7,3.5-4.3C700.7,297.4,702.8,295.5,705.9,294.9z"/>
	<path fill="#176B89" d="M184,45c-1.9-2-0.9-5.2-3.1-7.1c-0.5-9.4-3.6-12.7-14.9-15.9c-6.3-1.1-12.7-0.1-19.1-0.6
		c-1.3-0.1-3.5,1.3-3.9-1.4c8.7,0,17.4,0,26.1-0.1c3.9,0,6.4,3.2,9.9,4.1c3,0.1,0.4,3.2,2.2,4C182.1,33.6,183.1,39.3,184,45z"/>
	<path fill="#176B89" d="M179.1,23c-0.9-3.6-4.4-5.2-6.5-7.8c-0.9-1.2-2.9-1.9-1.7-4c5.7,0.3,6.6,5.6,9.1,9.1
		C180.4,21.4,181.3,22.7,179.1,23z"/>
	<path fill="#477E9A" d="M147.2,5.8c-4.9,2.3-10.1,0.7-15.2,1.1c-1.1-3.4,1.6-2.7,3.3-3c1.9-0.3,3.7,0.9,5.7,0.6c0,0,0-0.3,0-0.5
		c0-0.2-0.1-0.3-0.2-0.5c0-1.1,0.8-1.4,1.7-1.6c0.2,0,0.4-0.1,0.6-0.1C144.5,3.2,145.8,4.5,147.2,5.8z"/>
	<path fill="#35728E" d="M379.9,146.3c-3.8,2.1-5.2-1.1-7-3.3c0-0.3,0-0.5,0-0.8C375.8,142.7,377.6,145,379.9,146.3z"/>
	<path fill="#65879F" d="M135,0.9c2.6,0.1,5.3,0.2,7.9,0.3c0.1,0.2,0.1,0.4,0.2,0.7c-0.1,0.2-0.2,0.3-0.3,0.4
		c-3.3,0.5-6.7,2.4-9.9-0.4C133.6,1.6,134.3,1.2,135,0.9z"/>
	<path fill="#276C88" d="M179.1,23c1-0.7,0.8-1.7,0.9-2.7c1.7,2.4,1.1,5.1,1.1,7.7c-1.8-0.7-0.5-3.2-2.2-4
		C179,23.6,179.1,23.3,179.1,23z"/>
	<path fill="#106987" d="M655,339c-0.9,0.3-2.4,0.5-0.9,1.7c0.8,0.6,2.3,0.4,3.4,0.3c12.2-1.1,24.4,0.9,36.7-0.6
		c5.5-0.6,11.2,1.7,17.1,1c9-1.2,18.2,0.3,27.3-0.1c12.4-0.5,24.9,0.2,37.3,0.1c9-0.1,18,0.8,27-0.2c6.8-0.7,13.7,0.2,20.6,0
		c7.6-0.2,15.3-0.1,22.8,0.1c17.5,0.6,35-1.3,52.6,0.1c6.6,0.5,13.6,0.7,20.5-0.1c9.9-1.1,20.1-0.3,30.2-0.2c12.1,0,24.2,0,36.3,0.1
		c7.9,0.1,15.9,0.9,23.8,0.6c4-0.1,8.2-0.4,12.2-0.3c8.8,0.2,17.5-1.6,26.2-0.2c5.9,0.9,11.7-0.8,17.6,0.2
		c5.5,0.9,11.3,0.4,16.9,0.2c6.5-0.3,13.1,0.4,19.4-1.7c4.5,7.3,11.7,5.1,18,4.6c3.6-0.2,7.1-0.9,10.8,0.1c1.5,0.4,3.4,0.6,4.9,0.1
		c6.4-2.2,10.7,1.2,15.1,5.2c-2.4,1.8-4.5,0.5-6.5,0.4c-13.7-0.7-27.5,0.6-41.2,0c-8-0.4-16.1,0.6-24.1-0.5c-3-0.4-6.7,0.6-10.1,0.5
		c-18.1-0.2-36.2-0.1-54.3,0.2c-14.6,0.3-29.2-0.4-43.8-0.5c-12.4,0-24.7,0.3-37.1,0.3c-15.1,0-30.2-0.5-45.3-0.1
		c-21,0.5-42-1.1-63,0.4c-3.9,0.3-8.1,0.1-12.2-0.9c-3.4-0.9-6.8,1-10.4,0.9c-13.3-0.4-26.7,0.7-39.9-0.1
		c-16.6-1.1-33.1,0.6-49.7-0.4c-11.1-0.7-22.2,0.2-33.3,0.3c-9.9,0-19.9-0.3-29.8-0.3c-8.1,0-16.3-0.2-24.4,0.3
		c-6.8,0.4-13.6-0.3-20.4-0.1c-9.3,0.2-18.5,0.7-27.8,0.2c-6.2-0.3-12.4,0.1-18.6,0.4c-1.1,0.1-1.7-0.9-2.2-1.8c2.5-1.3,5.5,0.4,8-1
		c1,0,2,0,3,0c1.8-1,1.8-2,0-3c-10,0-20,0.4-29.9-0.1c-22.4-1.2-44.8-0.5-67.2-1.1c-10.9-0.3-21.7-1.8-32.7-1.9
		c-0.7,0-1.5-0.6-2.2-0.9c5.6-2.7,11.6-2.5,17.5-2.5c34.6-0.1,69.2-0.1,103.8,0c5.8,0,11.6,0,17.4-1.3c2.8,0.6,5.5,0.1,8.2-0.7
		c2.1-0.5,4.1-1,6.2,0c0.7,0.5,1.3,1.1,1.2,2.1c-0.2,0.4-0.9,0.7-1,1c-0.1,0.5,0.5,0.2,0.7,0.1c1.8-1,3.8-1.1,5.8-1.1
		c18.5,0.1,36.9-1.2,55.4-1.5C652.7,337.1,654.7,336.4,655,339z"/>
	<path fill="#0F6886" d="M724,356c-1.5,1.6-3.4,1-5.2,1c-15.3,0.1-30.6,0-45.9,0c-21.2,0-42.4,0.6-63.5-0.2
		c-13.2-0.5-26.4,0.3-39.6-0.3c-10.5-0.5-21.2,0.8-31.8,0.3c-7-0.3-14.2-0.8-21.1-0.4c-9.3,0.5-18.6,0.5-27.9,0.5
		c-11.1,0-22.1-0.6-33.2-0.9c-5.1-0.1-10.2,1.4-15.4,1c-12.4-0.7-24.8-0.1-37.2-0.6c-6.2-0.3-12.9-0.4-19.3,1.1
		c-2.6,0.6-4.8-0.7-7.3-0.6c-6.9,0.2-13.9,0.1-20.8,0.1c-26.8,0-53.7,0.1-80.5,0c-10.8-0.1-21.6,0.8-32.4-1c4.6-2.7,9.3,1,14-0.2
		c5.5-1.4,11.1-0.4,16.6-0.7c5.9-0.3,11.8,0.7,17.7,0.3c6.6-0.4,13.2-0.8,19.8-0.3c10.6,0.8,21.2-0.1,31.8,0.4
		c6.7,0.3,13.7,0.1,20.5-0.4c6-0.4,12.1,0.4,18.1,0.4c4.7,0,9.4-0.6,14.2-0.6c11.2-0.1,22.5,1.1,33.7,0.7
		c10.8-0.4,21.7-1.2,32.4-0.4c10.2,0.7,20.3,0.2,30.4,0.4c7.4,0.2,15,0.4,22.6-0.1c11.6-0.8,23.3-0.9,35,0.3
		c6.5,0.6,13.1-0.7,19.7-0.7c17.6-0.1,35.2,0.2,52.9,0.8c7.5,0.3,15-0.8,22.5-0.8c18.1,0,36.2,0.5,54.3,0
		C707.3,354.9,715.6,355.7,724,356z"/>
	<path fill="#0F6886" d="M1087,356c-12.9,1.6-25.8,0.3-38.8,0.6c-32.9,0.6-65.7,0.3-98.6,0.4c-19.9,0.1-39.8,0-59.7,0
		c-10.3,0-20.5,0-30.8,0c-15.6,0-31.1,0-46.7,0c-7.9,0-15.8,0-23.8,0c-1.6,0-3.4,0.6-4.7-1c10.8-0.8,21.5,0,32.3-0.4
		c7.3-0.2,14.6,0.3,21.9-0.4c7.4-0.7,15,0.2,22.5,0.6c2.9,0.2,5.8-0.3,8.8-0.4c15.1-0.2,30.2-0.1,45.3,0.1
		c11.2,0.1,22.5-0.2,33.7-0.1c7.8,0,15.8,0.4,23.5,0c7.5-0.4,14.9,0.9,22.5-0.2c5.9-0.9,12.1,0.2,18.1,0.4c2.3,0.1,4.7,0.5,7,0.2
		c12.1-1.4,24.3-1.5,36.4-0.6c7,0.5,14-1.6,21.1,0.5C1080.1,356.7,1083.7,353.4,1087,356z"/>
	<path fill="#0F6886" d="M243,356c-3.4,2.8-7.4,0.5-10.9,0.5c-4.4,0-8.8,0.4-13.2,0.5c-10.2,0.2-20.3,0.2-30.5,0
		c-21.2-0.3-42.4,0-63.6,0.3c-7.5,0.1-15.1-1.5-22.5-1c-10.6,0.7-21.2,0.7-31.8,0.4c-7.9-0.2-15.7,0.5-23.6-0.7c1.5-1.6,3.4-1,5.2-1
		c11,0.1,21.9,0.3,32.9,0.3c13.5,0,27.1-1,40.6-0.1c10.8,0.7,21.6,0,32.3,0c12.5,0.1,25-0.1,37.5,0.1c9.1,0.2,18.2,0.1,27.3-0.3
		C229.5,354.8,236.3,354.7,243,356z"/>
	<path fill="#0F6886" d="M784,356c-16.7,2.1-33.4,0.5-50.2,1c-3.3,0.1-6.5-1.6-9.8-1c1.5-1.6,3.4-1,5.2-1
		c12.6,0.1,25.3,0.4,37.9,0.6c4.1,0,8.2-0.4,12.3-0.6C780.9,355,782.7,354.5,784,356z"/>
	<path fill="#0F6886" d="M47,356c-3.4,2.1-7.2,1.2-10.6,0.8c-6.5-0.6-13,1-19.4-0.8C27,354.6,37,355,47,356z"/>
	<path fill="#0F6886" d="M565,348c-2.5,2-5.3,0.6-8,1c-6,0-12,0-18,0c-4-0.5-8.1,1.1-12-1C539.7,348,552.3,348,565,348z"/>
	<path fill="#106B89" d="M153,286c-1.1,1.4-2.7,1-4.2,1c-15.2,0.2-30.2,2.4-45.3,3.8c-4.4,0.4-8.9,0.1-13.5-0.4
		c4.1-1,8.3-2,13.7-3.4c-4.4-1.6-7.6-0.7-10.7-1c1.3-1.5,3.1-1,4.7-1c7.4-0.1,14.9,0,22.3,0c-2.7,2.3-6.2,0-9.7,1.8
		c12.1,0.8,23.3-2.1,34.7-1.8C147.6,286.2,150.6,283.7,153,286z"/>
	<path fill="#106B89" d="M129,284c-2.8,2-6,0.6-9,1C122.8,283,126,284.4,129,284z"/>
	<path fill="#116F8D" d="M153,286c-2.7-0.5-5.5,1-8-1c5.4-0.7,10.8-1.8,16.2-1.9c16.5-0.3,33-0.6,49.5,0c50.8,2,101.6,0.7,152.3,0.6
		c18.8,0,37.6-0.1,56.4-0.9c15.8-0.7,31.6-2.9,47.3-5.4c16.8-2.6,33.8-2,50.7-0.7c7.1,0.5,14.2,0.9,21.4,1.1
		c12.7,0.4,25.3,0.2,38,0.1c18.5-0.2,36.5,3.5,54.5,7.3c5.9,1.3,11.5,3.8,15.9,8.5c-5.5-0.7-11-1.5-16.5-2.1
		c-8.9-1-17.8-2.6-26.6-2.6c-11.3,0-22.6-1.5-33.9-1.2c-16.6,0.4-33.3,0.7-49.8,1.3c-12.3,0.5-24.6-0.3-36.9,0.8
		c-17.1,1.6-34.3,0.5-51.4,0.8c-16.1,0.3-32.3-0.5-48.3-1.2c-23.3-1.1-46.6-0.1-69.9-0.7c-39.6-1.2-79.2-1.2-118.8-0.8
		c-8.6,0.1-17.6-0.2-26,2.8c-6.4,3-12.9,0.9-19.3,0.6c-1.1-0.1-1.9-1.2-1.6-2.6c2.2-1.4,4.6-0.9,7-1c1.1-1.4,2.9-0.6,5.2-1.9
		c-2.5,0.9-3.9,1.2-5.2-0.1C154.3,286,153.7,286,153,286z"/>
	<path fill="#116E8C" d="M148,289c3,3.9,7.2,1,10.8,1.8c3.2,0.8,6.8,0.2,10.2,0.2c0,0.8,0.2,1.6,1,2c2.7,0.8,5.3,0.8,8,0
		c1,0,2,0,3,0c8.4-1.1,16.8-0.2,25.2-0.5c1.9-0.1,4,0.5,5.8-0.5c15.8,0.7,31.5-0.8,47.3-1.3c6.6-0.2,13.1,0.6,19.7,0.3
		c1.7,1,3.6,0.5,5.4,0.5c19.8,0,39.5,0,59.3,0c1.8,0,3.7-0.5,5.4,0.5c1.3,0,2.7,0,4,0c2.7,1,5.6,0.5,8.3,0.5
		c13.3,0.1,26.5,0,39.8,0.1c1.6,0,3.3-0.4,4.9,0.5c1,0,2,0,3,0c2.2,1.3,4.8-0.3,7,1c0.7,0,1.3,0,2,0c6.9,1.2,13.8,0.4,20.7,0.4
		c6.1,0,12.2,0.7,18.3-0.4c3.3,0,6.7,0,10,0c9.1-1.1,18.2-0.2,27.2-0.5c6.9-0.3,13.9,0.7,20.8-0.5c5,0,10,0,15,0
		c4.6-1.4,9.4,0.4,14-1c1.3,0,2.7,0,4,0c3.2-1.4,6.8,0.4,10-1c0.3,0,0.7,0,1,0c9-0.8,18-0.8,27,0c2,0.3,3.9,1.4,6,1
		c4.2,1.4,8.8-0.4,13,1c1.7,0,3.3,0,5,0c2.5,1.4,5.5-0.3,8,1c0.3,0,0.7,0,1,0c1.8,1.3,4.2-0.2,6,1c0.7,0,1.3,0,2,0
		c-0.8,1.7-2.2,2.6-4,2.4c-12.1-1.1-24.2-0.7-36.3-0.3c-15.9,0.6-31.9,0.3-47.8-0.1c-13.5-0.4-27.1,0.1-40.6-0.4
		c-11.6-0.5-23.4-0.1-35.2,0.3c-9.6,0.3-19.5-0.1-29.2-0.1c-8.1-0.1-16.3,0.3-24.4,0c-13.2-0.5-26.5,1.1-39.7-0.3
		c-5.7-0.6-11.3,1.1-17.1,0.6c-8.3-0.7-16.7-0.9-24.9-0.5c-10.5,0.6-21-0.1-31.4,0.2c-5.8,0.2-12,2-17.8-0.8c-2.1-1-4.2,0.8-6.3,0.8
		c-13,0.5-26-1.9-38.9,1.3c-4-3-8.7-1.2-12.9-1.1c-11.2,0.2-22.4-0.7-33.7-0.2c-7.8,0.4-16.1-0.4-24-0.3c-9.6,0.1-19.4-1-28.9,1.3
		c-7.3-1.8-14.7-3.6-22.8-5.7C124,291.2,136,290.1,148,289z"/>
	<path fill="#137190" d="M65.9,260.7c2.1-2.4,3.9-1.7,5.4-1.7c10.8-0.1,21.7-0.1,32.5,0c15,0.1,29.8-1.1,44.5-3.8
		c3.4-0.6,7-0.2,10.5-0.2c14.9-0.1,29.7-1.8,44.5-3.8c4.7-0.6,9.6-1,14.4-1.1c28.6-0.5,57.3-2.4,85.8-0.9
		c23.8,1.2,47.6,0.3,71.4,0.8c3.8,0.1,7.4,1.7,11.2,1.5c-7.5,0.2-14.9,1.3-22.2,1.4c-21,0.3-42-0.4-63,0.3
		c-18.9,0.6-37.7,2.6-56.5,3.7c-7.8,0.5-15.7,0.3-23.5,0.1c-13.8-0.3-27.3,2.5-40.9,4.4c-20.1,2.8-39.8,9.2-60.5,7.6
		c-12.5-0.9-25.1-2.3-37.1-6.2C77.1,261.1,71.9,261.3,65.9,260.7z"/>
	<path fill="#116D8B" d="M349,292c-21.6,0-43.2,0-64.8,0c-1.7,0-3.7,0.7-5.2-1c21.4,0,42.9,0,64.3,0C345.2,291,347.4,290.3,349,292z
		"/>
	<path fill="#116C8A" d="M417.2,249.3c5.9-0.1,11.7-1.1,17.5-2.2c1.7-0.3,4.5-0.7,4.6,1.4c0.2,2.5-2.6,2.4-4.5,2.4
		C428.9,251,423,251.3,417.2,249.3z"/>
	<path fill="#116D8B" d="M406,293c-15.9,0-31.9,0-47.8,0c-1.7,0-3.7,0.7-5.2-1c15.9,0,31.9,0,47.8,0C402.6,292,404.5,291.4,406,293z
		"/>
	<path fill="#116D8B" d="M515,293c-1.5,1.6-3.4,1-5.2,1c-14.3,0.1-28.6,0-42.8,0c1.5-1.6,3.4-1,5.2-1C486.4,293,500.7,293,515,293z"
		/>
	<path fill="#116D8B" d="M457,294c-0.6,0.3-1.1,0.9-1.7,0.9c-11.9,0.1-23.8,0.1-35.7,0c-0.6,0-1.1-0.6-1.7-0.9
		C431,294,444,294,457,294z"/>
	<path fill="#116C8A" d="M212,292c-1.6,1.7-3.8,0.9-5.7,1c-8.4,0.1-16.9,0-25.4,0c1.6-1.7,3.8-0.9,5.7-1
		C195.1,292,203.5,292,212,292z"/>
	<path fill="#116C8A" d="M388,248c4-0.1,8.1,0.4,12-1c3.7,3.8,8.6,1,12.7,2.6C404.4,250.3,396.2,249.5,388,248z"/>
	<path fill="#116D8B" d="M586,291c-9,0-18,0-27,0c5.7-2.2,11.6-0.6,17.5-0.9C579.6,290,583,289,586,291z"/>
	<path fill="#116D8B" d="M544,292c-4.5,2.1-9.3,0.5-14,1C534.5,290.9,539.3,292.5,544,292z"/>
	<path fill="#116D8B" d="M605,293c-4.3-0.6-8.8,1.2-13-1C596.3,292.6,600.8,290.8,605,293z"/>
	<path fill="#116D8B" d="M558,291c-3.2,2-6.7,0.5-10,1C551.2,290,554.7,291.5,558,291z"/>
	<path fill="#116C8A" d="M178,293c-2.7,1.5-5.3,1.5-8,0C172.7,293,175.3,293,178,293z"/>
	<path fill="#116D8B" d="M618,294c-2.7-0.4-5.5,1-8-1C612.7,293.4,615.5,292,618,294z"/>
	<path fill="#116C8A" d="M379,247c2.3,0.4,4.9-0.9,7,1C383.7,247.6,381.1,248.9,379,247z"/>
	<path fill="#116D8B" d="M416,294c-2.3-0.4-4.9,0.9-7-1C411.3,293.4,413.9,292.1,416,294z"/>
	<path fill="#116D8B" d="M625,295c-2-0.3-4.2,0.8-6-1C621,294.3,623.2,293.2,625,295z"/>
	<path fill="#0F6B89" d="M576,338c-4.9,1.9-10,2.1-15.1,2c-16-0.1-31.9,0-47.9,0c-17.1,0-34.1,0.2-51.2-0.1
		c-8.7-0.2-17.2,1.3-25.8,1.1c-15.1,0.4-30.1-1.1-45.1-2.9c-5.6-0.7-11.3,0-17-0.2c-9.4-0.4-18.4-1.6-26.1-8
		c-6.5-5.4-15-5.3-22.8-5.8c-13.9-0.8-28-1-42,0c-14.5,1.1-28.9,0.4-43.4,0.7c-4.4,0.1-8.7-0.9-13.1-1.9c2.9-1.4,6.1-0.3,9.1-0.7
		c10.2-1.3,20.5-2.3,30.7-2.2c16.8,0.2,33.6-0.7,50.4-1.4c18.9-0.7,37.8-1.3,56.7-2.1c10.6-0.4,21.3-1,31.9-0.6
		c18.2,0.7,36.4,1.5,54.2,6c12.2,3.1,24.7,3.6,37.2,4.8c16,1.6,32,2.7,48,4c11.2,0.9,22.2-0.4,33.2-2.4c17-3,33.9-6.1,51.3-5.5
		c18.5,0.6,36.9-1,55.4-1.2c9.2-0.1,18.4-1.8,27.6-2.8c2.1,2.3,4.9,1.3,7.4,1.6c2.7,0.3,5.6-0.8,7.8,1.7c-0.8,2.2-2.8,2.1-4.6,2.2
		c-2.7,0.2-5.3,0.1-8,0.1c-22-0.4-43.9,1-65.9,1.2c-19.9,0.2-39.2,5.3-58.6,9.1C585.3,335.7,580.9,337.7,576,338z"/>
	<path fill="#106B89" d="M727,322c-3.9,0-7.8-0.1-11.7,0c-2.2,0.1-3.5-0.6-3.3-3c0.3,0,0.7,0,1,0c1.5-1.2,3.5,0.2,5-1
		c9.4-0.5,18.5-3.3,27.9-4.5c16.4-2.1,32.7-1.6,49.2-0.7c14.6,0.8,28.9,3.4,43.4,4.6c19.1,1.6,38.5,0.2,57.3,4.7
		c6.2,1.5,12.4,3.3,18.3,6c0.6,0.7,0.6,1.3,0,2c-7.3,1.2-14.7-0.3-22-0.2c-5,0.1-9.9,1.1-15,1.2c-7.6,0.3-15.1-1.5-22.6-2.5
		c-2.5-0.3-4.9,0-7.4-0.5c-5.2-0.9-10.4-1.9-15.7-1.6c-15.3-0.9-30.5-2-45.8-2.6c-17-0.6-34-0.1-51-0.3
		C732,323.5,729.2,324.1,727,322z"/>
	<path fill="#106B89" d="M153,316c1.5,0,2.9,0,3-2c8.1,2.2,15.6,6.6,24.2,7.3c9.1,0.7,18.1,2,27.1,2.7c17.1,1.4,34.3,2.6,51.4,4
		c4.7,0.4,9.2-0.9,13.9-1c17-0.1,34-0.3,51,0.1c7.6,0.2,15.3,1.2,22,5.3c1.6,0.9,4,2.3,3.4,4.3c-0.6,1.6-3.2,1.4-5,1.3
		c-11.4-1-22.8-0.9-34.1-2.7c-6.5-1-13.2-0.6-19.8-1.1c-24.4-1.7-48.9-1.6-73.3-1c-9.9,0.2-19.8,1.1-29.7,0
		c-3.5-0.4-7.2,0.9-10.8,0.9c-3.1-0.1-5.6-1.3-5.6-4.4c-0.1-8.1-6.6-9.3-11.9-12C156.8,316.8,154.5,317.8,153,316z"/>
	<path fill="#116C8A" d="M158,310c15.1,0,30.2,0,45.2,0c11.2,0,22.5-0.2,33.7,0.8c2.3,0.2,4.9-0.6,7.3-2.1c-1.3-1.3-3.5,0-4.3-1.7
		c21.7,1.9,43.4,1.9,65.2,2.2c11,0.1,21.9,3.1,33.1,5.3c-5.2,1.2-10,1.6-14.9,1.6c-15.6,0-31.3,0.9-46.8,0.6
		c-17.4-0.4-34.7,1.9-52.1,1.5c-3.1-0.1-7.4-0.9-9.4,3.5c-0.1,0.3-1.3,0.5-1.9,0.3c-17.7-4-36.6-1.8-53.3-10.5
		C159.3,311.1,158.7,310.5,158,310z"/>
	<path fill="#106B89" d="M473,320c19.9-1.2,39.8-1.1,59.8-0.7c16.3,0.4,32.7-0.3,49-0.2c4,0,8.2-0.9,12.2,0.9
		c-4.1,2.1-8.7,1.3-13.1,1.8c-21.3,2.5-42.7,2.2-64.2,2.2c-14.3,0-28.4-2.3-42.6-3.2C473.8,320.8,473.4,320.3,473,320z"/>
	<path fill="#106B89" d="M166.6,332.9c-8-1.9-16-0.7-24.1-0.8c-3.9-0.1-7.2,0.3-6.7-5.4c0.3-3.7-3.6-4.8-6.7-7.6
		c11.8,0.1,22.7-1,32.8,4.5C166.8,326.1,167.3,327.1,166.6,332.9z"/>
	<path fill="#106B89" d="M83.1,318c5.3,0,11.4-1.7,15.7,0.4c7.8,3.9,15.6,1.5,23.3,2.9c7.1,1.2,9.6,4,10.1,8.9
		c0.3,2.8-0.9,2.9-3,2.9c-3.6-0.1-7.3-0.3-11,0c-4.6,0.4-8.1-0.1-8.5-6c-0.1-2.3-2.7-3.2-4.7-3.9C98,320.6,90.8,318.8,83.1,318z"/>
	<path fill="#106A87" d="M589,323.8c-14.6,1.4-28.9,8.7-44.6,2.4C559.7,325.5,574.4,324.7,589,323.8z"/>
	<path fill="#106987" d="M941,331c1.3,1.8,3.5,0.4,5.1,1.4c-3.4,2.6-30.2,3.3-44.2,0.6c4.9,0,9.7,0.1,14.6,0c4.6-0.1,9.2-0.5,13.5-2
		C933.7,331,937.3,331,941,331z"/>
	<path fill="#0F6886" d="M526,348c-20.3,0-40.6,0-60.8,0c-1.7,0-3.7,0.7-5.2-1c20.3,0,40.6,0,60.8,0C522.6,347,524.5,346.4,526,348z
		"/>
	<path fill="#106B89" d="M109,315c12.3,0,24.6,0,36.8,0c1.7,0,3.7-0.7,5.2,1c-12.3,0-24.6,0-36.8,0C112.4,316,110.5,316.6,109,315z"
		/>
	<path fill="#116C8A" d="M237,307c-5.5,0-10.9,0-16.4,0c-1.6,0-3.4,0.5-4.6-1c5.5,0,10.9,0,16.4,0C233.9,306,235.7,305.5,237,307z"
		/>
	<path fill="#0F6886" d="M366,341c-5.7,0-11.3,0-17,0C354.7,339.4,360.3,339.4,366,341z"/>
	<path fill="#0F6886" d="M386,342c-5.7-0.6-11.4,1.2-17-1C374.7,341.6,380.4,339.8,386,342z"/>
	<path fill="#0F6886" d="M427,345c-5-0.6-10.1,1.2-15-1C417,344.6,422.1,342.8,427,345z"/>
	<path fill="#0F6886" d="M443,346c-5-0.6-10.1,1.2-15-1C433,345.6,438.1,343.8,443,346z"/>
	<path fill="#0F6886" d="M458,347c-4.3-0.6-8.8,1.2-13-1C449.3,346.6,453.8,344.8,458,347z"/>
	<path fill="#0F6886" d="M401,343c-4.3-0.6-8.8,1.2-13-1C392.3,342.6,396.8,340.8,401,343z"/>
	<path fill="#0F6886" d="M335,341c-3.3-0.5-6.8,1-10-1C328.3,340.5,331.8,339,335,341z"/>
	<path fill="#106B89" d="M155,286c1.6,0,3.3,0,5.4,0c-1.6,2.3-3.6,1.9-5.4,2C155,287.3,155,286.7,155,286z"/>
	<path fill="#0F6886" d="M410,344c-3-0.4-6.2,1-9-1C404,343.4,407.2,342,410,344z"/>
	<path fill="#116C8A" d="M230,303c3,0.4,6.2-1,9,1C236,303.6,232.8,305,230,303z"/>
	<path fill="#0F6A88" d="M914,330c0-0.7,0-1.3,0-2c1.7,0.3,3.3,0.7,5,1C917.6,330.7,915.7,329.8,914,330z"/>
	<path fill="#116C8A" d="M244,304c2.7,0.4,5.5-1,8,1C249.3,304.6,246.5,306,244,304z"/>
	<path fill="#116C8A" d="M256,305c2.3,0.4,4.9-0.9,7,1C260.7,305.6,258.1,306.9,256,305z"/>
	<path fill="#0F6886" d="M568,345c1.1,0.2,2.5,0.1,2.3,1.7c-0.1,1.1-1.3,1.2-2.3,1.3C568.6,347,568.6,346,568,345z"/>
	<path fill="#116C8A" d="M206,304c1.4-1.7,3.3-0.8,5-1C209.6,304.7,207.7,303.8,206,304z"/>
	<path fill="#0F6B89" d="M718,318c-1.4,1.7-3.3,0.8-5,1C714.4,317.3,716.3,318.2,718,318z"/>
	<path fill="#1B7C9C" d="M268,143c14.2-0.8,28.4-0.9,42.4-3.9c9-1.9,17.6,0.6,26.3,2.3c1.1,0.2,2.3,0.4,3.4,0.6
		c1.3,0.3,3.5-0.7,3.4,1.6c0,1.8-2,2.3-3.4,2.2c-7.3-0.3-14.5,1.2-21.7,2.1c-12,1.5-23.9,3.2-35.9,4.6c-4.8,0.5-9.7,0.8-14.4,0.3
		c-15.8-1.5-31.4-1.4-47.1,1c-3.6,0.5-7.3,0.1-10.9,1.1c6.6,0,13.2,0,19.7,0c0,1.7-1.2,1.8-2.4,1.9c-9.8,0.8-19.6,0.5-29.3,1.2
		c-10.1-1.6-20.2-1.2-30.2-0.5c-14,1.1-28,1.9-41.4,2.9c2.4,0.8,5.6-1.7,8.5,0.4c-0.7,2.9-3.1,2-4.9,2c-13.1-0.2-26.1,1.2-39.2,0.5
		c-2.3-0.1-4.6,0.3-6.9,0.5c-1.8,0.2-3.7,0.6-5.1-1c-3.3-3.8-8.1-1.7-12-2.9c-2.6-0.8-5.5,0.9-8-1.1c14.8-1,29.7-2,44.5-3
		c1.9-0.1,4-0.6,4.9-2.1c2-3.2,5.3-3.6,8.2-3.7c5.5-0.3,10.8-1.2,16.3-1.3c13.9-0.4,27.8-1,41.8-1c3.8,0,7.5-1.2,11.3-0.9
		c1.1-1,2.4-1,3.8-1c13.6,0.5,27.2-1.1,40.7-2.3c11-0.9,21.8,0.6,32.7-0.2C264.8,143.4,266.5,143.9,268,143z"/>
	<path fill="#167998" d="M388,179c-5.7,6.3-13.6,5.9-20.8,5.6c-6.1-0.2-12.2-0.6-18.4-0.6c-13.5-0.1-27,0.6-40.4-0.2
		c-15.1-0.9-30.3,0.1-45.3-1c-13.5-1-26.9-0.3-40.3-0.8c-2-0.1-4-0.2-5.8,1c-5.2-1-10.5-0.2-15.7-0.5c-1.8-0.1-3.6,0.5-5.3-0.5
		c0-0.3,0-0.7,0-1c1.8-1.9,4.2-2,6.5-2c19,0.1,37.8-2.9,56.7-4.1c11.8-0.7,23.6-0.6,35.4,0.1c22.6,1.4,45.2,1.9,67.8,1.1
		c4.8-0.2,9.9-1.8,14.7,0.8c0.1,1.4,0.8,1.9,2.3,1.8C382.2,178.8,385.1,178.9,388,179z"/>
	<path fill="#1F85A6" d="M198,157c9.9-1.3,19.9-0.9,29.8-1c0.7,0,1.5-0.6,2.2-0.9c9.3,0,18.7-0.6,28,0.1c15.5,1.2,30.7-0.5,46-2.2
		c15.1,0,30.2,0.4,45.3-0.2c6.8-0.2,13.5-0.7,20.3-0.9c2.3-0.1,4.7-0.7,6.3-2.4c1.5-1.5,3.2-1.6,5-1.5c0,0.3,0,0.7,0,1
		c0.7,2.6-1.7,2.9-3,4c-2.5,1.1-5.1,2.2-7.9,2.1c-3.9,1.4-8.1-0.5-12.1,0.9c-1.6,0-3.3,0-4.9,0.1c-13,0-26.1-1-39,0.2
		c-29.1,2.7-58.2,0.9-87.3,1.9c-22,0.7-44,2.5-66.1,3.2c-14.5,0.5-29,2.5-43.6,3c-9.8,0.3-19.6,0.3-29.4,0.7c-1.6,0.1-3.4-0.5-4.7,1
		c-4.8,1.6-9.8,2.6-14.9,2.1c-2.5-0.4-4.8,0.6-7.3,0.9c-1.3,0.2-3.1,0.1-3.2-1.5c-0.2-2.1,1.8-1.3,2.9-1.4c4.2-0.5,8.4-0.7,12.5-2
		c1.5-1.2,3.5,0.2,5-1c0.3,0,0.7,0,1,0c17.6-1.4,35.2-0.8,52.8-1c1.2,0,2.3,0.1,3.2-1c6.5-2.9,13.6-2,20.4-2.9
		c10.5-1.4,21.1-1.3,31.7-1.1c2.3-0.1,4.6,0.2,6.8-0.3C195.3,156.6,196.7,156.2,198,157z"/>
	<path fill="#0D6683" d="M377,177c-19.3,1-38.6,1.7-57.9,0.8c-18.6-0.9-37.2-2.5-55.8-1.6c-14.2,0.7-28.4,1.4-42.5,3.7
		c-0.8,0.1-1.7,0.1-2.5,0.2c-7.5,0.1-15-0.4-22.4,1c-3.3,0-6.7,0-10,0c-4.5,1-9.1,0.2-13.6,0.4c-0.9,0-1.5-0.4-1.4-1.5
		c18.8-1.2,37.6-2.1,56.4-3.7c19.8-1.8,39.6-4.7,59.5-3.1c26.4,2.2,52.7,1.6,79.1,1.9c2.9,0,5.8-1.7,8.8-0.3
		C375.9,175.3,377,175.5,377,177z"/>
	<path fill="#0D6784" d="M171,180c4.9,2.2,10,0.4,15,1c-1.5,1.6-3.4,0.9-5.2,0.9c-22.1,0.1-44.1,0-66.2,0.1
		c-9.5,0.1-19.1,1.7-28.6-0.1c2.8-2,6-0.5,9-1C120.3,180.7,145.7,181.7,171,180z"/>
	<path fill="#106A88" d="M68.1,168c5-0.7,9.9-1.4,14.9-2.1c3.6,0,7.2,0,10.9,0c0,0.3,0,0.5,0,0.8c-7.4,0.7-14.8,1.5-22.2,2.2
		C70.5,169.1,69,169.3,68.1,168z"/>
	<path fill="#1B7C9C" d="M78,163c-1.4,1.7-3.3,0.8-5,1C74.4,162.3,76.3,163.2,78,163z"/>
	<path fill="#1F86A7" d="M408.9,190c0.4,0.3,0.7,0.6,1.1,0.9c-3.1,3.3-7.5,3-11.4,3.9c-15.6,3.9-31.6,3.1-47.6,3.1
		c-34,0-68-0.5-101.9,0.2c-15.8,0.3-31.6,0.6-47.4,0.8c-1.6,0-3.2,0-4.7,0c0-0.5,0-0.9,0-1.4c25.6,0,51.3,0,76.9,0
		c0-0.5,0.1-1,0.1-1.6c-6-1.9-12.1-3.9-18.5-3.9c-16.7-0.2-33.3-0.5-50,0.1c-9.9,0.3-19.6,2.8-29.5,3.4c-13.7,0.8-27.4,2.1-41.2,0.7
		c-9.5-1-19.3-0.9-28.8,0.7c-14.5,0-29,0-43.5,0c-1.3,0-3.7,0.8-3.8-1c-0.2-2.4,2.2-1.8,3.8-1.9c5.7-0.5,11.3,1.1,16.9,0.9
		c28.9-1.2,57.9-0.5,86.8-1.1c11.2-0.2,22.5-1.4,33.4-4.2c2-0.5,3.9-0.6,5.9-0.6c11,0,22,0.4,33-0.1c14.1-0.7,27.7,1.4,41.4,4.5
		c4.5,1,9.1,1.7,13.8,1.6c21-0.1,42,0.7,63-0.3c14.2-0.7,28.6,0.7,42.6-2.8C402.5,191.2,405.5,189.5,408.9,190z"/>
	<path fill="#106A87" d="M135,73c0.4,0.9,1,1.6,2,2c10.2,1.9,20.5,0.7,30.5-0.9c10.1-1.7,20.1-1.7,30.2-0.3
		c11.6,1.6,23.4,2.4,35,3.8c7.4,0.9,14.8,1.9,22.1,3.1c5.2,1.9,11,1,16.2,3.4c1.1,0.2,2.4-0.5,3.4,0.9c-3.2,2.1-6.9,1.6-10,1
		c-15.7-3-31.5-4-47.4-5.1c-12.9-0.9-25.6-4.2-38.5-3.6c-9.4,0.4-18.8,1.7-28.2,2.6c-2.3,0.2-4.7,0.6-6.9-0.2
		c-17.2-5.4-34.3-3.2-51.6-0.1c-15.5,2.7-30.9,6.3-46.7,6.6c-3.1,0.3-6.4,1.7-9.2-0.8c2.2-2.3,5.2-2.1,7.9-2.4
		c17.1-1.7,33.9-4.9,50.8-7.7c0.7-0.1,1.3-0.1,2-0.1c2.8,0.4,5.6-1,7.4-0.5c-3.7,0.6-8.5,0.1-13.1,1.4c-2.5,0.4-5,0.7-7.5,0.4
		c-1.4-0.2-2.9-0.3-3.5-2c0.4-0.8,1.1-1.2,1.9-1.4c1.8-0.3,3.7-0.2,5.5-0.9c1.3-0.3,2.7-0.4,4-0.4c2.2,0.1,4.4-0.1,6.6-0.6
		c5.3-0.1,10.7,0,16-0.1c5,1.1,10.1,0.6,15.1,1.1C130.9,72.1,133.1,71.7,135,73z"/>
	<path fill="#0F6A88" d="M86,98c-12.5,0-24.9,0-37.4,0c-1.6,0-3.4,0.5-4.7-1c13,0.6,25.9-0.5,38.8-1.2c32.7-1.8,65.5-0.3,98.2-0.9
		c2.7-0.1,5.7-2.1,8,1c-4.7,1.2-9.5,1-14.4,1c-27.6,0-55.3,0-82.9,0C89.8,97,87.7,96.3,86,98z"/>
	<path fill="#12708E" d="M189,96c-2.5-2-5.4-0.5-8-1c5.7-2.1,11.7-1.1,17.6-1.8c19.5-2.2,39.3-2.7,58.7-6c1-0.2,2.3-0.6,3.7,1.5
		C236.8,92.6,212.8,93.6,189,96z"/>
	<path fill="#2A95B8" d="M271,84c-5.5,0.5-10.8-0.4-16-2c-7.6-2-15.3-3.6-23.2-4c-1.2-0.1-2.3-0.1-3-1.3c0.2-2.1,2-1.4,3.2-1.7
		c1.3,0,2.6,0.1,3.9,0.1c5,0.6,10.1,0.6,15.1,1c6.1,2.2,12.1,5,18.8,4.8c1.5,0,2.9,0.3,4.2,1.1C273,82.7,272,83.3,271,84z"/>
	<path fill="#0E6785" d="M78,91c-5.2-2.2-10.7-0.4-16-1c0.7-0.9,1.7-1,2.7-1c23.9-0.2,47.9-1.7,71.8-1c0.5,0,0.9,0.2,1.6,0.3
		c-1.7,1.1-3.3,0.6-4.9,0.6C114.8,88.5,96.5,91.3,78,91z"/>
	<path fill="#116D8B" d="M36,85c2.8,2,6.1,0.5,9,1c-3.1,1.9-6.4,0.8-9.7,0.9c-6.8,0.2-13.6,0-20.4,0c1.6-4,5.4-2.4,8.2-3.3
		c1.6-0.3,3.3-0.1,4.9-0.2C30.7,83.9,33.7,82.9,36,85z"/>
	<path fill="#0F6A88" d="M23,84c-2.3,2.1-6.1,0-8,3c-1.3,0-2.7,0-4,0c-0.7-0.7-1.3-1.3-2-2c3-0.3,6-0.7,9-1c1.4-0.9,2.9-0.3,4.4-0.4
		C22.6,83.7,22.8,83.9,23,84z"/>
	<path fill="#0E6785" d="M67,92c2.8-2,6-0.6,9-1C73.2,92.9,70,91.7,67,92z"/>
	<path fill="#0F6785" d="M155,185c6.6,2.3,13.4,0.4,20,1c-1.5,1.6-3.5,1-5.2,0.9c-20.1-0.7-40.2,0.3-60.3,1.4
		c-19.4,1.1-38.8,0.9-58.2,1.9c-10.5,0.5-20.9,0.4-31.3,0.7c-1.7,0-3.6,0.5-5.6-1.1c1.4-1.3,2.9-0.8,4.2-0.8
		c25.1,0.2,50.2-0.9,75.3-1.3c17-0.2,34.1-1.8,51.2-1.8C148.4,185.9,151.6,184.7,155,185z"/>
	<path fill="#0D6784" d="M196,182c5.5,0,10.9,0,16.4,0c1.6,0,3.4-0.5,4.7,0.9c-8.4,0-16.7,0-25.1,0C193,181.5,194.6,182.2,196,182z"
		/>
	<path fill="#126F8D" d="M199,66c-2.1,1.9-4.7,0.6-7,1c-1.7,0.3-3.6-0.6-5,1c-15.1-0.3-30.1-1.7-44.6-6.2
		c-5.1-1.6-10.5-1.7-15.2,2.1c0.8-3.7,1.7-4.6,5.3-4.8c4.9-0.4,9.5,0.5,14.2,1.8C163.8,65.6,181.4,66.4,199,66z"/>
	<path fill="#2996B9" d="M232,75c-0.7,1.2-1.9,1-3,1c-2.4,1.7-5.2,1.2-7.7,0.9c-16.9-2.2-33.8-4.2-51-3.2c-0.5,0-0.9-0.4-1.3-0.7
		c3-2.6,7,0.6,10-2c17.1,0.1,34.1,0.5,51,3C230.7,74.3,231.4,74.6,232,75z"/>
	<path fill="#137594" d="M440,224c-12,0-24-0.6-36,0.1c-32.5,1.9-64.9,0.9-97.4,0.7c-24.5-0.1-49-2.9-73.6-2.8
		c-2.2-1-4.5-0.2-6.7-0.5c-1-0.1-2.5,0.5-2.3-1.5c0.3,0,0.7,0,1,0c4-1.4,8.3,0.6,12.2-1.4c5.6-0.5,11.2,0.6,16.8-0.6
		c0.3,0,0.7,0,1,0c1.2-1.1,2.8-1,4.2-1c17.2,0,34.4-1.7,51.6-1c12.5,0.1,24.9,0.1,37.4-0.7c1-0.1,2,0,2.8,0.7c2.1,1.4,4.6,2,7,1.9
		c16.3-0.4,32.6,1.9,48.9,1c9.2-0.5,18.2,1.1,27.4,1C437.2,220,439,221.4,440,224z"/>
	<path fill="#157696" d="M351,216c-13.4,0.2-26.7,1.6-40,1c-0.6-1.1,0.5-1.4,1-2c11.6,0,23.2,0,34.8,0c0-0.3,0-0.7,0.1-1
		c-2.4,0-4.9,0-7.3,0c-12,0-24-0.1-36.1-0.2c-1.3,0-2.5-0.7-3.4-1.8c11.9-1.9,23.9-0.6,35.8-1c17.9-0.6,35.8-0.9,53.6-2.2
		c6.2-0.5,12.5-0.4,18.8-1.5c6.4-1.2,12,2.7,17.9,4.8c-1.9,2.8-4.9,2.5-7.7,2.5c-12.8,0.1-25.6,0-38.3,0c-5.8,0-11.5,1.1-17.6-0.4
		c1.5,1.2,4-1.1,4.6,1.9C361.7,216,356.4,216,351,216z"/>
	<path fill="#2085A7" d="M367,216c-2.3-2.1-5.5-0.1-8.3-1.5c20-1.9,39.7-1.4,59.4-1.4c2.7,0,5.3-0.2,7.8-1c3.5-0.8,5.2,2.2,9.1,4
		C411.6,216,389.3,216,367,216z"/>
	<path fill="#126D8C" d="M272,212c0,0.7,0,1.3,0,2c-25.7-2-51.5-0.6-77.2-1c-3.3-0.1-6.3-1.8-9.7-1.5
		C214.1,211.2,243.1,210.5,272,212z"/>
	<path fill="#137291" d="M68.8,213.4c-15.1,1.4-30.1-0.5-45.1-1.8c0-0.5,0-1.1,0-1.6c7.6,0,15.2-0.1,22.7,0
		C54,210.2,61.1,213.4,68.8,213.4z"/>
	<path fill="#1F86A8" d="M36,101c22.2,0.5,44.4,1.2,66.5,3.8c1.3,0.2,2.7,0.1,4,0.1c24.3,0,48.6,1,72.9-0.3c19.6-1,39.3-2,58.9-4
		c13.6-1.4,27-5.4,40.9-4.7c5.2,0.3,10.1,1.8,15.2,2.4c0.6,0.1,1.2,1.1,1.7,1.6c-1.8,3.7-4.9,2.4-7.2,1.4
		c-10.2-4.5-20.2-2.1-30.2,0.4c-12.1,3-24.3,4.6-36.8,5.3c-39.6,2.1-79.2,0.9-118.8,0.8c-19.3-0.1-38.6-2.5-57.9-3.7
		c-4.6-0.3-9.2-0.6-13.9,0.5c-2.7,0.6-5.6,0.1-8.5,0.1c0.6-3.1,4.2-0.6,5.2-2.8c0,0,0,0,0,0C30.5,100.7,33.4,102.3,36,101z"/>
	<path fill="#0E6986" d="M131,120c-0.3-0.7-0.7-1.3-1-2c15.3-0.3,30.6-0.1,45.8,1.1c6.8,0.6,13.5,1.3,20.2-0.1c-1.4,3.4,2.8,1.1,3,3
		C176.3,122.3,153.7,118.9,131,120z"/>
	<path fill="#126E8D" d="M230.1,131c-1.3,1.4-3.1,0.9-4.7,0.9c-4.5,0.1-9,0.2-13.4,0c-17.5-0.6-35,1.6-52.6,1.1
		c-2.4-0.1-4.9,0.6-7.3,0.9c-2.1,0.1-4.4,2-6-1c14-1.4,27.9-3.3,42-3c5.1,1,10.2,0.5,15.3,0.2c8.2-0.5,16.3-0.2,24.5-0.1
		C228.7,130.1,229.4,130.4,230.1,131z"/>
	<path fill="#0E6886" d="M230.1,131c-12.3,0-24.6,0-36.9-0.1c-1.7,0-3.7,0.7-5.2-1c17.1-0.9,34.3-1.2,51.5-0.9
		c1.1,0,4.2-2.2,3.5,1.8C238.7,131,234.4,131,230.1,131z"/>
	<path fill="#167897" d="M146,133c1.7,1.8,4,0.6,6,1c-6.6,1.5-13.3,2-20,2c-0.5,0-1.1,0.1-1.5-0.1c-1.4-0.8-0.1-0.8,0.4-0.9
		C135.9,134.1,140.9,132.9,146,133z"/>
	<path fill="#116D8B" d="M268,143c-0.8,1-2,1-3.2,1c-13.6,0.1-27.2-0.2-40.7,1c-12.7,1.2-25.4,2.3-38.1,2c-1.6-1.7-3.8-1-5.7-1
		c-26.4-0.1-52.9,0-79.3-0.1c1.7-1.7,3.8-0.9,5.7-0.9c27.3-0.1,54.5-0.2,81.8,0c15.6,0.1,31.1-1.2,46.5-2.9c3-0.3,6-0.1,9-0.1
		c4.1,2.1,8.4,0.7,12.6,0.9C260.4,143.2,264.2,143,268,143z"/>
	<path fill="#2995B9" d="M175.9,37c-0.6-0.3-1.3-0.7-1.9-1c-2.9-1-5.1-3.3-8-4.4c-3.5-1.4-7.2-1.3-10.8-1.2
		c-13.5,0.3-26.8,2.6-40.3,2c-3.2-0.1-6.5,0.1-9.7-0.1c-1.6-0.1-3.8,0.3-4.1-2.3c17.5-1.7,34.9-3.2,52.5-4.1
		c7.7-0.4,13.9,2.5,19.9,6.4c1.9,1.3,3.7,2.7,6.2,3.6C178.5,37.5,177,36.8,175.9,37z"/>
	<path fill="#238CAF" d="M101,30c4.5,2.1,9.4,0.5,14,1c-1.3,3.5-4.4,1.9-6.7,2.4c-3.3,0.1-6.7-0.4-10,0.5c-0.5,0.2-1.1,0.3-1.7,0.3
		c-3.9,0.4-7.8-0.4-11.7,0.8c-8.2,2-16.6,2.8-25,2.9c-10.6,1-20.9,4.2-31.6,4.5c-2.1,0.1-4.2,0.5-6.3,0.5c0.8-1.3,2.2-0.9,3.4-1
		c0.4,0,0.9-0.2,0.5-0.7C25.7,41,25.3,41.1,25,41c6.3-2.3,12.9-1.8,19.4-2.8c6-0.9,12.1-1.9,17.9-3.5c8.8-2.4,17.9-3,26.9-3.5
		C93.2,30.9,97,29.7,101,30z"/>
	<path fill="#106C8A" d="M91,16c0.3,0.3,0.7,0.7,1,1c0,0.3-0.1,0.6-0.1,0.9c-3.1,1.8-6.6,1.4-10,2c-4.7,0.8-9.3,2-13.9,3.2
		c-2.7,1-5.3,2-8,2.9c-0.6-3.4-3.3-1.5-5.1-2c-0.3-0.4-1-0.4-1-1C66.5,21.6,78.1,15.6,91,16z"/>
	<path fill="#167696" d="M85.9,24.9c3.8-2.3,8-0.8,12.1-1.5c8.2-1.4,16.7-1.7,25-2.4c2.5,1.8,5.6-1.3,8,1c-5.1,2.3-10.7,0.7-16,1.7
		c-7.9,1.5-16,1.6-24,2.2C89.5,24.6,87.3,26.6,85.9,24.9z"/>
	<path fill="#2792B6" d="M68.1,23.1c7.4-4.3,15.6-4.6,23.8-5.2c2.3,0,4.6,0,6.9,0c0,0.3,0.1,0.6,0.1,0.9
		C88.6,20.2,78.3,21.6,68.1,23.1z"/>
	<path fill="#157696" d="M13,29c-2.5-2-5.4-0.5-8-1c2.7-1.9,5.8-0.8,8.7-0.9c7.4-0.2,14.9,0,22.3,0c-0.5,2.8-2.7,1.9-4.3,1.9
		C25.4,29,19.2,29,13,29z"/>
	<path fill="#126F8D" d="M131,22c-2.7-0.5-5.6,1-8-1c1.3,0,2.6,0,4,0c3.2-1.3,6.8,0.4,10-1c2,0,4,0,6,0c4.9,2.2,10,0.4,14.9,1
		c2.7,0.3,5.6-1,8.1,1C154.3,22,142.7,22,131,22z"/>
	<path fill="#116E8C" d="M85.9,24.9c1.7,0.3,3.6-0.6,5,1c-6.7,1-13.3,2-20,3c-1.6-1.1-3.2,0.1-4.7,0c-1.6-0.2-3.8,0.9-4.2-1.9
		C70.1,27.8,78,25.9,85.9,24.9z"/>
	<path fill="#0C6885" d="M62,27c2.6,2.5,6.4-0.5,9,1.9c-4.5,0.3-9.3,3.2-13.6-1.3C59.1,26.6,60.6,27.1,62,27z"/>
	<path fill="#167696" d="M137,20c-3.2,2-6.7,0.6-10,1C130.2,19,133.7,20.4,137,20z"/>
	<path fill="#238CAF" d="M21,41c-1.4,1.7-3.3,0.8-5,1C17.4,40.3,19.3,41.2,21,41z"/>
	<path fill="#1C7E9F" d="M299.9,108c-0.1,2.4-2.3,2.4-3.6,2.6c-6.8,1.2-13.6,1.9-19.6,6c-2.5,1.7-6.4,1.5-9.6,1.7
		c-8.2,0.6-16.5,1.8-24.8,1.5c-0.7,0-1.5-0.6-2.2-0.9c6.3-1,12.7-1.7,19-2.9c4-0.8,6.8-4.3,11-5.2C279.9,108.7,290,109.1,299.9,108z
		"/>
	<path fill="#1D7FA0" d="M36,101c-2.5,1.9-5.4,0.6-8,1C30.5,100.1,33.3,101.3,36,101z"/>
	<path fill="#1D7F9F" d="M312,215c-0.3,0.7-0.7,1.3-1,2c-18.7-0.8-37.3,1.1-56,1c-5.6-2.2-11.4-0.4-17-1c1.1-1.4,2.7-0.9,4.2-1
		c3.5,0,7-0.1,10.5,0C272.5,216.6,292.2,214.3,312,215z"/>
	<path fill="#157696" d="M286.6,213.5c1.5-0.6,2.6-0.7,3.6,0C289.1,214.2,288.1,214.1,286.6,213.5z"/>
	<path fill="#187A9A" d="M224,220c2.6,2.5,6.4-0.5,9,2c-11,0-21.9,0-32.9,0C208,219.5,216,220,224,220z"/>
	<path fill="#1D7F9F" d="M254,218c-5.6,2.2-11.3,0.4-17,1c-0.7,0.6-1.3,0.6-2,0C241.2,216.8,247.7,218.6,254,218z"/>
	<path fill="#187A9A" d="M235,219c0.7,0,1.3,0,2,0c-3.9,2.1-8,0.5-12,1C228.2,218,231.7,219.5,235,219z"/>
	<path fill="#2E90B2" d="M141,3.1c0.8,1.2,2.7,0.6,3.4,2.5c-2.4,0.7-4.7,0.3-7-0.2c-1.8-0.4-4.4-1.7-5.3,1.6c-4,0-7.9,1.6-12,1.1
		c-5.1-0.4-10.2,0.4-15.3,0.9c-1.9,0.2-4,0.8-5.7-0.9c0.3-0.1,0.6-0.1,0.8-0.1c1.1-2,3.2-1,4.8-1.8c2.3-1.4,5,0.1,7.3-1.2
		c1-0.2,2-0.4,3.1-0.6c1.7,0,3.4,0.9,4.9-0.6c3.7-0.5,7.4-1,11-1.6C134.3,3.3,137.8,1.6,141,3.1z"/>
	<path fill="#156885" d="M141,3.1c-3.3-0.6-6.8,0.8-9.9-0.9c0.6-0.1,1.2-0.2,1.9-0.3c3.3,0.1,6.6,0.2,9.9,0.4
		C142.2,2.6,141.6,2.8,141,3.1z"/>
	<path fill="#407A96" d="M104.9,6.9c-1.8-0.1-3.4,0.3-5,1c-0.8-1.1-2.1-0.7-3.1-1c2.2-1.2,4.6-1,7-1C104.9,5.4,105.1,6,104.9,6.9z"
		/>
	<path fill="#438AA8" d="M104.9,6.9c-0.4-0.4-0.7-0.7-1.1-1.1c2.6-1.4,5.4-0.8,8.2-0.9C110,7,107,5.3,104.9,6.9z"/>
	<path fill="#3D82A1" d="M120,3.8c-1.4,2-3.1,1.4-4.9,0.6C116.7,4.1,118.3,4,120,3.8z"/>
	<path fill="#1A7B9B" d="M27,156c0.7-0.7,1.3-1.4,2-2c14.5-1.6,28.9-3.3,43.4-4.8c2.6-0.3,5.3-0.3,8-0.1c8,0.5,15.9-1.4,23.9-1
		c1,0.1,2.6-0.7,2.9,0.9c0.3,1.5-0.5,3-2.2,3.5c-0.9,0.3-1.9,0.5-2.9,0.5C77.1,154,52.1,156.7,27,156z"/>
	<path fill="#1F84A6" d="M169,73c6.3,0,12.7,0.3,19-0.1c13.8-0.8,27.3,3.5,41,3.1c6.9,1.3,13.7,2.7,20.6,4c1.9,0.4,3.9,0.6,5.4,2
		c-12.6-1.6-25.2-3.6-37.8-4.7c-13.7-1.2-27.2-4.1-41-3.3c-9.1,0.6-18.1,1.8-27.1,2.7c-4.2,0.4-8.1-0.5-12-1.8
		C147.7,74.9,158.5,75.6,169,73z"/>
	<path fill="#1F83A5" d="M90.9,73c-1.3,0-2.6,0-3.9,0c-1.5,1.2-3.5-0.2-5.1,1c-0.6,0-1.3,0-1.9,0c-7.8,3-15.7,4.7-24,2
		c7.4-1.3,14.9-2.2,22.2-4.1c7.9-2,15.7-1.6,23.7-2c9.7-0.4,19.4-0.8,29,1c1.7,0.3,3.3,0.2,4.1,2.1c-2,0-3.9-0.1-5.9-0.1
		c-5-1.4-10.1,0.4-15.1-1c-5.7,0-11.3,0-17,0C95.1,73.2,92.8,71.7,90.9,73z"/>
	<path fill="#0F6A88" d="M56,76c8.1,0.5,16-1.2,24-2c0.7,1.2,1.9,1,3,1c-1.8,3.9-5.7,2.8-8.6,3.1C68.2,79,62,79.6,55.7,79.5
		c-6-0.1-11.8,1.4-17.5,3.1c-3.3,1-6.5,2.3-10.1,1.4c-1.7,0-3.4,0-5.1,0c0,0,0,0,0,0c-0.3-0.2-0.4-0.4-0.3-0.7
		c0.1-0.2,0.2-0.3,0.3-0.3c4.7,0,9.1-1.3,13-4C42.7,78.1,49.2,76.2,56,76z"/>
	<path fill="#238AAC" d="M94,65c6.3,0.3,12.7-0.9,18.9,1.9c-6.3,0-12.6,0-18.9,0C93.4,66.3,93.4,65.7,94,65z"/>
	<path fill="#1E7FA0" d="M94,65c0,0.6,0,1.3,0,1.9c-4.1-0.2-8.1,0.2-12,1c-0.7-0.4-1.3-0.7-2-1.1c2.2-1.7,4.7-0.6,7-0.9
		c1.5-1.1,3.5,0.2,5-1C92.7,65,93.3,65,94,65z"/>
	<path fill="#238AAC" d="M92,65c-1.4,1.6-3.3,0.8-5,1C88.4,64.4,90.3,65.2,92,65z"/>
	<path fill="#1C7F9F" d="M73,15c-2.6-2.4-6.3,0.5-8.9-2c7,0,13.9-2.3,20.9-2c0.7,1.5,0.5,2.6-1.3,2.9C80.1,14.3,76.5,14.6,73,15z"/>
	<path fill="#0F6986" d="M54,23c0.3,0.3,0.7,0.7,1,1c-3.2,1.3-6.5,1-9.9,1C47.5,21.5,51,23.6,54,23z"/>
	<path fill="#1F84A5" d="M168,31c2.1,1.5,4.7,2.5,6,5c-1.3,4,1.8,3.7,4.1,4c1.1,0.2,2.7-0.2,2.7,1.5c0,1.6-1.6,1.3-2.7,1.5
		c-4,0.5-7.3-0.2-9-4.4c-1.3-3.1-3.7-3.6-6.9-3.7c-20-0.4-39.7,2.1-59.4,4.9c-11,1.5-22.1,2.2-33.1,3.2c-3.3,0.3-6.6,0.9-9.7,2
		c-6,0.8-11.8,2.7-18.1,0.9c8-2.3,16.1-4.6,24.1-6.9c6.8-3,14.1-3.4,21.2-4.2c4.6-0.5,9.3-0.7,13.9-1.2c17.7-0.9,35.4-2.4,53.1-3.4
		C158.9,30,163.4,30.5,168,31z"/>
	<path fill="#106B89" d="M101,35c-11.7,0.8-23.4,1.8-35,4c-1.8-1.8-4.1-0.6-6.1-1c8.4-1.3,16.7-2.7,25.1-4c3.9-0.9,7.8-0.2,11.7-0.4
		C98.2,33.9,100.4,31.9,101,35z"/>
	<path fill="#116D8B" d="M23,83c0,0.3,0,0.7,0,1c-1.7,0-3.4,0-5,0C19.4,82.4,21.3,83.2,23,83z"/>
	<path fill="#0F6A88" d="M832,325c5.1,0,10.1,0.2,15,2c-0.1,2.3,2.7,0.3,3,2c-0.3,3.1-2.5,3-4.8,3c-10.5-0.2-21.1,0.3-31.5-0.9
		c-4.2-0.5-8.5,1.6-12.7-0.1c-1,0.6-2.1,1-3.3,0.8c-16.7-1.6-33.2,1.1-49.9,1.9c-16.6,0.8-33.3,1.2-49.9,1.9
		c-18.2,0.8-36.3,0.4-54.4,0.9c-14.5,0.4-28.9,2-43.4,1.8c-2-0.1-4.1-0.2-6.1,0.4c-1.4,0.1-2.9,0.3-4-0.8c-0.3-0.3-0.7-0.7-1-1
		c3.5-3.7,8.5-3.5,12.9-4.4c27.9-6.1,56.3-7,84.8-7.3c35.8-0.3,71.5-0.6,107.3-0.9c12.8-0.1,25.5,1,38.2,2c0.1,0,0.5,0.1,0.3,0
		C832.1,325.9,832,325.5,832,325z"/>
	<path fill="#0A6582" d="M590,338c1.3,0,2.7,0,4,0c1.5-1.2,3.5,0.2,5-1c29.2-0.7,58.3-2.2,87.5-2.3c18.3,0,36.8-0.9,55.1-1.9
		c10-0.6,20.1-1.4,30.1-2.5c9.6-1,19.5-1,29.3,0.7c-1.3,2.8-3.8,1.8-6,2c-3.6,1.3-7.4-0.4-11,1c-3.3,0-6.7,0-10,0
		c-1.8,1.2-4.2-0.3-6,1c-2.3,0-4.7,0-7,0c-2.9,1.3-6.1-0.4-9,1c-2.7,0-5.3,0-8,0c-4.6,1.4-9.4-0.4-14,1c-3.3,0-6.7,0-10,0
		c-5,1-10.1,0.2-15.2,0.5c-1.9,0.1-3.9-0.5-5.8,0.5c-3,0-6,0-9,0c-5.6,1.3-11.4-0.4-17,1c-6,0-12,0-18,0c-2.5-2.5-5,0.1-7.5,0.1
		c-17.2,0.1-34.5,0.6-51.7,0.8c-4,0-7.8,2.1-12,0.6C585,337.6,588.6,340.3,590,338z"/>
	<path fill="#106987" d="M850,329c-2.1,0-4.2,0-6.6,0c0.6-2.8,2.5-1.6,3.6-2c10.1,0.8,20.1,1.7,30,4c-3.3,1.9-6.7,1-10,0.5
		C861.3,330.7,855.7,329.8,850,329z"/>
	<path fill="#106987" d="M699,338c4.9-2.2,10-0.5,15.1-1c2-0.2,4,0,5.9,0c-4.9,2.2-10,0.5-15.1,1C703,338.2,701,338,699,338z"/>
	<path fill="#106987" d="M673,339c5.6-2.2,11.3-0.4,17-1C684.4,340.2,678.7,338.4,673,339z"/>
	<path fill="#106987" d="M730,337c4.5-2.1,9.3-0.5,14-1C739.5,338.1,734.7,336.5,730,337z"/>
	<path fill="#106987" d="M784,334c3.5-2.1,7.4-0.5,11-1C791.5,335.1,787.6,333.5,784,334z"/>
	<path fill="#106987" d="M752,336c2.8-2,6-0.6,9-1C758.2,337,755,335.6,752,336z"/>
	<path fill="#106987" d="M768,335c1.8-1.8,4-0.7,6-1C772.2,335.8,770,334.7,768,335z"/>
	<path fill="#106A87" d="M251,76.1c-5.2,1.5-10.2,0.7-15.1-1C241.1,73,246.1,74.1,251,76.1z"/>
	<path fill="#157695" d="M358,156c3.9-2,8.1-0.5,12.1-0.9c3.6,2.5,7-0.4,10.5-0.4c1.2,0,2.7-1.2,3.3,0.8c0.6,2-0.9,2.5-2.5,3
		c-0.8,0.2-1.6,0.6-2.4,0.6c-9.6-0.5-19.1,1.9-28.9-0.1c5.6-0.7,11.2-1.4,16.7-2.1c0-0.3,0-0.5,0-0.8C363.9,156,360.9,156,358,156z"
		/>
	<path fill="#167696" d="M378,153c1-1.3,2-2.7,3-4C384.5,153.8,380,152.4,378,153z"/>
	<path fill="#0A6582" d="M832,325c1.2,1.9,3.5,0.3,5.7,2.2c-9.3-0.5-17.8-0.8-26.3-1.6c-4.7-0.5-9.2-0.8-13.8,0.1
		c-1.8,0.3-3.6,0.4-5.4,0.4c-23.6,0-47.3-0.7-70.9,0.2c-21.9,0.9-43.9,0-65.8,0.9c-14.8,0.6-29.6,2.1-44.2,5.4
		c-7.4,1.7-15,2.5-22.3,4.5c-3-0.4-5.7,0.7-8.6,1.4c-1.6,0.4-3.1,1.2-4.4-0.4c11.2-5.4,23.5-6.3,35.4-9c22.6-5.2,45.6-4.6,68.6-5.3
		c14.3-0.4,28.5-0.3,42.8-0.7c1.4,0,3,0.4,4.2-1c15.8,0,31.6-0.3,47.4,0.1c15.1,0.3,30.1,1,45.2,2.1C823.7,324.5,827.9,325,832,325z
		"/>
	<path fill="#126F8E" d="M188,158c-17.8-0.8-35.4,1.2-53,3.1c-3.3,0-6.6,0-9.9,0c7-1.5,14-2.7,21.1-3.1c15.5-1,31-2.5,46.5-1.9
		c1.7,0.1,3.7-0.7,5.2,1c-1.3,0-2.6,0-4,0C192.1,158.2,189.8,156.7,188,158z"/>
	<path fill="#1B7C9C" d="M188,158c1.8-1.7,4-0.7,6-1C192.2,158.8,190,157.7,188,158z"/>
	<path fill="#1D81A2" d="M28.1,84c6.9-1,13.2-4.3,20.2-5.3c7.9-1.1,15.9-0.2,23.8-1.6c3.7-0.7,7.5-0.9,11-2.1c2.7,0,5.3,0,8,0
		c2.1-0.1,4.4-2,6,1c-18.7,3.6-37.6,6.6-56.5,8.9C39,85.1,37.5,85,36,85C33.4,84.5,30.5,86,28.1,84z"/>
	<path fill="#167695" d="M97,76c-1.7-1.8-4-0.6-6-1c4.9-2.2,10-0.4,15-0.3C103,75.1,100,75.5,97,76z"/>
	<path fill="#0F6A88" d="M114,72c5,0.5,10.2-1.2,15.1,1C124.1,72.5,118.9,74.2,114,72z"/>
	<path fill="#0F6A88" d="M90.9,73c1.8-1.7,4-0.7,6.1-1C95.2,73.8,93,72.7,90.9,73z"/>
	<path fill="#0F6A88" d="M81.9,74c1.4-1.5,3.3-0.8,5.1-1C85.6,74.7,83.7,73.8,81.9,74z"/>
	<path fill="#116E8C" d="M101,35c-1.1-1.5-2.7-0.8-4.1-1.1c-0.3-0.2-0.3-0.5-0.2-0.7c0.1-0.2,0.2-0.3,0.3-0.3c0.3,0,0.6,0,1,0
		c3.2-1.4,6.8,0.4,10-1c2.3-0.4,4.9,0.8,7-1c14.5,0.7,28.9-2.2,43.4-2.1c3.4,0,6.6,0.5,9.6,2c-5.3,0.9-10.7,0.6-15.9,0.7
		c-13.9,0.2-27.8,2.2-41.7,2.4C107.2,34.1,104.2,35.5,101,35z"/>
	<path fill="#1F84A5" d="M97,33c0,0.3-0.1,0.6-0.1,0.9c-4,0-7.9,0-11.9,0C88.9,32,93,33.4,97,33z"/>
	<path fill="#1F84A5" d="M108,32c-3.2,1.9-6.7,0.6-10,1C101.2,31,104.7,32.4,108,32z"/>
	<path fill="#106987" d="M599,337c-1.4,1.7-3.3,0.8-5,1C595.4,336.3,597.3,337.2,599,337z"/>
</g>
</svg>
